<svg width="1230" height="281" viewBox="0 0 1230 281" fill="none" xmlns="http://www.w3.org/2000/svg">
<path fill-rule="evenodd" clip-rule="evenodd" d="M1007.83 100.754C963.077 100.754 934.354 133.509 934.354 172.62C934.354 211.73 963.077 243.869 1007.83 243.869C1052.59 243.869 1081.32 211.73 1081.32 172.62C1081.32 133.517 1052.38 100.754 1007.83 100.754ZM1007.83 215.413C980.774 215.413 964.532 195.352 964.532 172.423C964.532 149.081 980.983 129.422 1007.83 129.422C1034.69 129.422 1051.14 149.081 1051.14 172.423C1051.14 195.55 1034.69 215.413 1007.83 215.413ZM907.319 153.591C907.319 123.206 887.01 103.738 855.265 103.738H787.827V240.917H817.387V203.451H842.325L872.262 240.917H909.786L876.297 200.036C895.697 193.16 907.319 176.315 907.319 153.591ZM817.395 131.988H854.573C868.22 131.988 878.595 139.955 878.595 153.661C878.595 167.083 868.356 175.193 854.573 175.193H817.395V131.988ZM510.396 103.824L453.149 241.004H485.619L497.07 211.932H555.571L567.232 241.004H600.746L543.291 103.824H510.396ZM507.277 186.338L526.22 138.833L545.162 186.338H507.277ZM684.823 216.437C705.229 216.437 717.091 201.49 717.091 181.832V103.824H746.65V182.243C746.65 220.326 722.499 244.687 684.823 244.687C647.557 244.687 622.996 220.318 622.996 182.243V103.824H652.764V181.832C652.764 201.695 664.836 216.437 684.823 216.437ZM1227.06 103.824L1179.18 170.774L1229.97 240.996H1192.71L1161.49 195.752L1130.26 240.996H1094.03L1144.41 171.391L1095.49 103.824H1132.76L1162.32 146.618L1192.93 103.824H1227.06Z" fill="white"/>
<mask id="mask0_759_5092" style="mask-type:luminance" maskUnits="userSpaceOnUse" x="0" y="0" width="518" height="281">
<path d="M517.883 0H0V280.681H517.883V0Z" fill="white"/>
</mask>
<g mask="url(#mask0_759_5092)">
<path opacity="0.5" d="M285.169 50.3671C276.792 49.0536 267.867 47.5358 258.941 47.5358C250.017 47.5358 241.091 49.0536 232.715 50.3671L196.594 56.0239L258.941 126.76L321.291 56.0239L285.169 50.3671Z" fill="white"/>
<path opacity="0.5" d="M517.087 1.37332C518.073 2.57032 518.287 4.41548 516.896 5.81683L465.507 57.5797C458.845 64.288 450.197 68.6267 440.869 69.9286L395.498 76.2817C388.426 77.2738 381.736 80.1411 376.13 84.6018L354.433 101.856L333.645 90.3071V70.5483L369.082 53.1242L438.052 47.6005L515.539 1.12805L517.087 1.37332Z" fill="white"/>
<path opacity="0.5" d="M0.795615 1.37332C-0.189848 2.57032 -0.404286 4.41548 0.986956 5.81683L52.376 57.5797C59.0365 64.288 67.6854 68.6267 77.0126 69.9286L122.385 76.2817C129.456 77.2738 136.14 80.1476 141.752 84.6018L163.449 101.856L184.237 90.3071V70.5483L148.801 53.1242L79.83 47.6005L2.34356 1.12805L0.795615 1.37332Z" fill="white"/>
<path opacity="0.5" d="M378.482 120.676C383.638 111.966 379.975 100.69 370.693 96.7077L364.22 93.9332L305.703 130.926C301.75 134.062 298.981 138.464 297.873 143.402L276.354 278.413L282.135 276.985C285.027 276.273 287.505 274.419 289.025 271.854L378.482 120.676Z" fill="white"/>
<path opacity="0.5" d="M139.405 120.676C134.25 111.966 137.913 100.69 147.194 96.7077L153.666 93.9332L212.184 130.926C216.137 134.062 218.906 138.464 220.015 143.402L241.533 278.413L235.752 276.985C232.861 276.273 230.382 274.419 228.861 271.854L139.405 120.676Z" fill="white"/>
<path d="M512.683 0.43769L462.572 28.1014C450.676 34.67 437.325 38.109 423.752 38.109H379.029C365.776 38.109 352.633 40.6079 340.292 45.4716L264.463 75.3716C260.919 76.7674 256.981 76.7674 253.431 75.3716L177.597 45.4716C165.255 40.6079 152.113 38.109 138.859 38.109H94.1299C80.558 38.109 67.2125 34.6642 55.3111 28.1014L5.19948 0.43769C3.61029 -0.443973 2.03266 0.104868 1.12207 1.20838L62.1549 46.4175C67.7345 50.5513 74.3637 53.0094 81.2773 53.5173L134.677 57.4001C142.56 57.978 150.187 60.4307 156.938 64.5697L167.708 71.1678C174.447 75.3014 173.729 85.3735 166.473 88.4913L162.714 90.103L154.003 93.8458L207.247 136.153C211.196 139.293 213.963 143.708 215.07 148.648L241.796 278.588C253.06 281.379 264.823 281.379 276.086 278.588L302.812 148.648C303.92 143.702 306.681 139.288 310.636 136.153L363.874 93.8458L355.162 90.103L351.404 88.4913C344.149 85.3735 343.429 75.296 350.168 71.1678L360.939 64.5643C367.684 60.4307 375.317 57.9726 383.199 57.4001L436.6 53.5173C443.513 53.0152 450.141 50.5571 455.722 46.4175L516.761 1.20838C515.85 0.104868 514.278 -0.443973 512.683 0.43769Z" fill="white"/>
</g>
</svg>
