<svg width="1174" height="437" viewBox="0 0 1174 437" fill="none" xmlns="http://www.w3.org/2000/svg">
<g clip-path="url(#clip0_759_5074)">
<path d="M203.573 430.663C128.899 430.663 58.762 390.674 20.5877 326.259C15.0046 316.768 10.0496 306.788 6.00181 296.598L0.0697886 281.594L13.3296 272.452C33.2892 258.704 44.6647 238.953 44.6647 218.156C44.6647 197.36 33.2194 177.61 13.3296 163.861L0 154.718L6.00181 139.714C10.0496 129.594 14.8649 119.685 20.448 110.193C58.6224 45.7088 128.76 5.65015 203.573 5.65015C269.802 5.65015 331.077 35.7291 371.764 88.2798L384.186 104.331L277.968 186.402L265.616 170.421C250.681 151.089 228.069 139.993 203.712 139.993C193.733 139.993 184.032 141.877 174.82 145.506C164.911 149.485 155.977 155.347 148.37 162.954L119.757 134.34C131.273 122.825 144.741 113.962 159.816 107.96C173.773 102.377 188.569 99.586 203.712 99.586C233.862 99.586 262.196 110.752 283.9 130.781L326.471 97.9103C294.228 64.9006 250.471 46.2671 203.643 46.2671C143.066 46.2671 86.3285 78.7188 55.4121 130.991C53.3882 134.34 51.5738 137.83 49.7592 141.319C72.5103 161.977 85.2119 189.333 85.2119 218.296C85.2119 247.258 72.4406 274.616 49.7592 295.343C51.5738 298.902 53.458 302.391 55.4819 305.811C86.3982 357.943 143.136 390.395 203.643 390.395C241.049 390.395 276.642 378.53 306.582 356.198C313.63 350.894 320.329 345.102 326.471 338.821L283.9 305.95C262.196 325.98 233.862 337.146 203.712 337.146C172.028 337.146 142.229 324.793 119.827 302.391L148.44 273.778C163.235 288.573 182.846 296.738 203.712 296.738C228.069 296.738 250.611 285.642 265.616 266.311L277.968 250.329L384.186 332.401L371.764 348.382C359.97 363.596 346.221 377.135 330.798 388.72C293.81 416.356 249.843 431.011 203.643 431.011L203.573 430.663Z" fill="#E6E0E9"/>
<path d="M515.988 218.334C515.988 226.685 516.632 234.444 517.921 241.609C519.261 248.774 521.194 255.296 523.721 261.173C526.298 267.05 529.443 272.256 533.155 276.793C536.866 281.278 541.119 285.067 545.913 288.16C550.759 291.253 556.121 293.599 561.997 295.197C567.874 296.743 574.215 297.517 581.02 297.517C589.267 297.517 596.717 296.33 603.367 293.96C610.068 291.588 615.945 288.056 620.998 283.366C626.049 278.674 630.277 272.85 633.679 265.89C637.133 258.879 639.684 250.759 641.335 241.532H681.931C679.714 255.863 675.745 268.725 670.023 280.118C664.301 291.459 657.083 301.099 648.371 309.038C639.711 316.977 629.684 323.06 618.291 327.288C606.95 331.463 594.5 333.551 580.942 333.551C570.581 333.551 560.734 332.287 551.404 329.762C542.124 327.288 533.567 323.704 525.731 319.014C517.947 314.322 510.91 308.6 504.621 301.847C498.383 295.042 493.073 287.387 488.692 278.881C484.309 270.323 480.959 260.967 478.639 250.811C476.319 240.655 475.159 229.829 475.159 218.334C475.159 206.838 476.319 196.012 478.639 185.857C480.959 175.701 484.309 166.371 488.692 157.865C493.073 149.307 498.383 141.651 504.621 134.898C510.91 128.094 517.947 122.345 525.731 117.655C533.567 112.963 542.124 109.381 551.404 106.906C560.734 104.38 570.581 103.117 580.942 103.117C594.5 103.117 606.95 105.23 618.291 109.458C629.684 113.634 639.711 119.691 648.371 127.63C657.083 135.568 664.301 145.234 670.023 156.627C675.745 167.968 679.714 180.804 681.931 195.136H641.335C639.684 185.908 637.133 177.815 633.679 170.855C630.277 163.844 626.049 157.993 620.998 153.302C615.945 148.611 610.068 145.079 603.367 142.709C596.717 140.337 589.267 139.151 581.02 139.151C574.215 139.151 567.874 139.95 561.997 141.549C556.121 143.095 550.759 145.415 545.913 148.508C541.119 151.601 536.866 155.416 533.155 159.952C529.443 164.437 526.298 169.618 523.721 175.495C521.194 181.372 519.261 187.893 517.921 195.059C516.632 202.224 515.988 209.983 515.988 218.334Z" fill="#E6E0E9"/>
<path d="M737.877 245.475C737.877 254.032 738.985 261.739 741.202 268.595C743.47 275.4 746.692 281.2 750.868 285.994C755.043 290.788 760.095 294.474 766.024 297.052C772.003 299.577 778.705 300.841 786.129 300.841C791.18 300.841 795.846 300.248 800.125 299.062C804.403 297.825 808.27 295.995 811.724 293.572C815.178 291.098 818.245 288.055 820.926 284.447C823.607 280.787 825.875 276.56 827.731 271.766H865.157C862.889 281.405 859.332 290.04 854.486 297.67C849.691 305.299 843.84 311.795 836.932 317.157C830.076 322.466 822.266 326.513 813.502 329.297C804.739 332.132 795.279 333.55 785.123 333.55C772.39 333.55 760.817 331.385 750.404 327.054C739.99 322.724 731.047 316.615 723.571 308.728C716.096 300.841 710.323 291.355 706.25 280.272C702.177 269.188 700.141 256.919 700.141 243.464C700.141 230.06 702.152 217.869 706.173 206.889C710.246 195.856 715.968 186.397 723.339 178.51C730.711 170.622 739.553 164.539 749.862 160.261C760.172 155.93 771.591 153.765 784.118 153.765C796.542 153.765 807.78 155.878 817.833 160.106C827.885 164.333 836.469 170.339 843.583 178.123C850.749 185.856 856.264 195.238 860.131 206.27C863.997 217.25 865.93 229.519 865.93 243.078C865.93 245.088 865.878 247.099 865.775 249.109C865.724 251.12 865.569 253.233 865.311 255.45H726.819V227.612H845.748L828.117 255.063C828.272 253.207 828.375 251.325 828.427 249.418C828.529 247.459 828.581 245.552 828.581 243.696C828.581 234.365 827.601 226.143 825.643 219.029C823.735 211.863 820.9 205.857 817.137 201.012C813.425 196.114 808.811 192.429 803.295 189.954C797.831 187.428 791.516 186.165 784.35 186.165C777.082 186.165 770.586 187.428 764.864 189.954C759.142 192.479 754.27 196.166 750.249 201.012C746.28 205.806 743.212 211.657 741.047 218.565C738.934 225.473 737.877 233.257 737.877 241.918V245.475Z" fill="#E6E0E9"/>
<path d="M923.3 247.715V328.908H884.484V158.403H923.3V216.088L923.073 216.243C924.774 207.324 927.294 199.282 930.651 192.117C934.053 184.951 938.302 178.868 943.405 173.868C948.509 168.867 954.495 165.053 961.345 162.424C968.259 159.743 976.092 158.403 984.852 158.403H993.749V195.133H980.986C970.006 195.133 960.808 196.189 953.385 198.303C946.007 200.417 940.112 203.639 935.672 207.969C931.242 212.299 928.067 217.763 926.166 224.362C924.255 230.961 923.3 238.745 923.3 247.715Z" fill="#E6E0E9"/>
<path d="M1040.54 245.475C1040.54 254.032 1041.65 261.739 1043.87 268.595C1046.13 275.4 1049.35 281.2 1053.53 285.994C1057.7 290.788 1062.76 294.474 1068.68 297.052C1074.67 299.577 1081.37 300.841 1088.79 300.841C1093.85 300.841 1098.5 300.248 1102.79 299.062C1107.07 297.825 1110.93 295.995 1114.39 293.572C1117.84 291.098 1120.91 288.055 1123.59 284.447C1126.27 280.787 1128.53 276.56 1130.39 271.766H1167.82C1165.55 281.405 1161.99 290.04 1157.15 297.67C1152.35 305.299 1146.5 311.795 1139.6 317.157C1132.74 322.466 1124.93 326.513 1116.16 329.297C1107.4 332.132 1097.94 333.55 1087.79 333.55C1075.05 333.55 1063.48 331.385 1053.06 327.054C1042.66 322.724 1033.7 316.615 1026.24 308.728C1018.76 300.841 1012.98 291.355 1008.91 280.272C1004.84 269.188 1002.8 256.919 1002.8 243.464C1002.8 230.06 1004.81 217.869 1008.83 206.889C1012.91 195.856 1018.63 186.397 1026 178.51C1033.38 170.622 1042.21 164.539 1052.53 160.261C1062.83 155.93 1074.25 153.765 1086.78 153.765C1099.2 153.765 1110.44 155.878 1120.49 160.106C1130.55 164.333 1139.13 170.339 1146.25 178.123C1153.41 185.856 1158.93 195.238 1162.79 206.27C1166.66 217.25 1168.59 229.519 1168.59 243.078C1168.59 245.088 1168.54 247.099 1168.44 249.109C1168.39 251.12 1168.24 253.233 1167.97 255.45H1029.48V227.612H1148.41L1130.78 255.063C1130.94 253.207 1131.04 251.325 1131.09 249.418C1131.19 247.459 1131.25 245.552 1131.25 243.696C1131.25 234.365 1130.26 226.143 1128.31 219.029C1126.4 211.863 1123.56 205.857 1119.8 201.012C1116.09 196.114 1111.48 192.429 1105.96 189.954C1100.5 187.428 1094.17 186.165 1087.01 186.165C1079.75 186.165 1073.25 187.428 1067.53 189.954C1061.81 192.479 1056.93 196.166 1052.91 201.012C1048.94 205.806 1045.88 211.657 1043.71 218.565C1041.59 225.473 1040.54 233.257 1040.54 241.918V245.475Z" fill="#E6E0E9"/>
</g>
<defs>
<clipPath id="clip0_759_5074">
<rect width="1173.55" height="436.669" fill="white"/>
</clipPath>
</defs>
</svg>
