<svg width="557" height="556" viewBox="0 0 557 556" fill="none" xmlns="http://www.w3.org/2000/svg">
<g clip-path="url(#clip0_759_5101)">
<path d="M480.028 555.843L521.23 482.01C522.641 479.598 523.809 476.99 524.765 474.189C525.719 471.39 526.199 468.972 526.199 466.935C526.199 461.477 524.417 456.986 520.854 453.486C517.291 449.996 512.834 448.235 507.501 448.235C502.158 448.235 497.704 449.996 494.148 453.486C490.583 456.986 488.8 461.477 488.8 466.935C488.8 479.41 495.477 486.017 508.828 486.781L495.283 511.971C484.859 509.419 476.464 503.987 470.111 495.654C463.742 487.326 460.57 477.752 460.57 466.935C460.57 460.207 461.711 453.971 464.005 448.235C466.29 442.514 469.533 437.525 473.724 433.266C477.924 429.005 482.92 425.732 488.707 423.442C494.492 421.152 500.756 420.004 507.501 420.004C514.366 420.004 520.658 421.152 526.382 423.442C532.114 425.732 537.096 429.005 541.356 433.266C545.62 437.525 548.865 442.514 551.092 448.235C553.32 453.971 554.429 460.207 554.429 466.935C554.429 471.524 553.445 476.474 551.476 481.821C549.504 487.161 546.924 492.763 543.747 498.607L512.457 555.843H480.028Z" fill="#00AEEF"/>
<path d="M496.428 182.119C443.716 157.145 380.739 179.632 355.765 232.35C352.124 240.042 349.52 247.96 347.841 255.937L409.133 284.982C407.638 276.545 408.625 267.59 412.571 259.257C422.68 237.914 448.178 228.807 469.515 238.92C490.864 249.035 499.972 274.533 489.857 295.875C479.812 317.076 454.586 326.178 433.332 316.385L320.154 262.766L320.174 262.721L319.931 262.613L375.658 144.959C396.334 93.5293 373.624 34.2561 322.867 10.2153C270.155 -14.764 207.176 7.72345 182.204 60.4395C157.234 113.146 179.717 176.125 232.428 201.103C240.13 204.755 248.043 207.354 256.026 209.037L285.067 147.74C276.629 149.231 267.67 148.244 259.342 144.301C237.998 134.194 228.896 108.696 239.005 87.3521C249.119 66.0086 274.617 56.9009 295.96 67.0153C317.159 77.0604 326.263 102.285 316.47 123.535L263.288 235.782L144.95 179.73C93.5206 159.049 34.2475 181.763 10.2068 232.52C-14.7673 285.232 7.71482 348.211 60.4268 373.184C113.143 398.152 176.117 375.669 201.09 322.953C204.735 315.256 207.34 307.343 209.018 299.36L147.722 270.321C149.213 278.757 148.23 287.716 144.283 296.044C134.174 317.388 108.676 326.49 87.3382 316.381C65.9907 306.267 56.8882 280.77 66.9973 259.426C77.0424 238.227 102.267 229.125 123.523 238.918L236.46 292.423L236.44 292.463L293.084 319.302L293.089 319.292L411.907 375.576C463.335 396.258 522.614 373.537 546.651 322.785C571.625 270.074 549.141 207.1 496.425 182.122" fill="#00AEEF"/>
<path d="M0.840332 466.485C0.840332 439.862 22.0411 419.42 48.5298 419.42C65.1801 419.42 79.6984 426.989 88.7768 440.743C91.6834 445.412 94.074 450.458 94.8326 455.884H70.4813C66.8267 446.55 58.6256 439.862 48.5298 439.862C33.6449 439.862 24.0558 452.474 24.0558 466.485C24.0558 480.486 33.6449 493.609 48.5298 493.609C58.8696 493.609 66.448 487.175 70.4813 478.213H94.8326C89.5341 499.787 70.8599 514.047 48.9085 514.047C22.4158 514.047 0.840332 493.478 0.840332 466.485Z" fill="#00AEEF"/>
<path d="M105.051 419.42H129.148V492.721H157.284V514.047H105.051V419.42Z" fill="#00AEEF"/>
<path d="M184.662 466.365C184.662 481.002 194.503 493.485 209.768 493.485C224.279 493.485 234.24 480.621 234.24 466.74C234.24 452.611 224.279 439.738 209.388 439.738C194.503 439.738 184.662 451.978 184.662 466.365ZM161.32 467.623C161.32 460.936 162.458 454.507 164.979 448.19C166.239 444.79 168.384 441.127 170.913 438.103C180.241 425.74 193.742 419.426 209.388 419.426C236.014 419.426 257.581 439.738 257.581 466.74C257.581 493.617 236.014 514.055 209.262 514.055C183.394 514.055 161.32 493.995 161.32 467.623Z" fill="#00AEEF"/>
<path d="M352.578 419.42V514.047H302.749C292.908 513.792 282.568 511.144 275.874 503.952C267.422 494.867 266.418 486.791 266.418 474.937V419.42H290.513V474.937C290.513 483.386 291.894 492.851 302.749 492.851H331.375V419.42H352.578Z" fill="#00AEEF"/>
<path d="M388.924 440.619V492.857H399.265C415.919 492.857 422.479 482.134 422.479 466.739C422.479 451.724 415.538 440.619 399.516 440.619H388.924ZM364.818 514.052V419.425H396.116C413.275 419.425 427.14 422.202 437.869 437.086C444.049 445.539 446.585 456.018 446.585 466.491C446.585 497.401 428.915 514.052 397.876 514.052H364.818Z" fill="#00AEEF"/>
</g>
<defs>
<clipPath id="clip0_759_5101">
<rect width="556.86" height="555.83" fill="white"/>
</clipPath>
</defs>
</svg>
