<svg width="1212" height="224" viewBox="0 0 1212 224" fill="none" xmlns="http://www.w3.org/2000/svg">
<mask id="mask0_759_5076" style="mask-type:luminance" maskUnits="userSpaceOnUse" x="0" y="0" width="1212" height="225">
<path d="M1211.9 0H0V224.005H1211.9V0Z" fill="white"/>
</mask>
<g mask="url(#mask0_759_5076)">
<path d="M1138.73 96.719L1081.94 89.203C1053.54 85.1939 1047.02 77.1748 1047.02 63.1432C1047.02 38.4207 1076.76 31.2373 1102.31 31.2373C1143.91 31.2373 1163.95 49.1125 1165.12 74.6702H1204.55C1201.04 29.5684 1171.14 0.000183105 1102.15 0.000183105C1043.35 0.000183105 1006.6 25.2238 1006.6 66.8176C1006.6 99.224 1033.32 118.435 1063.39 122.445L1129.38 131.296C1161.45 135.639 1168.97 144.494 1168.97 159.36C1168.97 174.227 1156.6 192.769 1104.98 192.769C1053.37 192.769 1039 169.549 1039 146.497H999.084C1003.43 211.478 1058.21 224.006 1106.16 224.006C1170.13 224.006 1211.39 201.121 1211.39 152.343C1211.9 122.777 1191.52 103.902 1138.73 96.719Z" fill="white"/>
<path d="M178.732 146.497C175.478 160.152 167.357 172.15 155.886 180.239C144.413 188.328 130.379 191.952 116.424 190.43C65.1424 190.43 42.4297 157.022 42.4297 111.921C42.4297 66.8188 65.1424 33.5761 116.424 33.5761C152.339 33.5761 173.558 48.9455 179.237 74.6702H221.831C212.309 24.5571 168.711 0.000183105 113.586 0.000183105C38.0827 0.000183105 0 51.1158 0 113.089C0 167.545 30.7331 224.006 113.921 224.006C166.372 224.006 203.622 204.128 221.162 146.497H178.732Z" fill="white"/>
<path d="M610.874 0.000183105C529.19 0.000183105 489.271 51.6179 489.271 111.921C489.271 172.224 529.19 224.006 610.874 224.006C634.936 225.005 658.637 217.915 678.198 203.866C697.757 189.817 712.046 169.619 718.784 146.497H676.354C671.585 160.141 662.46 171.836 650.384 179.776C638.308 187.716 623.952 191.46 609.537 190.43C590.564 191.292 571.988 184.842 557.629 172.41C543.271 159.979 534.223 142.514 532.36 123.613H725.129V118.435C724.461 32.074 665.999 0.000183105 610.874 0.000183105ZM532.866 92.7102C536.134 75.2753 545.668 59.6375 559.669 48.745C573.669 37.8525 591.165 32.457 608.868 33.5761C626.282 32.3465 643.519 37.7653 657.097 48.7389C670.675 59.7125 679.589 75.4254 682.04 92.7102H532.866Z" fill="white"/>
<path d="M388.381 96.719L331.588 89.203C303.191 85.1939 296.841 77.1748 296.841 63.1432C296.841 38.4207 326.405 31.2373 351.963 31.2373C393.556 31.2373 413.606 49.1125 414.775 74.6702H454.864C451.189 29.5684 421.457 0.000183105 352.469 0.000183105C293.669 0.000183105 256.745 25.2238 256.745 66.8176C256.745 99.224 283.645 118.435 313.546 122.445L379.523 131.296C411.596 135.639 419.286 144.494 419.286 159.36C419.286 174.227 406.752 192.769 355.136 192.769C303.519 192.769 289.159 169.549 289.159 146.497H249.232C253.575 211.478 308.365 224.006 356.473 224.006C420.451 224.006 461.544 201.121 461.544 152.343C461.544 122.777 441.167 103.902 388.381 96.719Z" fill="white"/>
<path d="M883.326 -0.00118622C867.492 -1.01297 851.661 2.01315 837.315 8.79144C822.97 15.5697 810.578 25.8794 801.305 38.7541V8.35099L761.387 9.35424H744.684V33.5747L761.387 36.0808V216.823H801.305V95.8817C801.305 54.7889 833.714 33.5747 870.129 33.5747C912.892 33.5747 932.102 51.1148 932.102 82.0178V216.823H972.191V74C970.687 21.5483 933.773 -0.00118622 883.326 -0.00118622Z" fill="white"/>
</g>
</svg>
