<svg width="1000" height="182" viewBox="0 0 1000 182" fill="none" xmlns="http://www.w3.org/2000/svg">
<g clip-path="url(#clip0_759_5052)">
<mask id="mask0_759_5052" style="mask-type:luminance" maskUnits="userSpaceOnUse" x="0" y="-1" width="1001" height="183">
<path d="M1000 -0.00488281H0.00341797V181.256H1000V-0.00488281Z" fill="white"/>
</mask>
<g mask="url(#mask0_759_5052)">
<path d="M985.507 78.4075C977.621 78.4075 971.05 71.8371 971.05 63.9521C971.05 56.0674 977.621 49.4968 985.507 49.4968C993.386 49.4968 999.956 56.0674 999.956 63.9521C999.956 71.8371 993.386 78.4075 985.507 78.4075ZM0.00341797 2.62656H59.971C114.42 2.62656 149.944 40.7798 149.944 90.4975C149.944 140.215 114.42 178.105 59.971 178.105H0.00341797V2.62656ZM59.971 158.657C102.592 158.657 127.342 128.125 127.342 90.4975C127.342 52.8697 103.381 22.0755 59.971 22.0755H21.8616V158.612H60.0148L59.971 158.657ZM238.603 47.876C277.02 47.876 299.666 77.882 299.666 116.035V121.028H196.771C198.348 144.989 215.169 164.964 242.546 164.964C257.001 164.964 271.763 159.182 281.75 148.932L291.212 161.81C278.597 174.426 261.469 181.259 240.706 181.259C203.079 181.259 175.964 154.144 175.964 114.414C175.964 77.5753 202.29 47.8322 238.603 47.8322V47.876ZM196.771 106.573H280.173C279.911 87.6498 267.295 64.2149 238.34 64.2149C211.226 64.2149 197.822 87.1243 196.771 106.573ZM338.827 119.452C351.442 132.067 370.935 142.624 394.852 142.624C410.358 142.624 419.864 136.053 419.864 127.643C419.864 117.656 408.562 113.714 389.858 109.771C360.904 103.989 320.385 96.6297 320.385 55.0599C320.385 25.5798 345.397 0.0859375 390.384 0.0859375C418.55 0.0859375 442.993 8.49632 461.697 24.5724L436.948 56.9434C422.23 44.8536 402.999 38.8086 387.493 38.8086C371.987 38.8086 366.686 44.8536 366.686 52.4754C366.686 61.6743 377.462 64.8281 396.954 68.5075C425.909 74.5525 465.902 82.9632 465.902 122.693C465.902 157.955 439.839 181.346 392.75 181.346C357.224 181.346 332.519 170.308 314.866 153.444L338.827 119.495V119.452ZM492.973 143.938V86.3357H471.903V51.0737H492.973V16.2934H533.229V51.0299H559.029V86.2921H533.229V132.593C533.229 139.952 537.434 145.471 544.53 145.471C548.998 145.471 553.466 143.894 554.78 142.318L562.665 172.848C557.671 177.579 547.684 181.259 532.659 181.259C506.858 181.259 492.929 168.381 492.929 143.894L492.973 143.938ZM570.856 114.458C570.856 78.6699 596.92 47.876 640.067 47.876C683.211 47.876 709.54 78.6699 709.54 114.458C709.54 150.246 683.742 181.303 640.067 181.303C596.394 181.303 570.856 150.246 570.856 114.458ZM667.926 114.458C667.926 97.6371 657.938 83.6639 640.023 83.6639C622.107 83.6639 612.645 97.5934 612.645 114.458C612.645 131.322 622.37 145.515 640.023 145.515C657.676 145.515 667.926 131.585 667.926 114.458ZM730.782 51.0299H771.305V67.0622C779.715 56.812 795.789 47.876 811.03 47.876V87.0807C808.668 86.2921 805.252 85.7666 801.044 85.7666C790.534 85.7666 776.56 90.2344 771.305 97.5934V178.105H730.782V51.0299ZM888.654 47.876C926.279 47.876 953.661 75.5163 953.661 118.663V127.336H863.158C865.527 139.163 876.567 149.983 895.534 149.983C906.836 149.983 919.493 145.515 926.587 139.208L943.675 164.482C931.057 175.783 909.983 181.303 890.54 181.303C851.332 181.303 821.064 155.765 821.064 114.458C821.064 77.6189 848.97 47.876 888.695 47.876H888.654ZM862.587 101.01H914.936C913.883 92.074 907.312 79.1518 888.607 79.1518C871.003 79.1518 864.124 91.7673 862.547 101.01H862.587Z" fill="white"/>
</g>
</g>
<defs>
<clipPath id="clip0_759_5052">
<rect width="1000" height="181.208" fill="white"/>
</clipPath>
</defs>
</svg>
