<svg width="1224" height="288" viewBox="0 0 1224 288" fill="none" xmlns="http://www.w3.org/2000/svg">
<g clip-path="url(#clip0_759_5095)">
<rect width="288" height="288" rx="144" fill="#5C1073"/>
<circle cx="143.998" cy="144" r="137.471" stroke="url(#paint0_linear_759_5095)" stroke-width="13.99"/>
<path d="M269.128 144.382C269.128 156.401 259.385 166.145 247.365 166.145C241.714 166.145 236.567 163.99 232.698 160.458L208.354 192.752C206.609 195.066 202.923 193.833 202.923 190.935V167.951L167.522 150.923C161.81 148.175 161.823 140.037 167.543 137.308L202.923 120.429V97.4202C202.923 94.5247 206.604 93.2897 208.351 95.5989L232.933 128.095C236.774 124.689 241.828 122.619 247.365 122.619C259.385 122.619 269.128 132.363 269.128 144.382Z" fill="url(#paint1_linear_759_5095)"/>
<path d="M143.503 269.127C131.484 269.08 121.779 259.299 121.825 247.28C121.847 241.628 124.022 236.489 127.57 232.633L95.3723 208.166C93.0652 206.413 94.313 202.732 97.2106 202.743L120.194 202.831L137.359 167.497C140.128 161.795 148.267 161.839 150.975 167.571L167.717 203.016L190.725 203.105C193.62 203.116 194.841 206.8 192.526 208.538L159.931 232.999C163.321 236.852 165.37 241.912 165.349 247.448C165.303 259.467 155.522 269.173 143.503 269.127Z" fill="url(#paint2_linear_759_5095)"/>
<path d="M19.2558 143.019C19.3486 131.001 29.1671 121.333 41.1859 121.425C46.8371 121.469 51.9681 123.663 55.8095 127.225L80.4018 95.1209C82.1641 92.8204 85.8403 94.0825 85.8183 96.9802L85.6409 119.963L120.91 137.264C126.6 140.056 126.524 148.195 120.782 150.88L85.274 167.485L85.0963 190.492C85.074 193.387 81.3837 194.595 79.6547 192.272L55.3233 159.585C51.4561 162.962 46.3869 164.991 40.8498 164.949C28.8312 164.856 19.1633 155.038 19.2558 143.019Z" fill="url(#paint3_linear_759_5095)"/>
<path d="M145.847 19.2593C157.865 19.3985 167.495 29.2543 167.356 41.2726C167.291 46.924 165.076 52.047 161.499 55.8747L193.509 80.5908C195.803 82.3619 194.526 86.0332 191.629 86L168.647 85.7339L151.21 120.936C148.396 126.615 140.258 126.508 137.595 120.756L121.127 85.1835L98.1206 84.9171C95.2254 84.8836 94.0324 81.1887 96.3613 79.4686L129.142 55.2626C125.781 51.3825 123.77 46.3055 123.834 40.7686C123.973 28.7503 133.829 19.1203 145.847 19.2593Z" fill="url(#paint4_linear_759_5095)"/>
</g>
<path d="M374.4 186.199H435.781V167.518H397.584V152.84H432.778V134.159H397.584V119.481H435.947V100.8H374.4V186.199Z" fill="white"/>
<path d="M484.308 186.199L489.228 169.853H517.417L522.337 186.199H547.356L519.168 100.8H487.477L459.288 186.199H484.308ZM494.482 152.506L502.989 124.318H503.656L512.162 152.506H494.482Z" fill="white"/>
<path d="M570.259 186.199H593.444V158.011H601.45L616.462 186.199H641.648L624.301 154.341C633.391 149.963 638.812 141.665 638.812 129.822C638.812 111.641 626.094 100.8 607.121 100.8H570.259V186.199ZM593.444 139.997V119.314H601.617C609.748 119.314 614.627 122.483 614.627 129.822C614.627 137.119 609.748 139.997 601.617 139.997H593.444Z" fill="white"/>
<path d="M661.038 119.481H686.724V186.199H709.575V119.481H735.262V100.8H661.038V119.481Z" fill="white"/>
<path d="M758.665 186.199H781.85V152.84H812.54V186.199H835.725V100.8H812.54V134.159H781.85V100.8H758.665V186.199Z" fill="white"/>
<path d="M861.411 186.199H884.596V152.84H917.788V134.159H884.596V119.481H921.457V100.8H861.411V186.199Z" fill="white"/>
<path d="M995.202 100.8V153.507C995.202 161.472 989.489 167.184 981.525 167.184C973.56 167.184 967.847 161.472 967.847 153.507V100.8H944.663V155.509C944.663 175.024 959.424 187.2 981.525 187.2C1003.46 187.2 1018.39 175.024 1018.39 155.509V100.8H995.202Z" fill="white"/>
<path d="M1117.97 100.8H1094.79V145.501H1094.12L1063.77 100.8H1044.08V186.199H1067.27V141.331H1067.77L1098.63 186.199H1117.97V100.8Z" fill="white"/>
<path d="M1176.48 186.199C1202.5 186.199 1219.01 170.187 1219.01 143.499C1219.01 116.812 1202.5 100.8 1176.14 100.8H1143.62V186.199H1176.48ZM1166.8 166.517V120.482H1174.98C1188.32 120.482 1195.66 125.652 1195.66 143.499C1195.66 161.346 1188.32 166.517 1175.64 166.517H1166.8Z" fill="white"/>
<defs>
<linearGradient id="paint0_linear_759_5095" x1="161.128" y1="-51.18" x2="119.095" y2="336.342" gradientUnits="userSpaceOnUse">
<stop stop-color="#FFC85F"/>
<stop offset="1" stop-color="#DF2D62"/>
</linearGradient>
<linearGradient id="paint1_linear_759_5095" x1="287.713" y1="150.08" x2="145.916" y2="133.724" gradientUnits="userSpaceOnUse">
<stop stop-color="#FFC85F"/>
<stop offset="1" stop-color="#DF2D62"/>
</linearGradient>
<linearGradient id="paint2_linear_759_5095" x1="137.738" y1="287.69" x2="154.641" y2="145.958" gradientUnits="userSpaceOnUse">
<stop stop-color="#FFC85F"/>
<stop offset="1" stop-color="#DF2D62"/>
</linearGradient>
<linearGradient id="paint3_linear_759_5095" x1="0.715456" y1="137.179" x2="142.382" y2="154.629" gradientUnits="userSpaceOnUse">
<stop stop-color="#FFC85F"/>
<stop offset="1" stop-color="#DF2D62"/>
</linearGradient>
<linearGradient id="paint4_linear_759_5095" x1="151.759" y1="0.741509" x2="133.762" y2="142.34" gradientUnits="userSpaceOnUse">
<stop stop-color="#FFC85F"/>
<stop offset="1" stop-color="#DF2D62"/>
</linearGradient>
<clipPath id="clip0_759_5095">
<rect width="288" height="288" rx="144" fill="white"/>
</clipPath>
</defs>
</svg>
