<svg width="1015" height="212" viewBox="0 0 1015 212" fill="none" xmlns="http://www.w3.org/2000/svg">
<path d="M529.296 32.7363C535.671 15.5767 551.789 2.94588 570.331 13.1542C575.247 15.801 579.002 19.4781 581.595 24.1854C583.952 28.4648 584.438 32.9937 583.054 37.772C581.709 42.4176 578.896 45.919 574.617 48.2761C570.252 50.6803 565.703 51.2332 560.972 49.9347C556.28 48.5035 552.755 45.6483 550.398 41.3688C548.606 38.1165 546.127 37.3624 542.96 39.1067C540.393 40.521 538.325 44.0582 536.757 49.7185C534.352 60.3613 503.246 160.336 493.5 195.427C484.089 220.022 486.789 173.685 484.842 184.18C498.143 128.987 510.776 99.3533 529.296 32.7363Z" fill="#F5F4F0"/>
<path d="M129.238 211.4H120.598L111.838 200.12V200C104.238 205.6 95.4782 209.24 85.5584 210.92V211.04L83.3984 211.16L83.2784 211.28C79.8385 211.36 75.5186 211.4 70.3187 211.4C51.119 210.76 34.5993 201.88 20.7596 184.76C6.91987 167.641 0 146.761 0 122.122C0 97.4821 6.91987 76.6024 20.7596 59.4828C35.2393 41.5631 52.359 32.6033 72.1186 32.6033C75.3186 32.6033 79.3585 33.1233 84.2384 34.1632C90.1583 35.3632 97.1182 38.6832 105.118 44.1231L113.878 32.7233H122.518V68.2426H113.878C107.318 57.6828 101.198 50.4429 95.5182 46.523C90.1583 42.9231 84.9184 41.1231 79.7985 41.1231H76.9185L74.2786 41.6031C70.9187 42.5631 68.6787 43.4031 67.5587 44.1231C67.4787 44.1231 67.3987 44.1631 67.3187 44.2431C67.2387 44.2431 67.1987 44.2831 67.1987 44.3631C62.4788 47.003 57.9989 50.9229 53.759 56.1228C53.039 57.0028 52.359 57.9628 51.719 59.0028C51.559 59.0028 51.479 59.0828 51.479 59.2428C48.6791 63.1627 46.0791 67.6426 43.6792 72.6825C43.5992 72.6825 43.5192 72.7625 43.4392 72.9225C43.4392 73.0025 43.3992 73.1225 43.3192 73.2825C42.4392 75.3625 41.8792 76.6024 41.6392 77.0024C39.9592 81.4024 38.9993 84.0823 38.7593 85.0423L38.6393 85.1623L37.4393 89.0022C35.9993 94.7621 35.2393 97.802 35.1593 98.122C35.0793 98.362 34.7993 100.042 34.3194 103.162C33.8394 106.282 33.5994 108.082 33.5994 108.562C33.1994 111.282 32.9194 115.802 32.7594 122.122C32.7594 143.161 37.4393 161.761 46.7991 177.921C56.2389 194 66.9187 202.4 78.8385 203.12C88.1983 202.72 95.1182 199.2 99.5981 192.56C103.438 186.8 105.358 180.6 105.358 173.961C105.358 164.361 101.958 157.161 95.1582 152.361C92.9982 151.241 90.7183 150.321 88.3183 149.601V140.721H112.438C116.518 140.721 120.198 141.441 123.478 142.881C126.758 144.321 128.678 147.681 129.238 152.961V211.4Z" fill="#FF6754"/>
<path d="M192.859 211.281H142.699V202.521H151.339L151.459 85.8832H142.699V77.2434H184.219V113.963C190.779 99.563 197.978 89.6032 205.818 84.0833C212.458 79.4434 218.498 77.1234 223.938 77.1234C224.898 77.1234 225.818 77.1634 226.698 77.2434C233.178 78.2834 237.658 80.7633 240.138 84.6833C242.618 88.5232 243.858 92.6431 243.858 97.043C243.858 101.043 242.418 104.483 239.538 107.363C236.738 110.163 233.338 111.563 229.338 111.563C225.258 111.563 221.778 110.163 218.898 107.363C216.098 104.483 214.698 101.043 214.698 97.043C214.698 94.0031 213.218 92.4831 210.258 92.4831C207.858 92.4831 204.978 94.2031 201.618 97.643C196.578 103.323 192.419 109.523 189.139 116.243C185.859 122.883 184.219 128.162 184.219 132.082V202.521H192.979V211.161C192.899 211.161 192.859 211.201 192.859 211.281Z" fill="#FF6754"/>
<path d="M306.952 211.28L304.312 211.16C292.152 210.44 281.433 205.64 272.153 196.76C262.953 187.88 258.353 174.881 258.353 157.761V86.2423H249.713V77.2424H258.353V41.2431H249.713V32.4833H299.872V41.2431H291.112V77.2424H308.752V86.2423H291.112V172.881C291.432 186.24 294.432 194.84 300.112 198.68C304.112 201.32 308.312 202.64 312.712 202.64C314.632 202.64 316.552 202.4 318.472 201.92C325.112 200.4 329.992 198.24 333.112 195.44L340.191 200.48C331.552 207.68 320.472 211.28 306.952 211.28Z" fill="#FF6754"/>
<path d="M484.961 212H484.361C480.601 212 476.321 205.84 471.521 193.52C470.561 190.96 467.961 183.481 463.722 171.081C459.562 158.681 454.682 144.121 449.082 127.402C443.562 110.602 438.14 97.9764 432.94 82.4567C413.121 153.805 402.172 188.865 399.372 195.425C394.572 206.065 392.131 212 388.611 212C384.931 212 380.651 205.84 375.771 193.52C372.091 183.521 355.131 132.842 324.892 41.4832H316.132V32.7234H368.211V41.4832H359.331C387.171 125.162 396.866 166.318 397.266 167.678L428.322 65.0028C425.122 55.163 422.522 47.3231 420.522 41.4832H411.883V32.7234H459.878V41.4832H451.118C478.957 125.162 489.525 169.66 489.525 169.66L509.344 106.239C521.235 62.6377 539.737 13.9216 533.127 54.7101C527.181 82.457 513.308 133.986 499.434 177.588C489.188 209.792 486.575 212 484.961 212Z" fill="#F5F4F0"/>
<path d="M589.365 211.28H539.085V202.64H547.845V86.0025H539.085V77.3627L580.605 77.2427V202.64H589.365V211.28Z" fill="#F5F4F0"/>
<path d="M736.526 211.28H686.367V202.52H695.007V119.362C695.007 107.922 692.487 100.242 687.447 96.3223C683.847 93.5224 679.447 92.1224 674.247 92.1224C665.288 92.1224 653.928 96.0023 640.168 103.762V202.52H648.928V211.28H598.529V202.52H607.409V85.8825H598.529V77.2427H640.168V94.1624C661.048 83.3626 679.287 77.9627 694.887 77.9627H696.687C717.407 78.5227 727.766 92.3224 727.766 119.362V202.52H736.526V211.28Z" fill="#F5F4F0"/>
<path d="M996.971 211.28C992.005 211.28 987.78 209.537 984.295 206.053C980.811 202.568 979.068 198.387 979.068 193.508C979.068 188.542 980.811 184.317 984.295 180.833C987.78 177.348 992.005 175.606 996.971 175.606C1001.85 175.606 1006.03 177.348 1009.52 180.833C1013 184.317 1014.74 188.542 1014.74 193.508C1014.74 198.387 1013 202.568 1009.52 206.053C1006.03 209.537 1001.85 211.28 996.971 211.28Z" fill="#FF6754"/>
<path d="M803.382 211.4C789.062 211.4 777.702 208.52 769.303 202.76C755.863 193.241 747.063 179.201 742.903 160.641C742.503 158.801 742.183 156.881 741.943 154.881C741.463 151.521 741.223 148.041 741.223 144.441L741.343 139.402L741.703 135.442C743.783 118.642 749.903 104.762 760.063 93.8024C770.303 82.7626 782.382 77.2427 796.302 77.2427H806.502C821.702 77.2427 834.661 83.8026 845.381 96.9223C856.181 110.042 861.581 125.842 861.581 144.321H773.983L774.103 148.521L774.463 154.641C774.863 159.601 775.542 164.321 776.502 168.801C779.862 183.761 785.262 194.04 792.702 199.64C794.142 200.68 795.902 201.52 797.982 202.16C800.142 202.8 801.942 203.12 803.382 203.12C819.382 203.12 832.941 194.44 844.061 177.081L851.501 181.641C838.221 201.48 822.182 211.4 803.382 211.4ZM828.581 135.562C827.462 121.242 824.382 109.402 819.342 100.042C814.302 90.6824 808.342 86.0025 801.462 86.0025C794.582 86.0025 788.622 90.6824 783.582 100.042C778.542 109.322 775.463 121.082 774.343 135.322V135.562H828.581Z" fill="#F5F4F0"/>
<path d="M875.139 211.281H866.5V174.802L866.38 174.682H866.5V168.922H875.139C884.579 189.881 897.139 200.361 912.819 200.361C916.819 200.361 920.579 199.441 924.098 197.601C931.378 193.921 935.258 188.081 935.738 180.082C935.498 174.562 932.298 169.762 926.138 165.682C920.059 161.602 912.779 157.642 904.299 153.802C892.779 148.922 882.739 143.082 874.179 136.282C867.46 131.003 864.1 124.283 864.1 116.123C864.1 113.883 864.34 111.523 864.82 109.043C869.86 93.6032 880.979 83.8434 898.179 79.7635C903.139 78.6435 908.059 78.0835 912.939 78.0835C925.098 78.0835 937.018 81.6034 948.698 88.6433L957.458 77.2435H966.098V113.723L966.218 113.843H966.098V119.603H957.458C950.738 104.723 942.698 95.4432 933.338 91.7633C929.018 90.1633 924.898 89.3633 920.979 89.3633C916.419 89.3633 912.099 90.4433 908.019 92.6032C900.579 96.8432 896.859 102.803 896.859 110.483C896.859 115.363 899.699 119.523 905.379 122.963C911.139 126.323 917.979 129.603 925.898 132.802C938.298 137.522 949.138 143.602 958.418 151.042C965.138 156.482 968.498 163.602 968.498 172.402C968.498 175.842 967.978 179.522 966.938 183.442C961.498 197.841 950.298 206.601 933.338 209.721C929.178 210.521 925.018 210.921 920.859 210.921C908.299 210.921 895.979 207.241 883.899 199.881L875.139 211.281Z" fill="#F5F4F0"/>
</svg>
