<svg width="1000" height="264" viewBox="0 0 1000 264" fill="none" xmlns="http://www.w3.org/2000/svg">
<path fill-rule="evenodd" clip-rule="evenodd" d="M190.068 54.7966C184.355 45.4645 174.197 39.7695 163.26 39.7695H57.151C46.2141 39.7695 36.0559 45.4645 30.3434 54.7966L8.63558 90.2654C1.12618 102.529 2.89199 118.325 12.9149 128.634L85.6212 203.387C98.8332 216.97 120.55 217.272 134.126 204.052C134.354 203.834 134.572 203.616 134.79 203.387L207.496 128.634C217.519 118.325 219.285 102.528 211.776 90.2654L190.068 54.7966ZM128.118 78.463H155.527C159.261 78.463 162.298 81.55 162.298 85.3447V113.204C162.298 115.996 160.657 118.492 158.118 119.561C155.577 120.627 152.684 120.046 150.74 118.07L146.235 113.493L117.088 143.124C113.988 146.269 108.953 146.269 105.853 143.124L92.7827 129.837L78.6654 144.105C77.1654 145.632 75.1698 146.47 73.0486 146.47C70.9275 146.47 68.9318 145.629 67.4342 144.105L60.265 136.817C57.1678 133.666 57.1678 128.546 60.265 125.398L87.1289 98.0904C90.1265 95.0404 95.363 95.0433 98.363 98.0904L111.431 111.376L127.831 94.7832L123.331 90.2115C121.387 88.2356 120.813 85.2918 121.864 82.7115C122.916 80.1313 125.368 78.463 128.118 78.463Z" fill="#32F992"/>
<path d="M699.097 178.9C699.097 189.653 707.813 198.37 718.568 198.37C729.323 198.37 738.039 189.653 738.039 178.9C738.039 168.147 729.323 159.43 718.568 159.43C707.813 159.43 699.097 168.147 699.097 178.9Z" fill="#32F992"/>
<path d="M286.42 196.486H258.111V61.4462H286.42V196.486ZM355.099 95.1106C390.293 95.1106 390.293 125.332 390.293 144.268V196.486H362.367V144.268C362.367 132.409 362.367 119.402 348.022 119.402C334.25 119.402 330.042 131.644 330.042 145.607V196.486H302.116V97.4058H330.042V104.483C336.163 98.7448 343.623 95.1106 355.099 95.1106ZM466.435 104.101V61.4462H494.36V196.486H466.818V187.496C460.506 194.955 451.898 198.781 440.04 198.781C412.878 198.781 396.812 177.932 396.812 147.52C396.812 114.812 414.982 95.1106 440.231 95.1106C450.559 95.1106 459.932 98.3621 466.435 104.101ZM445.395 175.637C458.784 175.637 467.009 164.926 467.009 146.754C467.009 128.775 458.784 118.255 445.586 118.255C432.006 118.255 423.781 129.349 423.781 147.137C423.781 164.926 432.006 175.637 445.395 175.637ZM550.941 95.1106C583.648 95.1106 601.244 117.298 598.566 154.788H528.369C529.706 167.795 538.316 175.828 550.749 175.828C561.841 175.828 568.917 170.09 571.98 161.291L596.273 169.325C590.148 188.07 572.36 198.781 550.172 198.781C519.951 198.781 500.441 179.08 500.441 146.946C500.441 115.959 518.807 95.1106 550.941 95.1106ZM550.749 117.298C538.696 117.298 530.855 124.184 528.941 135.087H570.831C569.302 123.802 562.605 117.298 550.749 117.298ZM661.042 144.077L697.389 196.486H664.49L643.066 165.69L622.98 196.486H592.759L628.336 144.268L595.629 97.4058H628.528L646.124 122.654L662.191 97.4058H692.413L661.042 144.077ZM792.095 61.064V83.8255C778.321 82.2953 775.456 84.0164 775.456 92.4328V97.4058H792.095V119.976H775.456V196.486H747.528V119.976H733.566V97.4058H747.528V87.077C747.528 62.2116 766.273 55.5169 792.095 61.064ZM856.331 148.093V97.4058H884.259V196.486H859.201V184.818C853.466 193.043 845.812 198.781 830.893 198.781C797.038 198.781 796.845 170.664 796.845 153.832V97.4058H824.773V148.476C824.773 164.926 825.153 174.489 837.97 174.489C855.951 174.489 856.331 156.701 856.331 148.093ZM951.047 95.1106C986.24 95.1106 986.24 125.332 986.24 144.268V196.486H958.316V144.268C958.316 132.409 958.316 119.402 943.97 119.402C930.196 119.402 925.99 131.644 925.99 145.607V196.486H898.062V97.4058H925.99V104.483C932.11 98.7448 939.571 95.1106 951.047 95.1106Z" fill="#32F992"/>
</svg>
