<svg width="1000" height="272" viewBox="0 0 1000 272" fill="none" xmlns="http://www.w3.org/2000/svg">
<g clip-path="url(#clip0_759_5055)">
<path d="M76.1091 6.65017e-06C66.0634 0.0501077 56.1257 2.0892 46.8638 6.0012C37.602 9.9132 29.1974 15.6218 22.1299 22.8C15.0624 29.9782 9.47056 38.4859 5.67361 47.8371C1.87669 57.1884 -0.0508162 67.2001 0.00101832 77.3005V102.834H61.8394V65.8414C61.8386 64.1041 62.1784 62.3838 62.8392 60.7786C63.5 59.1734 64.469 57.7149 65.6906 56.4863C66.9122 55.2578 68.3628 54.2837 69.9591 53.619C71.5555 52.9542 73.2666 52.6123 74.9945 52.6126H77.2238C78.9518 52.6123 80.6632 52.9542 82.2592 53.619C83.856 54.2837 85.3064 55.2578 86.5288 56.4863C87.7504 57.7148 88.7192 59.1734 89.3808 60.7786C90.0416 62.3838 90.3816 64.104 90.3816 65.8414V165.008C98.5024 165.008 106.544 163.4 114.046 160.276C121.549 157.151 128.366 152.571 134.109 146.798C139.851 141.025 144.406 134.17 147.514 126.627C150.621 119.084 152.22 110.998 152.22 102.834V77.3005C152.264 56.8358 144.249 37.1856 129.926 22.6446C122.899 15.469 114.522 9.77136 105.282 5.88366C96.0424 1.99597 86.1256 -0.00420908 76.1091 6.65017e-06Z" fill="#F2F2F2"/>
<path d="M77.2268 215.205H74.9974C73.2698 215.205 71.559 214.863 69.9628 214.199C68.3666 213.534 66.9162 212.56 65.6946 211.331C64.4729 210.103 63.5039 208.645 62.843 207.041C62.182 205.436 61.8419 203.715 61.8423 201.978V102.813C53.7214 102.812 45.6798 104.419 38.1769 107.543C30.674 110.668 23.8569 115.247 18.1145 121.021C12.3722 126.794 7.81708 133.648 4.70966 141.192C1.60224 148.736 0.00329191 156.821 0.00399073 164.986V190.164C-0.0990304 200.279 1.79352 210.314 5.57218 219.689C9.3508 229.065 14.9406 237.593 22.0182 244.783C29.0958 251.972 37.5209 257.679 46.8061 261.574C56.0913 265.469 66.0525 267.475 76.1134 267.475C86.1744 267.475 96.1352 265.469 105.421 261.574C114.706 257.679 123.131 251.972 130.209 244.783C137.286 237.593 142.876 229.065 146.654 219.689C150.434 210.314 152.326 200.279 152.222 190.164V164.986H90.3848V201.978C90.3848 203.716 90.044 205.436 89.3832 207.041C88.7216 208.645 87.752 210.104 86.5304 211.332C85.3088 212.561 83.8584 213.534 82.2616 214.199C80.6656 214.863 78.9546 215.205 77.2268 215.205Z" fill="#F2F2F2"/>
<path d="M257.924 78.5H236.25V189.047H299.863V168.206H257.926L257.924 78.5Z" fill="#F2F2F2"/>
<path d="M369.271 119.444C366.214 115.624 362.3 112.587 357.85 110.584C353.399 108.58 348.539 107.666 343.669 107.915C338.58 107.875 333.542 108.933 328.895 111.018C324.248 113.102 320.1 116.166 316.731 120C309.498 128.149 305.5 138.689 305.5 149.612C305.5 160.534 309.498 171.074 316.731 179.224C320.101 183.057 324.25 186.118 328.897 188.202C333.544 190.286 338.581 191.343 343.669 191.303C354.665 191.303 363.199 187.46 369.271 179.775V189.094H389.535V110.132H369.271V119.444ZM363.07 165.639C361.026 167.696 358.585 169.31 355.898 170.382C353.21 171.455 350.332 171.963 347.442 171.876C344.562 171.969 341.694 171.463 339.018 170.39C336.342 169.317 333.915 167.699 331.889 165.639C327.945 161.242 325.762 155.53 325.762 149.608C325.762 143.686 327.945 137.974 331.889 133.577C333.916 131.518 336.343 129.902 339.019 128.83C341.694 127.757 344.562 127.25 347.442 127.342C350.331 127.256 353.209 127.765 355.896 128.837C358.584 129.909 361.026 131.522 363.07 133.577C367.059 137.953 369.271 143.672 369.271 149.608C369.271 155.543 367.059 161.263 363.07 165.639Z" fill="#F2F2F2"/>
<path d="M441.756 163.135L421.272 110.062H399.125L431.315 186.501C429.967 191.062 427.319 195.126 423.696 198.187C419.889 200.783 415.322 202.008 410.735 201.664V220.618C419.678 221.449 428.619 219.007 435.915 213.741C442.654 208.626 448.067 200.433 452.155 189.16L480.788 110.068H459.112L441.756 163.135Z" fill="#F2F2F2"/>
<path d="M524.652 107.9C519.128 107.705 513.624 108.663 508.488 110.716C503.352 112.769 498.695 115.871 494.812 119.826C487.314 127.93 483.159 138.596 483.188 149.665C483.216 160.733 487.426 171.377 494.966 179.441C502.821 187.335 513.24 191.283 526.224 191.285C541.3 191.285 552.713 185.653 560.465 174.391L544.131 164.912C542.054 167.562 539.368 169.665 536.303 171.041C533.239 172.417 529.888 173.023 526.538 172.808C514.494 172.808 507.112 167.861 504.389 157.965H563.607C564.112 155.203 564.376 152.4 564.392 149.591C564.692 138.592 560.656 127.921 553.163 119.901C549.533 115.976 545.113 112.874 540.196 110.805C535.28 108.735 529.98 107.745 524.652 107.9ZM504.077 142.171C504.974 137.531 507.477 133.361 511.144 130.402C515.041 127.505 519.805 126.029 524.65 126.218C529.077 126.161 533.404 127.547 536.983 130.169C540.788 133.116 543.342 137.404 544.128 142.169L504.077 142.171Z" fill="#F2F2F2"/>
<path d="M598.763 123.66V110.074H578.5V189.038H598.763V151.295C598.763 143.715 601.198 138.293 606.066 135.028C610.941 131.763 616.84 130.413 622.64 131.237V108.502C617.546 108.437 612.529 109.746 608.109 112.292C603.744 114.838 600.43 118.871 598.763 123.66Z" fill="#F2F2F2"/>
<path d="M721.42 95.5973V78.5H649.348V99.3477H693.958L648.188 171.637V189.044H722.296V168.203H675.645L721.42 95.5973Z" fill="#F2F2F2"/>
<path d="M770.156 107.9C764.632 107.705 759.127 108.663 753.99 110.716C748.853 112.769 744.196 115.871 740.312 119.826C732.814 127.93 728.658 138.597 728.688 149.665C728.716 160.733 732.928 171.377 740.469 179.441C748.324 187.335 758.743 191.283 771.725 191.285C786.8 191.285 798.215 185.653 805.968 174.391L789.632 164.912C787.555 167.561 784.869 169.665 781.805 171.04C778.741 172.416 775.391 173.022 772.042 172.808C759.996 172.808 752.614 167.861 749.895 157.965H809.112C809.616 155.202 809.88 152.4 809.896 149.591C810.192 138.592 806.16 127.921 798.666 119.901C795.037 115.976 790.616 112.874 785.7 110.805C780.783 108.735 775.484 107.745 770.156 107.9ZM749.581 142.171C750.477 137.531 752.982 133.361 756.649 130.402C760.548 127.504 765.312 126.028 770.156 126.219C774.584 126.159 778.911 127.545 782.488 130.169C786.295 133.116 788.848 137.404 789.632 142.169L749.581 142.171Z" fill="#F2F2F2"/>
<path d="M844.264 123.66V110.074H824V189.038H844.264V151.295C844.264 143.715 846.696 138.293 851.568 135.028C856.44 131.763 862.336 130.414 868.136 131.237V108.502C863.048 108.437 858.024 109.746 853.608 112.292C849.24 114.838 845.928 118.87 844.264 123.66Z" fill="#F2F2F2"/>
<path d="M914.344 107.886C904.832 107.991 895.656 111.402 888.368 117.538C881.08 123.675 876.12 132.16 874.352 141.551C872.576 150.942 874.088 160.662 878.632 169.059C883.176 177.457 890.472 184.014 899.272 187.618C908.08 191.221 917.856 191.65 926.944 188.83C936.024 186.01 943.856 180.114 949.112 172.146C954.368 164.178 956.712 154.629 955.76 145.118C954.8 135.606 950.6 126.722 943.872 119.97C940.032 116.03 935.432 112.924 930.352 110.845C925.272 108.766 919.824 107.759 914.344 107.886ZM929.576 165.214C927.592 167.23 925.216 168.817 922.592 169.875C919.976 170.933 917.168 171.44 914.344 171.365C911.528 171.446 908.728 170.941 906.12 169.882C903.512 168.823 901.144 167.234 899.176 165.214C895.288 160.946 893.128 155.366 893.128 149.578C893.128 143.79 895.288 138.211 899.176 133.942C901.144 131.922 903.512 130.334 906.12 129.275C908.728 128.217 911.528 127.71 914.344 127.79C917.168 127.716 919.968 128.224 922.592 129.282C925.216 130.34 927.592 131.926 929.576 133.942C933.512 138.186 935.704 143.774 935.704 149.578C935.704 155.382 933.512 160.97 929.576 165.214Z" fill="#F2F2F2"/>
<path d="M998.472 164.75H973.816V189.071H998.472V164.75Z" fill="#F2F2F2"/>
<path d="M998.472 164.75H973.816V189.071H998.472V164.75Z" fill="#F2F2F2"/>
</g>
<defs>
<clipPath id="clip0_759_5055">
<rect width="1000" height="272" fill="white"/>
</clipPath>
</defs>
</svg>
