<svg xmlns="http://www.w3.org/2000/svg" width="34" height="34" fill="none" viewBox="0 0 20 20"><g clip-path="url(#long-tail_svg__a)"><path fill="#1E1E1E" d="M19.95 16.399c.01-.174.018-.355.018-.552V.934c0-1.006-1.447-1.294-1.87-.372L7.899 16.154c-1.446-.353-2.747-1.097-3.246-2.293-.387-.93-.466-2.097-.227-3.378.182-.985.587-1.983 1.203-2.969L10.321 0H0v3.601h3.839L2.591 5.6C1.735 6.97 1.166 8.39.901 9.822c-.368 1.973-.213 3.85.444 5.429C2.805 18.752 6.747 20 9.95 20H20v-3.601z"></path></g><defs><clipPath id="long-tail_svg__a"><path fill="#fff" d="M0 0h20v20H0z"></path></clipPath></defs></svg>