<svg width="1000" height="559" viewBox="0 0 1000 559" fill="none" xmlns="http://www.w3.org/2000/svg">
<g clip-path="url(#clip0_759_5047)">
<path d="M914.442 284.356C922.901 284.356 929.29 290.932 929.29 299.647C929.29 308.439 922.901 314.935 914.442 314.935C905.901 314.935 899.593 308.439 899.593 299.647C899.593 290.854 905.901 284.356 914.442 284.356ZM914.442 312.083C921.285 312.083 926.366 306.775 926.366 299.647C926.366 292.518 921.285 287.207 914.442 287.207C907.593 287.207 902.517 292.516 902.517 299.647C902.517 306.777 907.593 312.083 914.442 312.083ZM909.134 291.645H915.133C918.058 291.645 919.901 293.547 919.901 296.398C919.901 298.22 918.901 299.725 917.442 300.437L921.75 307.648H918.366L914.517 301.072H911.977V307.648H909.134V291.645ZM914.674 298.537C916.134 298.537 917.058 297.666 917.058 296.398C917.058 295.131 916.134 294.18 914.674 294.18H911.977V298.537H914.674Z" fill="#FF4817"/>
<path d="M445.765 81.5239H384.859V269.661H445.765V81.5239Z" fill="#FF4817"/>
<path d="M445.764 288.476H384.859V476.613H445.764V288.476Z" fill="#FF4817"/>
<path d="M524.94 351.188V413.901H561.483V376.273H622.389V558.139L561.483 476.613H464.035V288.476H622.389V351.188H524.94Z" fill="#FF4817"/>
<path d="M805.104 288.476V476.613H744.197V413.901H701.563V476.613H640.656V288.476H701.563V351.188H744.197V288.476H805.104Z" fill="#FF4817"/>
<path d="M1000 213.221L957.855 269.662H884.279V558.139L823.378 476.613V269.662H577.466L619.61 213.221H1000Z" fill="#FF4817"/>
<path d="M464.035 81.5239V269.661H555.392L695.964 81.5239H464.035ZM524.939 212.592V144.236H576.04L524.939 212.592Z" fill="#FF4817"/>
<path d="M366.587 -0.00195312V269.661H305.682V179.355L238.687 269.661H177.781V179.355L110.786 269.661H0L42.1458 213.22H79.4203L238.687 -0.00195312V171.203L305.682 81.5242L366.587 -0.00195312Z" fill="#FF4817"/>
<path d="M366.588 288.476V557.511L238.688 386.307V476.613H177.782V288.476H238.688L305.683 378.155V288.476H366.588Z" fill="#FF4817"/>
</g>
<defs>
<clipPath id="clip0_759_5047">
<rect width="1000" height="558.14" fill="white"/>
</clipPath>
</defs>
</svg>
