<svg width="324" height="317" viewBox="0 0 324 317" fill="none" xmlns="http://www.w3.org/2000/svg"><path d="M68.569 219.16C69.0114 219.16 69.4469 219.188 69.8894 219.209L2.8234 282.504L34.6462 316.216L101.691 252.936L101.691 314.846L148.045 314.846L148.045 252.62C148.045 231.458 139.849 211.519 124.959 196.475C110.07 181.431 90.2149 173.024 69.0536 172.806L0.477595 172.097L9.54879e-06 218.451L68.569 219.16Z" fill="#4AEF68"></path><path d="M34.6462 0.015302L2.8234 33.7203L69.8894 97.0218C69.4539 97.0429 69.0114 97.0639 68.569 97.071L1.1796e-05 97.7803L0.477602 144.134L69.0466 143.425C90.2079 143.207 110.063 134.8 124.952 119.756C139.842 104.712 148.038 84.7731 148.038 63.6117L148.038 1.38483L101.684 1.38484L101.684 63.3027L34.6392 0.0223057L34.6462 0.015302Z" fill="#4AEF68"></path><path d="M289.36 0.0140626L222.315 63.2944L222.315 1.3766L175.961 1.3766L175.961 63.6034C175.961 84.7648 184.157 104.711 199.047 119.748C213.936 134.792 233.791 143.199 254.953 143.417L323.522 144.126L323.999 97.772L255.43 97.0627C254.988 97.0627 254.552 97.0346 254.11 97.0135L321.176 33.7121L289.36 -6.05317e-06L289.36 0.0140626Z" fill="#4AEF68"></path><path d="M199.047 196.475C184.157 211.519 175.961 231.458 175.961 252.62L175.961 314.846L222.315 314.846L222.315 252.936L289.36 316.216L321.176 282.504L254.11 219.202C254.545 219.181 254.988 219.16 255.43 219.153L323.999 218.444L323.522 172.09L254.953 172.799C233.791 173.017 213.936 181.424 199.047 196.468L199.047 196.475Z" fill="#4AEF68"></path><path d="M197.664 158.109C197.664 137.633 181.065 121.033 160.588 121.033C140.111 121.033 123.512 137.633 123.512 158.109C123.512 178.586 140.111 195.186 160.588 195.186C181.065 195.186 197.664 178.586 197.664 158.109Z" fill="#4AEF68"></path></svg>