<svg width="120" height="120" viewBox="0 0 120 120" fill="none" xmlns="http://www.w3.org/2000/svg">
<mask id="path-1-inside-1_8104_19474" fill="white">
<path fill-rule="evenodd" clip-rule="evenodd" d="M58.5719 103.853C59.1962 104.219 59.9695 104.219 60.594 103.853L96.1857 83.0114C98.0481 81.9209 100.079 84.1458 98.8229 85.901L76.6898 116.836C75.7428 118.16 76.6889 120 78.3164 120H118C119.105 120 120 119.105 120 118V2C120 0.895431 119.105 0 118 0H71.2636C69.7045 0 68.7449 1.70479 69.5538 3.03765L103.878 59.5946C104.457 60.5491 104.143 61.793 103.179 62.3576L61.2769 86.9182C60.6521 87.2844 59.8782 87.2843 59.2535 86.9178L17.3501 62.3341C16.3871 61.7692 16.0731 60.5253 16.6526 59.571L50.9827 3.0381C51.792 1.70526 50.8325 0 49.2732 0H2C0.895431 0 0 0.895429 0 2V118C0 119.105 0.895431 120 2 120H40.8716C42.4986 120 43.4448 118.161 42.4987 116.837L20.3881 85.9039C19.1331 84.1482 21.1648 81.9241 23.0267 83.0155L58.5719 103.853Z"/>
</mask>
<path d="M20.3881 85.9039L23.6423 83.5779L23.6423 83.5779L20.3881 85.9039ZM42.4987 116.837L39.2445 119.163L42.4987 116.837ZM50.9827 3.0381L47.5637 0.961901L50.9827 3.0381ZM17.3501 62.3341L15.326 65.7842L17.3501 62.3341ZM16.6526 59.571L13.2337 57.4948L16.6526 59.571ZM61.2769 86.9182L63.2996 90.3691L61.2769 86.9182ZM59.2535 86.9178L57.2294 90.3679L59.2535 86.9178ZM103.878 59.5946L107.297 57.5193L103.878 59.5946ZM103.179 62.3576L101.157 58.9067L103.179 62.3576ZM69.5538 3.03765L72.9734 0.962355L69.5538 3.03765ZM60.594 103.853L58.5727 100.401L60.594 103.853ZM58.5719 103.853L56.549 107.303L58.5719 103.853ZM96.1857 83.0114L94.1644 79.5597L96.1857 83.0114ZM98.8229 85.901L102.076 88.2285L98.8229 85.901ZM94.1644 79.5597L58.5727 100.401L62.6153 107.305L98.207 86.4632L94.1644 79.5597ZM79.9429 119.164L102.076 88.2285L95.5698 83.5735L73.4367 114.509L79.9429 119.164ZM118 116H78.3164V124H118V116ZM116 2V118H124V2H116ZM71.2636 4H118V-4H71.2636V4ZM107.297 57.5193L72.9734 0.962355L66.1343 5.11294L100.458 61.6698L107.297 57.5193ZM63.2996 90.3691L105.202 65.8085L101.157 58.9067L59.2542 83.4673L63.2996 90.3691ZM15.326 65.7842L57.2294 90.3679L61.2776 83.4677L19.3742 58.8841L15.326 65.7842ZM47.5637 0.961901L13.2337 57.4948L20.0716 61.6472L54.4016 5.1143L47.5637 0.961901ZM2 4H49.2732V-4H2V4ZM4 118V2H-4V118H4ZM40.8716 116H2V124H40.8716V116ZM17.134 88.23L39.2445 119.163L45.7528 114.511L23.6423 83.5779L17.134 88.23ZM60.5948 100.402L25.0496 79.5647L21.0038 86.4663L56.549 107.303L60.5948 100.402ZM23.6423 83.5779C24.8973 85.3336 22.8657 87.5578 21.0038 86.4663L25.0496 79.5647C19.4639 76.2904 13.369 82.9627 17.134 88.23L23.6423 83.5779ZM40.8716 124C45.7527 124 48.5913 118.482 45.7528 114.511L39.2445 119.163C38.2984 117.839 39.2445 116 40.8716 116V124ZM-4 118C-4 121.314 -1.31371 124 2 124V116C3.10457 116 4 116.895 4 118H-4ZM2 -4C-1.3137 -4 -4 -1.31372 -4 2H4C4 3.10457 3.10456 4 2 4V-4ZM54.4016 5.1143C56.8298 1.11576 53.9512 -4 49.2732 -4V4C47.7138 4 46.7543 2.29476 47.5637 0.961901L54.4016 5.1143ZM19.3742 58.8841C20.3371 59.449 20.6511 60.6929 20.0716 61.6472L13.2337 57.4948C11.4952 60.3576 12.4371 64.0894 15.326 65.7842L19.3742 58.8841ZM59.2542 83.4673C59.879 83.1011 60.653 83.1012 61.2776 83.4677L57.2294 90.3679C59.1034 91.4673 61.4252 91.4677 63.2996 90.3691L59.2542 83.4673ZM100.458 61.6698C99.8791 60.7153 100.193 59.4714 101.157 58.9067L105.202 65.8085C108.092 64.1147 109.035 60.3828 107.297 57.5193L100.458 61.6698ZM71.2636 -4C66.5863 -4 63.7076 1.11438 66.1343 5.11294L72.9734 0.962355C73.7823 2.29521 72.8227 4 71.2636 4V-4ZM124 2C124 -1.31371 121.314 -4 118 -4V4C116.895 4 116 3.10457 116 2H124ZM118 124C121.314 124 124 121.314 124 118H116C116 116.895 116.895 116 118 116V124ZM73.4367 114.509C70.5957 118.48 73.434 124 78.3164 124V116C79.9438 116 80.8899 117.84 79.9429 119.164L73.4367 114.509ZM58.5727 100.401C59.1972 100.036 59.9705 100.036 60.5948 100.402L56.549 107.303C58.4219 108.401 60.7418 108.402 62.6153 107.305L58.5727 100.401ZM98.207 86.4632C96.3447 87.5537 94.3139 85.3288 95.5698 83.5735L102.076 88.2285C105.843 82.9629 99.7514 76.2881 94.1644 79.5597L98.207 86.4632Z" fill="url(#paint0_linear_8104_19474)" mask="url(#path-1-inside-1_8104_19474)"/>
<defs>
<linearGradient id="paint0_linear_8104_19474" x1="6" y1="22.5" x2="120" y2="120" gradientUnits="userSpaceOnUse">
<stop stop-color="#00FFA7"/>
<stop offset="0.23" stop-color="#5164DC"/>
<stop offset="0.54" stop-color="#313C86"/>
<stop offset="1" stop-color="#71FFE0" stop-opacity="0.8"/>
</linearGradient>
</defs>
</svg>
