<svg width="830" height="389" viewBox="0 0 830 389" fill="none" xmlns="http://www.w3.org/2000/svg">
<path d="M271.072 109.773C262.804 149.432 215.309 171.833 145.491 184.046C145.545 183.778 145.597 183.495 145.655 183.224C156.366 137.807 173.033 55.3622 175.208 25.1913C187.819 26.4385 200.246 29.1214 212.248 33.1881C273.515 54.085 275.958 86.1067 271.072 109.768M219.563 9.17141C148.203 -13.8048 43.0888 6.7288 9.328 66.9489C-11.9042 105.24 3.75901 147.703 49.6983 152.917C65.623 154.926 81.7912 152.39 96.3362 145.602L90.0686 121.592C89.7201 121.592 62.9172 130.986 47.9526 127.161C7.91766 117.068 26.0235 67.9861 60.8363 48.1511C83.0876 35.4943 115.326 25.4428 149.845 24.3283C148.315 41.2589 143.106 70.912 137.014 101.338C132.29 124.958 127.028 149.049 122.574 168.013C114.615 208.921 104.469 253.719 99.1667 272.469C98.7377 273.972 97.3816 279.743 96.8654 281.354H123.67L129.012 260.914C132.3 247.022 136.166 229.563 140.004 211.135C226.757 199.405 284.132 170.227 296.488 115.305C308.662 61.7185 273.512 26.5638 219.561 9.15825" fill="white"/>
<path d="M590.963 291.139C578.427 343.696 564.51 358.674 555.458 362.148C542.574 367.021 526.563 360.404 526.563 343.359C526.563 320.383 551.968 292.184 595.48 272.349L590.963 291.139ZM524.126 242.407C513.685 239.977 514.382 209.687 516.812 192.273C522.729 150.85 530.381 130.322 547.438 122.309C564.845 114.297 589.554 126.134 606.613 138.669C576.335 184.61 533.871 244.48 524.126 242.4M359.143 128.228C371.678 118.834 387.341 118.834 394.991 126.832C404.031 136.576 400.908 152.238 386.979 166.867C374.444 179.751 354.607 189.843 330.249 199.239V198.54C329.55 174.167 343.132 140.064 359.144 128.228M706.173 218.029L629.245 235.781L661.267 104.201L635.513 93.4099C632.39 98.6304 626.816 107.676 619.501 118.816C610.852 110.82 600.828 104.454 589.914 100.026C575.983 94.8054 559.972 92.3628 543.276 96.5494C530.364 100.965 519.079 110.789 510.153 124.774C454.442 198.052 410.707 260.34 360.186 249C348.698 246.57 340.001 236.813 335.129 223.244C365.058 212.453 397.427 198.522 413.79 176.258C429.802 154.329 431.543 132.746 419.011 113.608C408.918 98.992 377.942 85.4098 350.094 102.469C322.942 119.177 303.107 164.084 305.187 198.885C306.582 234.035 320.848 265.025 351.476 272.675C401.161 285.023 441.974 253.643 489.269 192.028C486.866 215.862 486.048 264.024 519.251 270.581C543.96 275.453 591.308 206.884 623.331 154.327L602.456 243.429C524.145 269.534 500.47 320.708 499.423 343.671C498.027 381.264 532.143 392.055 556.852 387.888C591.653 381.97 603.838 339.156 614.629 295.296L622.628 261.877C627.151 260.481 631.668 259.083 636.21 258.052L710.343 238.901L706.173 218.029Z" fill="white"/>
<path d="M821.9 109.142C813.718 102.922 804.985 97.4644 795.809 92.8361C774.818 82.6449 748.324 77.8452 723.872 100.445C684.71 136.79 719.644 184.769 736.568 209.114L748.568 228.172C758.795 245.808 765.498 258.866 760.915 268.394C759.257 271.575 756.834 274.293 753.863 276.304C750.892 278.314 747.467 279.553 743.898 279.909C732.839 282.364 717.902 281.478 703.297 278.794C691.255 276.654 679.485 273.193 668.202 268.473L659.021 292.819C687.595 303.756 721.812 309.044 748.633 303.046C758.128 300.981 766.957 296.581 774.322 290.243C777.759 287.407 780.628 283.947 782.777 280.044C783.982 277.704 784.906 275.231 785.529 272.675C785.539 272.644 785.548 272.613 785.555 272.581L785.72 271.937C787.22 265.698 787.206 259.191 785.678 252.96C785.35 251.577 784.94 250.249 784.497 248.96C781.155 236.599 774.35 224.105 767.962 213.005L756.313 193.599C742.195 172.434 719.271 142.788 739.737 121.275C754.783 105.317 774.363 110.59 791.141 119.795C799.132 124.384 806.825 129.476 814.171 135.041L817.071 131.296L829.699 114.936C827.633 113.434 824.988 111.42 821.901 109.139" fill="white"/>
</svg>
