<svg width="1000" height="194" viewBox="0 0 1000 194" fill="none" xmlns="http://www.w3.org/2000/svg">
<g clip-path="url(#clip0_759_5057)">
<mask id="mask0_759_5057" style="mask-type:luminance" maskUnits="userSpaceOnUse" x="0" y="14" width="998" height="166">
<path d="M997.395 14.6641H0.52002V179.324H997.395V14.6641Z" fill="white"/>
</mask>
<g mask="url(#mask0_759_5057)">
<path d="M140.527 74.4913L87.3388 21.3032C82.9025 16.8671 77.1029 14.6641 71.3029 14.6641C65.5029 14.6641 59.7032 16.8671 55.2669 21.3032L2.07898 74.4913C0.969956 75.6004 0.460406 77.0838 0.520353 78.5226C0.565316 79.4069 0.550328 102.262 0.520353 115.585C0.520353 115.66 0.520353 115.75 0.520353 115.825V116.034H0.535341C0.610275 117.293 1.10484 118.522 2.06399 119.482L55.2519 172.669C59.6732 177.106 65.4732 179.309 71.2879 179.309C77.1029 179.309 82.8876 177.106 87.3088 172.669L140.497 119.482C141.531 118.448 142.055 117.083 142.055 115.72V78.2529C142.055 76.8891 141.546 75.5254 140.497 74.4913H140.527ZM78.961 163.812C77.0729 165.701 74.6001 166.96 71.9322 167.109C68.89 167.274 66.0275 166.18 63.8994 164.067L50.861 151.029H91.7447L78.946 163.827L78.961 163.812ZM103.944 138.829H38.6616L21.6517 121.834H120.939L103.929 138.829H103.944ZM21.6517 109.635L38.1372 93.1497H104.468L120.954 109.635H21.6517ZM107.841 80.9657H12.8545L63.8994 29.9206C66.0275 27.7925 68.89 26.6984 71.9172 26.8783C74.6 27.0282 77.1029 28.332 79.006 30.2353L129.721 80.9507H107.826L107.841 80.9657Z" fill="white"/>
<path d="M57.199 58.2755C57.199 66.0686 63.5084 72.378 71.3015 72.378C79.0946 72.378 85.404 66.0686 85.404 58.2755C85.404 50.4824 79.0946 44.1729 71.3015 44.1729C63.5084 44.1729 57.199 50.4824 57.199 58.2755Z" fill="white"/>
<path d="M208.671 29.0518H267.18C292.777 29.0518 309.323 46.4814 309.323 70.6551C309.323 92.5208 292.777 112.438 267.18 112.438H239.619V157.249H208.671V29.0518ZM277.671 70.6551C277.671 62.652 271.976 56.2526 261.665 56.2526H239.619V85.2373H261.665C271.976 85.2373 277.671 78.6579 277.671 70.6551Z" fill="white"/>
<path d="M317.131 29.0518H348.078V157.249H317.131V29.0518Z" fill="white"/>
<path d="M363.53 29.0518H452.79V56.0729H394.462V76.1701H440.518V103.191H394.462V130.212H454.74V157.234H363.515V29.0518H363.53Z" fill="white"/>
<path d="M462.921 29.0518H521.43C547.027 29.0518 563.752 44.6979 563.752 69.0664C563.752 81.6855 556.815 94.4989 546.324 101.603C553.787 105.874 558.058 112.453 560.187 121.88L564.458 140.913C565.88 147.133 568.19 153.892 570.152 157.279H536.012C534.59 154.791 532.983 149.995 532.28 145.544L529.433 127.755C527.305 114.596 519.827 108.901 504.18 108.901H493.871V157.264H462.921V29.0518ZM532.087 69.0664C532.087 60.8836 526.212 56.2676 516.08 56.2676H493.855V81.8801H516.08C526.212 81.8801 532.087 77.0845 532.087 69.0814V69.0664Z" fill="white"/>
<path d="M622.771 56.0729H585.44V29.0518H691.065V56.0729H653.734V157.249H622.787V56.0729H622.771Z" fill="white"/>
<path d="M821.737 89.5083L834.715 29.0518H867.249L832.046 157.249H797.021L782.44 98.2158C778.349 81.3258 775.862 67.6276 775.862 67.6276C775.862 67.6276 772.834 81.3258 768.562 98.2158L753.637 157.249H719.315L683.752 29.0518H717.352L730.69 89.5083C734.424 106.399 736.552 120.276 736.552 120.276C736.552 120.276 739.04 106.414 742.771 89.5083L756.109 29.0518H796.124L809.462 89.5083C813.193 106.399 815.502 120.276 815.502 120.276C815.502 120.276 818.168 106.414 821.721 89.5083H821.737Z" fill="white"/>
<path d="M864.746 93.0602C864.746 55.5484 893.012 27.6279 931.424 27.6279C969.834 27.6279 997.396 55.3684 997.396 93.0602C997.396 130.752 969.296 158.672 931.424 158.672C893.552 158.672 864.746 130.752 864.746 93.0602ZM965.743 93.0602C965.743 71.1946 951.34 54.649 931.243 54.649C911.146 54.649 896.399 71.1796 896.399 93.0602C896.399 114.941 910.802 131.651 931.243 131.651C951.687 131.651 965.743 115.121 965.743 93.0602Z" fill="white"/>
</g>
</g>
<defs>
<clipPath id="clip0_759_5057">
<rect width="1000" height="165.625" fill="white" transform="translate(0 14.1821)"/>
</clipPath>
</defs>
</svg>
