<svg width="1248" height="375" viewBox="0 0 1248 375" fill="none" xmlns="http://www.w3.org/2000/svg">
<path d="M516.853 165.056C516.853 170.421 516.19 175.214 514.863 179.434C513.537 183.654 511.728 187.392 509.438 190.647C507.207 193.843 504.615 196.586 501.661 198.876C498.707 201.167 495.602 203.036 492.346 204.483C489.151 205.93 485.896 206.985 482.58 207.648C479.325 208.311 476.25 208.643 473.356 208.643H420.184V185.131H473.356C476.371 184.89 479.083 184.287 481.495 183.323C483.967 182.298 486.077 180.941 487.825 179.253C489.573 177.565 490.93 175.546 491.894 173.194C492.859 170.783 493.341 168.07 493.341 165.056V154.385C493.04 151.431 492.407 148.718 491.442 146.246C490.478 143.775 489.151 141.665 487.463 139.916C485.835 138.168 483.846 136.812 481.495 135.847C479.144 134.822 476.431 134.31 473.356 134.31H420.364C417.23 134.31 414.848 135.124 413.221 136.751C411.593 138.379 410.779 140.73 410.779 143.805V240.474H387.267V143.805C387.267 137.776 388.352 132.652 390.523 128.432C392.753 124.212 395.496 120.806 398.752 118.213C402.068 115.621 405.655 113.752 409.513 112.607C413.371 111.401 416.928 110.798 420.184 110.798H473.356C478.661 110.798 483.424 111.491 487.644 112.878C491.864 114.204 495.572 116.013 498.767 118.304C502.022 120.534 504.765 123.127 506.996 126.081C509.287 129.035 511.156 132.139 512.603 135.395C514.11 138.59 515.195 141.846 515.858 145.161C516.521 148.417 516.853 151.491 516.853 154.385V165.056ZM640.741 207.467C640.741 211.506 640.229 215.154 639.204 218.409C638.179 221.604 636.823 224.438 635.135 226.91C633.447 229.321 631.487 231.401 629.257 233.149C627.026 234.837 624.675 236.224 622.203 237.309C619.792 238.394 617.32 239.208 614.788 239.751C612.316 240.233 609.965 240.474 607.735 240.474H565.323C562.068 240.474 558.511 239.901 554.652 238.756C550.794 237.61 547.207 235.742 543.891 233.149C540.636 230.497 537.893 227.09 535.662 222.931C533.492 218.711 532.407 213.556 532.407 207.467V175.636C532.407 169.607 533.492 164.513 535.662 160.353C537.893 156.133 540.636 152.727 543.891 150.135C547.207 147.482 550.794 145.583 554.652 144.438C558.511 143.292 562.068 142.72 565.323 142.72H607.735C613.763 142.72 618.888 143.805 623.108 145.975C627.328 148.145 630.734 150.888 633.326 154.204C635.918 157.46 637.787 161.017 638.933 164.875C640.138 168.733 640.741 172.32 640.741 175.636V207.467ZM617.23 175.817C617.23 172.561 616.416 170.15 614.788 168.583C613.16 167.015 610.809 166.231 607.735 166.231H565.504C562.369 166.231 559.988 167.045 558.36 168.673C556.732 170.24 555.918 172.561 555.918 175.636V207.467C555.918 210.542 556.732 212.893 558.36 214.521C559.988 216.148 562.369 216.962 565.504 216.962H607.735C610.93 216.962 613.311 216.148 614.878 214.521C616.446 212.893 617.23 210.542 617.23 207.467V175.817ZM703.771 240.474H693.281C689.905 240.474 686.288 239.901 682.429 238.756C678.631 237.61 675.074 235.742 671.759 233.149C668.443 230.497 665.7 227.09 663.53 222.931C661.359 218.711 660.274 213.556 660.274 207.467V101.393H683.786V207.467C683.786 210.361 684.69 212.682 686.499 214.43C688.307 216.118 690.568 216.962 693.281 216.962H703.771V240.474ZM826.665 249.879C826.665 253.918 826.152 257.535 825.127 260.73C824.102 263.986 822.746 266.819 821.058 269.231C819.37 271.702 817.411 273.782 815.18 275.47C812.949 277.219 810.598 278.635 808.126 279.72C805.715 280.806 803.273 281.589 800.802 282.072C798.33 282.614 795.979 282.885 793.748 282.885H751.337V259.374H793.748C796.883 259.374 799.234 258.56 800.802 256.932C802.369 255.304 803.153 252.953 803.153 249.879V142.72H826.665V249.879ZM793.748 240.474H751.337C747.961 240.474 744.343 239.901 740.485 238.756C736.687 237.61 733.13 235.742 729.814 233.149C726.499 230.497 723.756 227.09 721.585 222.931C719.415 218.711 718.33 213.556 718.33 207.467V142.72H741.842V207.467C741.842 210.542 742.655 212.893 744.283 214.521C745.911 216.148 748.322 216.962 751.518 216.962H793.748V240.474ZM987.81 188.025C987.81 195.922 986.454 203.187 983.741 209.818C981.028 216.45 977.26 222.177 972.437 227C967.614 231.823 961.887 235.591 955.255 238.304C948.684 240.956 941.51 242.283 933.733 242.283H901.902C894.125 242.283 886.921 240.956 880.289 238.304C873.658 235.591 867.931 231.823 863.108 227C858.285 222.177 854.487 216.45 851.714 209.818C849.001 203.187 847.644 195.922 847.644 188.025V163.247C847.644 155.41 849.001 148.176 851.714 141.544C854.487 134.852 858.285 129.125 863.108 124.362C867.931 119.54 873.658 115.772 880.289 113.059C886.921 110.346 894.125 108.989 901.902 108.989H933.733C941.51 108.989 948.684 110.346 955.255 113.059C961.887 115.772 967.614 119.54 972.437 124.362C977.26 129.125 981.028 134.852 983.741 141.544C986.454 148.176 987.81 155.41 987.81 163.247V188.025ZM964.298 163.247C964.298 158.605 963.545 154.415 962.038 150.677C960.591 146.879 958.511 143.654 955.798 141.002C953.145 138.289 949.92 136.209 946.122 134.762C942.384 133.255 938.255 132.501 933.733 132.501H901.902C897.32 132.501 893.13 133.255 889.332 134.762C885.594 136.209 882.369 138.289 879.656 141.002C876.943 143.654 874.833 146.879 873.326 150.677C871.879 154.415 871.156 158.605 871.156 163.247V188.025C871.156 192.667 871.879 196.887 873.326 200.685C874.833 204.423 876.943 207.648 879.656 210.361C882.369 213.014 885.594 215.093 889.332 216.601C893.13 218.047 897.32 218.771 901.902 218.771H933.552C938.134 218.771 942.294 218.047 946.032 216.601C949.83 215.093 953.085 213.014 955.798 210.361C958.511 207.648 960.591 204.423 962.038 200.685C963.545 196.887 964.298 192.667 964.298 188.025V163.247ZM1116.76 240.474H1093.25V186.216C1093.25 183.142 1092.71 180.399 1091.62 177.987C1090.6 175.515 1089.18 173.405 1087.37 171.657C1085.56 169.909 1083.42 168.583 1080.95 167.678C1078.54 166.714 1075.92 166.231 1073.09 166.231H1031.94V240.474H1008.43V154.385C1008.43 152.757 1008.73 151.25 1009.33 149.864C1009.94 148.417 1010.78 147.181 1011.86 146.156C1012.95 145.071 1014.22 144.227 1015.66 143.624C1017.11 143.021 1018.65 142.72 1020.27 142.72H1073.27C1076.22 142.72 1079.32 143.051 1082.58 143.714C1085.9 144.378 1089.15 145.463 1092.35 146.97C1095.6 148.417 1098.68 150.286 1101.57 152.576C1104.52 154.807 1107.12 157.55 1109.35 160.806C1111.64 164.001 1113.45 167.708 1114.77 171.928C1116.1 176.148 1116.76 180.911 1116.76 186.216V240.474ZM1242.55 175.093C1242.55 178.349 1241.98 181.876 1240.83 185.674C1239.69 189.411 1237.82 192.908 1235.23 196.164C1232.69 199.359 1229.35 202.041 1225.19 204.212C1221.09 206.382 1216.08 207.467 1210.18 207.467H1167.76V185.131H1210.18C1213.37 185.131 1215.84 184.167 1217.59 182.237C1219.34 180.248 1220.21 177.806 1220.21 174.913C1220.21 171.838 1219.22 169.427 1217.23 167.678C1215.3 165.93 1212.95 165.056 1210.18 165.056H1167.76C1164.57 165.056 1162.1 166.05 1160.35 168.04C1158.6 169.969 1157.73 172.381 1157.73 175.274V208.1C1157.73 211.235 1158.69 213.677 1160.62 215.425C1162.61 217.173 1165.05 218.047 1167.95 218.047H1210.18V240.474H1167.76C1164.51 240.474 1160.98 239.901 1157.18 238.756C1153.45 237.61 1149.95 235.772 1146.69 233.24C1143.5 230.647 1140.82 227.301 1138.65 223.202C1136.48 219.042 1135.39 214.008 1135.39 208.1V175.093C1135.39 171.838 1135.96 168.341 1137.11 164.604C1138.25 160.806 1140.09 157.309 1142.63 154.114C1145.22 150.858 1148.56 148.145 1152.66 145.975C1156.82 143.805 1161.86 142.72 1167.76 142.72H1210.18C1213.43 142.72 1216.93 143.292 1220.67 144.438C1224.46 145.583 1227.96 147.452 1231.16 150.044C1234.41 152.576 1237.12 155.922 1239.29 160.082C1241.46 164.182 1242.55 169.185 1242.55 175.093Z" fill="white"/>
<path d="M222.393 13.096L262.073 19.1457L217.979 95.7352L185.737 74.7959L222.393 13.096Z" fill="white"/>
<ellipse cx="154.232" cy="174.763" rx="31.975" ry="31.3306" transform="rotate(-172.121 154.232 174.763)" fill="white"/>
<path d="M54.58 210.744C76.9317 178.813 97.2451 146.395 105.59 135.218C113.935 124.041 125.668 115.948 138.988 112.18C152.309 108.412 166.482 109.178 179.333 114.359C192.184 119.541 203.002 128.853 210.129 140.866C217.256 152.879 220.298 166.93 218.788 180.863C217.277 194.796 211.298 207.842 201.768 217.998C192.237 228.155 179.682 234.862 166.028 237.09C152.374 239.318 138.375 236.945 126.18 230.333" stroke="white" stroke-width="28.3831" stroke-linecap="square"/>
<path d="M19.4942 187.882C43.2485 148.729 56.0484 128.812 70.3495 109.657C84.6507 90.5023 104.758 76.6323 127.586 70.1752C150.415 63.718 174.704 65.0303 196.727 73.9108C218.75 82.7912 237.291 98.7493 249.505 119.337C261.719 139.924 266.931 164.004 264.343 187.882C261.754 211.76 251.508 234.117 235.175 251.523C218.842 268.929 197.325 280.423 173.925 284.242C150.526 288.06 126.535 283.992 105.635 272.662" stroke="white" stroke-width="28.3831" stroke-linecap="square"/>
<path d="M50.1778 361.54L9.89975 352.337L136.215 163.491L167.488 183.633L50.1778 361.54Z" fill="white"/>
</svg>
