<svg width="1000" height="310" viewBox="0 0 1000 310" fill="none" xmlns="http://www.w3.org/2000/svg">
<path fill-rule="evenodd" clip-rule="evenodd" d="M156.334 219.679V161.727L175.202 150.946V227.765L172.507 229.113L153.639 239.895L90.9702 204.18V235.851L144.205 266.849L231.132 216.984L238.544 212.94L240.566 211.593L259.434 200.811V222.374L202.156 255.393L144.205 288.412L86.927 255.393L67.3853 243.938V168.466L156.334 219.679Z" fill="#C02026"/>
<path fill-rule="evenodd" clip-rule="evenodd" d="M83.5578 134.097L134.097 163.072V185.31L67.3853 146.9V143.531V121.967L130.054 85.5792L101.752 69.4067L48.5173 100.404V200.808V209.568V211.59V233.153L29.6494 222.372V156.334V89.6223L86.927 56.6035L106.469 45.1479L172.507 82.8838L83.5578 134.097Z" fill="#C02026"/>
<path fill-rule="evenodd" clip-rule="evenodd" d="M194.07 113.881L143.531 143.531L124.663 132.075L191.375 93.6653L194.07 95.6869L212.938 106.469V178.571L240.566 162.398V100.404L153.639 50.5387L146.226 46.4955L144.205 45.1478L125.337 34.3661L144.205 23.5845L202.156 56.6033L259.434 89.6222V156.334V178.571L194.07 216.307V113.881Z" fill="#C02026"/>
<path d="M318.059 80.1914H363.881C376.684 80.1914 386.118 83.5607 392.856 90.2992C398.247 95.6901 401.617 103.776 401.617 113.21C401.617 121.297 399.595 128.035 395.552 132.752C391.509 138.143 386.118 141.512 380.053 144.208L404.312 179.922H378.705L357.816 148.251H340.296V180.596H318.059V80.1914ZM362.533 128.709C367.924 128.709 371.967 127.361 375.336 124.666C378.705 121.97 379.379 118.601 379.379 114.558C379.379 109.841 378.032 106.472 374.662 103.776C371.293 101.081 367.25 100.407 361.859 100.407H340.296V128.709H362.533Z" fill="white"/>
<path d="M452.83 79.5146H473.045L516.172 180.593H493.261L483.827 158.356H441.374L431.94 180.593H409.703L452.83 79.5146ZM475.741 138.14L462.264 105.795L448.787 138.14H475.741Z" fill="white"/>
<path d="M528.301 80.1914H548.516L595.686 142.186V80.1914H617.25V180.596H598.382L549.864 116.58V180.596H528.301V80.1914Z" fill="white"/>
<path d="M638.14 80.1914H677.223C685.309 80.1914 692.048 81.5391 698.787 84.2345C705.525 86.93 710.916 90.2992 715.633 95.0162C720.35 99.7332 723.719 104.45 726.415 110.515C729.11 116.58 730.458 123.318 730.458 130.057C730.458 136.795 729.11 143.534 726.415 149.598C723.719 155.663 720.35 161.054 715.633 165.771C710.916 170.488 705.525 173.857 698.787 176.553C692.048 179.248 685.309 180.596 677.223 180.596H638.14V80.1914ZM660.377 100.407V160.38H677.223C681.94 160.38 685.983 159.706 689.353 158.359C693.396 157.011 696.091 154.989 698.787 152.294C701.482 149.598 703.504 146.229 704.851 142.86C706.199 139.491 706.873 135.447 706.873 130.73C706.873 126.687 706.199 122.644 704.851 118.601C703.504 115.232 701.482 111.863 698.787 109.167C696.091 106.472 692.722 104.45 689.353 103.102C685.31 101.755 681.266 101.081 677.223 101.081H660.377V100.407Z" fill="white"/>
<path d="M795.822 181.941C788.41 181.941 780.997 180.593 774.259 177.897C767.52 175.202 762.129 171.833 757.412 167.116C752.695 162.399 749.326 157.008 746.631 150.943C743.935 144.879 742.587 138.14 742.587 130.728C742.587 123.315 743.935 116.577 746.631 110.512C749.326 104.447 752.695 99.0565 757.412 94.3395C762.129 89.6225 767.52 85.5794 774.259 82.8839C780.997 80.1885 787.736 78.8408 795.822 78.8408C803.908 78.8408 810.647 80.1885 817.385 82.8839C824.124 85.5794 829.515 88.9486 834.232 93.6656C838.949 98.3826 842.318 103.773 845.013 109.838C847.709 115.903 849.056 122.641 849.056 130.054C849.056 137.466 847.709 144.205 845.013 150.269C842.318 156.334 838.949 161.725 834.232 166.442C829.515 171.159 824.124 175.202 817.385 177.897C810.647 180.593 803.908 181.941 795.822 181.941ZM795.822 161.725C800.539 161.725 804.582 161.051 807.951 159.03C811.994 157.682 814.69 154.986 817.385 152.291C820.081 149.596 822.102 146.226 823.45 142.183C824.798 138.14 825.472 134.097 825.472 130.054C825.472 126.011 824.798 121.968 823.45 117.924C822.102 113.881 820.081 110.512 817.385 107.817C814.69 105.121 811.321 102.426 807.951 101.078C803.908 99.7303 799.865 98.3826 795.822 98.3826C791.105 98.3826 787.062 99.0565 783.693 101.078C780.323 102.426 776.954 105.121 774.259 107.817C771.563 110.512 769.542 113.881 768.194 117.924C766.846 121.968 766.172 126.011 766.172 130.054C766.172 134.097 766.846 138.14 768.194 142.183C769.542 146.226 771.563 149.596 774.259 152.291C776.954 154.986 780.323 157.682 783.693 159.03C787.736 161.051 791.779 161.725 795.822 161.725Z" fill="white"/>
<path d="M873.989 80.1914H897.574L923.854 122.644L950.134 80.1914H973.719V180.596H952.156V114.558L923.854 157.685H923.18L895.552 115.232V179.922H873.989V80.1914Z" fill="white"/>
<path d="M346.36 246.634C329.514 246.634 318.059 235.852 318.059 219.68C318.059 202.833 330.188 192.726 346.36 192.726C354.447 192.726 361.859 195.421 366.576 199.464L358.49 208.224C355.794 205.529 351.751 203.507 347.034 203.507C338.274 203.507 331.536 210.246 331.536 219.68C331.536 229.114 336.927 235.852 347.034 235.852C349.73 235.852 352.425 235.178 355.121 234.505V225.071H345.013V214.963H366.576V242.591C361.859 244.612 354.447 246.634 346.36 246.634Z" fill="white"/>
<path d="M510.78 245.284L506.737 235.176H486.522L482.479 245.284H469.001L490.565 193.397H502.694L524.258 245.284H510.78ZM496.629 207.548L489.891 225.068H502.694L496.629 207.548Z" fill="white"/>
<path d="M674.528 245.284V208.896L661.051 245.284H652.291L639.487 208.896V245.284H628.032V193.397H645.552L657.008 226.416L668.463 193.397H686.657V245.284H674.528Z" fill="white"/>
<path d="M796.495 245.284V193.397H831.536V204.179H808.625V213.613H830.188V223.72H808.625V234.502H832.883V245.284H796.495Z" fill="white"/>
<path d="M966.981 206.877C964.959 204.181 960.916 202.16 957.547 202.16C954.178 202.16 950.134 203.507 950.134 207.55C950.134 210.92 953.504 212.267 958.221 213.615C964.959 215.637 974.393 219.006 974.393 229.114C974.393 241.243 964.959 246.634 954.851 246.634C947.439 246.634 940.027 243.939 935.31 239.222L943.396 231.135C946.091 234.505 950.808 236.526 954.851 236.526C958.894 236.526 962.264 235.178 962.264 231.135C962.264 227.092 958.221 225.744 951.482 223.723C944.743 221.701 938.005 218.332 938.005 208.898C938.005 197.443 948.113 192.726 958.221 192.726C964.285 192.726 970.35 194.747 975.067 198.79L966.981 206.877Z" fill="white"/>
</svg>
