<svg width="1300" height="360" viewBox="0 0 1300 360" fill="none" xmlns="http://www.w3.org/2000/svg">
<path d="M115.893 169.551L129.835 176.958C172.532 197.435 216.536 212.684 216.536 261.918C216.536 304.614 184.296 344.262 121.121 344.262C82.3448 344.262 61.4318 329.884 31.3694 325.092L19.6057 213.992L22.6556 213.556C40.5188 314.2 104.129 328.142 139.856 328.142C186.039 328.142 200.852 305.922 200.852 281.524C200.852 241.876 159.462 225.32 120.25 207.02L104.565 199.178C69.7098 182.622 30.9336 166.066 30.9336 117.704C30.9336 68.0358 71.4526 41.8946 116.329 41.8946C145.52 41.8946 171.225 52.7868 186.91 67.1646L199.981 42.3302H203.03V152.124H200.416C183.425 93.7414 149.877 58.015 97.594 58.015C67.5314 58.015 44.8756 72.3928 44.8756 100.713C44.8756 134.696 79.295 151.688 115.893 169.551Z" fill="white"/>
<path d="M403.424 305.05L405.166 308.1C379.46 328.578 356.37 342.956 343.734 342.956C290.144 342.956 246.14 306.358 246.14 232.29C246.14 136.439 319.772 105.505 338.506 105.505C385.996 105.505 402.116 135.132 402.552 178.265C402.552 186.107 375.104 203.534 368.568 203.534H269.668V207.02C269.668 277.166 305.394 321.17 360.29 321.17C379.024 321.17 390.352 313.328 403.424 305.05ZM328.92 124.24C305.83 124.24 273.588 136.003 270.102 195.693H375.104C378.59 145.588 355.498 124.24 328.92 124.24Z" fill="white"/>
<path d="M481.926 325.085L519.83 335.977V338.591H416.136V335.977L454.042 325.085V26.6387L411.78 26.2031V23.5889L479.312 8.33984H481.926V325.085Z" fill="white"/>
<path d="M713.349 325.082L751.253 335.974V338.588H647.123V335.974L685.029 325.082V124.666C655.837 123.359 613.575 120.744 593.099 119.002L592.663 325.082L642.331 335.974V338.588H526.873V335.974L565.215 325.082V119.873L527.309 113.338V110.724H564.779L563.907 90.2462C560.857 22.2788 623.161 5.72266 644.075 5.72266C688.079 5.72266 709.863 22.7144 720.319 40.5778L698.099 78.4826L695.921 77.1756C698.535 44.0632 667.601 21.4074 632.747 21.4074C602.249 21.4074 580.027 40.5778 580.027 66.719C580.027 87.1964 590.921 104.624 593.099 110.724L713.349 111.159V325.082Z" fill="white"/>
<path d="M917.4 305.05L919.142 308.1C893.436 328.578 870.346 342.956 857.71 342.956C804.12 342.956 760.116 306.358 760.116 232.29C760.116 136.439 833.748 105.505 852.482 105.505C899.972 105.505 916.092 135.132 916.528 178.265C916.528 186.107 889.08 203.534 882.544 203.534H783.644V207.02C783.644 277.166 819.37 321.17 874.266 321.17C893 321.17 904.328 313.328 917.4 305.05ZM842.896 124.24C819.806 124.24 787.564 136.003 784.078 195.693H889.08C892.566 145.588 869.474 124.24 842.896 124.24Z" fill="white"/>
<path d="M1123.11 179.999L1123.55 325.083L1161.45 335.975V338.589H1057.76V335.975L1095.66 325.083V180.434C1095.66 144.708 1073.44 129.023 1049.92 129.023C1033.36 129.023 1017.68 143.836 1005.91 159.521V325.083L1043.82 335.975V338.589H939.688V335.975L977.591 325.083V129.894L927.923 157.343L926.617 155.164C946.223 138.173 968.443 106.367 982.819 106.367C989.355 106.367 997.197 108.546 1004.17 149.5C1028.13 121.181 1050.35 107.239 1058.19 107.239C1092.18 107.239 1123.11 122.923 1123.11 179.999Z" fill="white"/>
<path d="M1283.6 305.05L1285.34 307.228C1266.17 327.27 1240.03 342.956 1231.75 342.956C1209.09 342.956 1195.15 327.27 1195.15 296.772L1194.72 119.883L1158.99 113.347V110.733H1195.59L1221.73 61.9362H1223.47L1222.6 110.733H1281.85V125.547C1274.45 125.547 1248.74 122.061 1222.6 119.447V295.466C1222.6 313.764 1230.88 323.35 1248.74 323.35C1258.33 323.35 1266.6 320.736 1283.6 305.05Z" fill="white"/>
</svg>
