<svg width="1000" height="138" viewBox="0 0 1000 138" fill="none" xmlns="http://www.w3.org/2000/svg">
<g clip-path="url(#clip0_766_432)">
<path d="M995.335 90.9403C992.962 79.2484 988.398 74.189 976.795 73.3561C989.011 73.5101 994.349 67.248 996.633 61.016C1000.92 50.7435 997.187 39.0512 997.187 39.0512C994.043 28.5932 983.953 21.2202 968.223 21.2202H928.457V114.293H941.75V75.8547H961.034C973.525 75.8547 979.637 80.2353 981.763 92.0817L985.498 114.293H999.998L995.335 90.8786V90.9403ZM941.75 63.9471V33.4983H966.214C976.579 33.4983 984.295 38.1566 984.295 48.6453C984.295 59.1344 976.579 63.9471 966.214 63.9471H941.75Z" fill="white"/>
<path d="M289.948 61.5312L277.177 58.724C267.058 56.4717 262.43 52.7389 262.43 45.1501C262.43 37.1599 268.816 31.3294 280.385 31.3294C295.008 31.3294 300.591 40.7694 302.72 47.0317L315.214 41.3247C312.407 32.0081 302.041 19.3906 281.588 19.3906C261.135 19.3906 249.134 30.8358 249.134 45.8596C249.134 61.6853 258.975 68.719 273.474 71.7731L285.845 74.5803C297.29 76.9866 302.72 81.6141 302.72 89.3267C302.72 98.088 295.809 104.227 283.038 104.227C268.415 104.227 260.703 95.188 257.371 84.5447L244.476 90.4064C248.857 105.029 261.505 116.197 282.236 116.197C304.694 116.197 316.664 104.35 316.664 88.1542C316.664 73.6551 305.496 64.8938 289.948 61.5618V61.5312Z" fill="white"/>
<path d="M489.597 72.1699H528.435V60.0766H489.597V42.6468L476.3 33.6079V114.31H542.133V102.094H489.597V72.1699Z" fill="white"/>
<path d="M476.265 21.2554V33.5643H489.562V33.5027H542.098V21.2554H476.265Z" fill="white"/>
<path d="M829.318 72.1699H868.156V60.0766H829.318V42.6468L816.021 33.6079V114.31H881.854V102.094H829.318V72.1699Z" fill="white"/>
<path d="M816.021 21.2554V33.5643H829.318V33.5027H881.854V21.2554H816.021Z" fill="white"/>
<path d="M694.398 21.2554V33.5027H727.376V33.5643H737.155L727.376 40.9065V114.329H740.673V33.5027H774.574V21.2554H694.398Z" fill="white"/>
<path d="M400.919 21.2554H363.159V114.329H376.456V85.9777L363.591 78.0187H377.288H400.827C420.509 78.0187 431.954 66.4502 431.954 49.5754C431.954 32.7006 420.601 21.2554 400.919 21.2554ZM398.42 66.4808H376.486V33.5027H398.42C411.716 33.5027 417.979 40.0119 417.979 49.606C417.979 59.2002 411.47 66.4808 398.42 66.4808Z" fill="white"/>
<path fill-rule="evenodd" clip-rule="evenodd" d="M642.949 21.2202H660.904L623.675 59.6501L614.481 69.0893H631.238L667.535 114.293H650.134L614.472 69.0987L601.981 81.7163V114.293H588.684V80.2352V21.2202H601.981H602.012V64.9339L642.949 21.2202Z" fill="white"/>
<path d="M86.4649 1.16113L77.687 36.7842C78.9811 37.24 80.2302 37.7778 81.4424 38.3976C106.592 45.918 124.285 65.5342 123.583 87.9855C122.699 115.97 93.5753 137.765 58.4717 136.79L66.6483 137.045C106.573 138.303 139.909 108.431 141.112 70.3288C142.151 37.322 118.724 8.97305 86.4834 1.17025L86.4649 1.16113Z" fill="white"/>
<path d="M77.5811 37.3401C78.8937 37.6591 80.1973 38.0055 81.4734 38.3883C80.2702 37.7685 79.0216 37.2216 77.718 36.7749L77.5811 37.3401Z" fill="white"/>
<path d="M77.7334 37.1304V36.7749L77.642 37.1031L77.5875 37.3401L73.6042 53.5201L72.6195 57.5309C83.0019 60.9125 89.1641 71.7782 86.5114 82.5435C83.8587 93.3089 73.3578 100.072 62.6019 98.2494L62.5289 98.5318C62.5289 98.5318 62.5105 98.5318 62.5015 98.5318V98.5593C62.5015 98.5593 62.5105 98.5593 62.5195 98.5593C79.4834 102.716 96.6114 92.3426 100.786 75.3787C104.952 58.4422 94.6334 41.3418 77.7244 37.1213L77.7334 37.1304Z" fill="white"/>
<path d="M54.6821 135.922L63.4605 100.299C62.1659 99.8432 60.9173 99.3054 59.7047 98.6856C34.5553 91.1653 16.8623 71.5486 17.5642 49.0977C18.4483 21.1132 47.5722 -0.681802 82.6758 0.293547L74.4992 0.0383156C34.5735 -1.21961 1.23844 28.6516 0.0352075 66.7541C-1.00395 99.7613 22.4227 128.11 54.6641 135.913L54.6821 135.922Z" fill="white"/>
<path d="M63.6135 99.7601C62.3009 99.4412 60.9973 99.0948 59.7212 98.7119C60.9248 99.3317 62.1734 99.8786 63.477 100.325L63.6135 99.7601Z" fill="white"/>
<path d="M63.4629 99.9297V100.285L63.5539 99.9572L63.6084 99.7203L67.5921 83.5401L68.5764 79.5297C58.194 76.1478 52.0318 65.282 54.6845 54.5167C57.3372 43.7515 67.8381 36.9879 78.5944 38.8109L78.6674 38.5284C78.6674 38.5284 78.6854 38.5284 78.6944 38.5284V38.501C78.6944 38.501 78.6854 38.501 78.6764 38.501C61.7124 34.3444 44.5847 44.7177 40.4099 61.6815C36.2441 78.618 46.5629 95.7185 63.4719 99.9387L63.4629 99.9297Z" fill="white"/>
</g>
<defs>
<clipPath id="clip0_766_432">
<rect width="1000" height="138" fill="white"/>
</clipPath>
</defs>
</svg>
