<svg width="1312" height="180" viewBox="0 0 1312 180" fill="none" xmlns="http://www.w3.org/2000/svg">
<g clip-path="url(#clip0_759_5069)">
<path d="M260.891 103.939H281.59C283.042 121.371 293.393 133.175 317.723 133.175C338.605 133.175 344.96 124.096 344.96 112.292C344.96 95.7695 332.251 93.4081 308.644 87.4165C288.308 81.9675 265.973 75.4333 265.973 50.7372C265.973 28.2229 283.405 15.3303 311.368 15.3303C340.963 15.3303 360.214 30.401 362.209 56.5491H341.51C339.331 40.9321 330.432 32.3994 311.548 32.3994C295.205 32.3994 286.852 38.391 286.852 49.6481C286.852 64.1762 300.47 67.2599 317.176 71.4364C342.232 77.791 365.839 83.7826 365.839 111.203C365.839 133.538 350.768 150.244 318.265 150.244C285.763 150.244 262.339 133.175 260.887 103.939H260.891Z" fill="#F5F6F7"/>
<path d="M438.288 55.0933H456.083V147.699H438.288V136.079H437.925C433.023 143.159 423.397 150.244 407.421 150.244C390.352 150.244 376.553 140.439 376.553 119.193V55.0933H394.349V114.291C394.349 126.82 399.798 135.173 413.233 135.173C428.487 135.173 438.292 125.914 438.292 111.933V55.097L438.288 55.0933Z" fill="#F5F6F7"/>
<path d="M560.665 101.398C560.665 131.903 542.69 150.244 519.083 150.244C504.555 150.244 495.659 143.706 490.573 136.263H490.21V179.843H472.415V55.0936H490.21V65.9877H490.573C495.655 59.4498 504.555 52.3691 519.083 52.3691C542.686 52.3691 560.665 70.8903 560.665 101.395V101.398ZM541.964 101.398C541.964 83.2402 533.611 67.2602 516.179 67.2602C500.199 67.2602 490.394 80.3324 490.394 101.398C490.394 122.464 500.199 135.537 516.179 135.537C533.611 135.537 541.964 119.556 541.964 101.398Z" fill="#F5F6F7"/>
<path d="M657.08 106.117H585.9C586.263 121.551 595.342 135.896 613.683 135.896C630.026 135.896 636.381 125.364 638.016 119.19H656.174C651.272 136.985 637.653 150.42 613.32 150.42C583.905 150.42 567.562 129.537 567.562 101.211C567.562 72.8848 584.994 52.1855 613.32 52.1855C641.646 52.1855 657.263 70.7067 657.263 99.396C657.263 101.937 657.263 104.662 657.084 106.114L657.08 106.117ZM638.742 92.1357C638.742 77.6077 628.574 66.7136 612.777 66.7136C597.89 66.7136 586.992 76.8817 585.903 92.1357H638.742Z" fill="#F5F6F7"/>
<path d="M686.492 70.5269V147.699H668.697V72.8884C668.697 67.5891 671.118 62.4845 675.212 59.1238C677.237 57.4622 679.621 56.2571 682.158 55.6247C685.395 54.8163 688.808 55.0895 692.113 55.082C697.262 55.0671 702.412 55.0783 707.561 55.0783H720.263V70.5269H705.578" fill="#F5F6F7"/>
<path d="M816.499 101.398C816.499 131.903 798.524 150.244 774.917 150.244C760.393 150.244 751.493 143.706 746.411 136.263H746.048V179.843H728.253V55.0936H746.048V65.9877H746.411C751.493 59.4498 760.393 52.3691 774.917 52.3691C798.524 52.3691 816.499 70.8903 816.499 101.395V101.398ZM797.798 101.398C797.798 83.2402 789.445 67.2602 772.013 67.2602C756.033 67.2602 746.228 80.3324 746.228 101.398C746.228 122.464 756.033 135.537 772.013 135.537C789.445 135.537 797.798 119.556 797.798 101.398Z" fill="#F5F6F7"/>
<path d="M823.213 101.398C823.213 72.5254 840.645 52.1892 869.697 52.1892C898.749 52.1892 915.818 72.3458 915.818 101.215C915.818 130.084 898.386 150.424 869.514 150.424C840.641 150.424 823.209 130.45 823.209 101.398H823.213ZM897.297 101.398C897.297 81.9675 888.581 67.0802 869.697 67.0802C850.813 67.0802 841.734 81.9675 841.734 101.398C841.734 120.829 850.45 135.716 869.697 135.716C888.944 135.716 897.297 120.645 897.297 101.398Z" fill="#F5F6F7"/>
<path d="M921.08 116.832H939.059C939.785 127.546 946.323 135.899 963.572 135.899C979.189 135.899 983.362 128.998 983.362 122.281C983.362 110.661 971.015 109.388 959.028 106.847C942.869 103.034 924.348 98.3145 924.348 79.0636C924.348 63.0836 937.24 52.3728 959.575 52.3728C984.997 52.3728 997.163 65.9914 998.432 81.9677H980.454C979.181 74.8871 975.371 66.7137 959.934 66.7137C947.951 66.7137 942.865 71.4366 942.865 78.3338C942.865 87.9593 953.216 88.865 966.289 91.7691C983.358 95.7622 1001.88 100.665 1001.88 121.368C1001.88 139.342 988.081 150.24 963.748 150.24C935.605 150.24 921.623 135.712 921.077 116.828L921.08 116.832Z" fill="#F5F6F7"/>
<path d="M1011.14 38.5707V19.3235H1031.29V38.5707H1011.14ZM1012.23 147.699V55.0934H1030.02V147.699H1012.23Z" fill="#F5F6F7"/>
<path d="M1088.12 133.354V147.699C1083.58 148.608 1080.68 148.788 1076.87 148.788C1061.61 148.788 1052.35 142.976 1052.35 121.551V69.8009H1038.92V55.0932H1052.35V39.6221L1070.15 25.3149V55.0932H1087.94V69.8009H1070.15V122.097C1070.15 131.902 1072.87 134.08 1080.5 134.08C1083.59 134.08 1085.04 133.901 1088.13 133.354H1088.12Z" fill="#F5F6F7"/>
<path d="M1098.11 38.5707V19.3235H1118.26V38.5707H1098.11ZM1099.2 147.699V55.0934H1116.99V147.699H1099.2Z" fill="#F5F6F7"/>
<path d="M1128.43 101.398C1128.43 72.5254 1145.86 52.1892 1174.91 52.1892C1203.96 52.1892 1221.03 72.3458 1221.03 101.215C1221.03 130.084 1203.6 150.424 1174.73 150.424C1145.86 150.424 1128.42 130.45 1128.42 101.398H1128.43ZM1202.51 101.398C1202.51 81.9675 1193.8 67.0802 1174.91 67.0802C1156.03 67.0802 1146.95 81.9675 1146.95 101.398C1146.95 120.829 1155.67 135.716 1174.91 135.716C1194.16 135.716 1202.51 120.645 1202.51 101.398Z" fill="#F5F6F7"/>
<path d="M1312 83.4198V147.699H1294.21V88.3224C1294.21 75.9762 1288.76 67.6232 1275.32 67.6232C1260.07 67.6232 1250.26 76.8856 1250.26 90.8635V147.699H1232.47V55.0936H1250.26V66.7138H1250.63C1255.53 59.6331 1265.15 52.3691 1281.13 52.3691C1298.2 52.3691 1312 62.1742 1312 83.4198H1312Z" fill="#F5F6F7"/>
<path d="M191.608 -0.00366211H0.000488281V175.13H34.9695L63.1348 138.447C68.2656 131.763 71.05 123.57 71.05 115.146V60.7655C71.05 58.7071 73.5798 57.678 75.0506 59.1413L91.869 78.9872H122.893L141.407 58.7932C142.904 57.416 145.344 58.4639 145.344 60.481V113.522L145.98 175.133H191.611V-0.00366211H191.608Z" fill="#F5F6F7"/>
<path d="M145.344 60.4775C145.344 58.4603 142.904 57.4124 141.407 58.7896L122.893 78.9836H91.869L75.0506 59.1377C73.5798 57.6781 71.05 58.7036 71.05 60.7619V115.143C71.05 123.571 68.2694 131.759 63.1348 138.443L34.9695 175.126H145.98L145.344 113.515V60.4737V60.4775Z" fill="#1E1E1E"/>
</g>
<defs>
<clipPath id="clip0_759_5069">
<rect width="1312" height="179.841" fill="white"/>
</clipPath>
</defs>
</svg>
