<svg width="837" height="324" viewBox="0 0 837 324" fill="none" xmlns="http://www.w3.org/2000/svg">
<path d="M309.627 195.84L309.219 196.269C309.029 196.466 308.835 196.662 308.64 196.856L196.705 308.612C177.205 328.08 145.591 328.08 126.092 308.612L95.1804 277.752C92.9889 275.572 92.9844 272.028 95.1658 269.84C95.8078 269.196 96.5968 268.718 97.4644 268.447C130.596 258.219 157.517 246.413 178.226 233.029C227.546 201.154 271.346 188.758 309.627 195.84ZM286.16 103.909C327.488 116.931 322.664 147.334 323.212 159.319C277.953 135.587 223.504 144.285 159.866 185.414C112.434 216.069 72.7013 228.708 40.6696 223.33C8.63801 217.953 1.43227 178.834 0 168.438C35.1972 186.235 82.366 176.02 141.506 137.799C196.615 102.183 244.833 90.8856 286.16 103.909ZM196.705 14.6011L225.749 43.5952C227.937 45.7778 227.94 49.3217 225.758 51.5101C224.979 52.2909 223.987 52.8238 222.906 53.0412C180.86 61.5119 147.233 73.8929 122.026 90.184C78.8315 118.1 42.0227 131.075 11.5995 129.11L11.6027 129.102L126.092 14.6011C145.591 -4.86704 177.205 -4.86704 196.705 14.6011Z" fill="url(#paint0_linear_759_5108)"/>
<path d="M480.322 130.274C479.747 124.89 477.322 120.698 473.048 117.699C468.816 114.699 463.309 113.199 456.528 113.199C451.761 113.199 447.672 113.918 444.261 115.357C440.851 116.795 438.241 118.746 436.433 121.212C434.625 123.678 433.7 126.493 433.659 129.657C433.659 132.287 434.255 134.568 435.447 136.5C436.679 138.431 438.344 140.075 440.44 141.431C442.536 142.746 444.857 143.856 447.405 144.759C449.953 145.664 452.522 146.424 455.111 147.04L466.946 149.999C471.713 151.109 476.295 152.609 480.692 154.499C485.131 156.389 489.096 158.773 492.589 161.649C496.123 164.526 498.918 167.999 500.973 172.067C503.027 176.136 504.054 180.903 504.054 186.368C504.054 193.765 502.164 200.279 498.384 205.909C494.603 211.498 489.137 215.874 481.987 219.039C474.877 222.162 466.268 223.723 456.159 223.723C446.337 223.723 437.81 222.203 430.577 219.162C423.385 216.121 417.755 211.683 413.687 205.847C409.66 200.012 407.482 192.902 407.153 184.519H429.652C429.981 188.916 431.337 192.573 433.721 195.491C436.104 198.409 439.207 200.587 443.029 202.026C446.891 203.464 451.207 204.183 455.974 204.183C460.946 204.183 465.302 203.443 469.042 201.964C472.823 200.443 475.782 198.347 477.918 195.676C480.055 192.964 481.144 189.8 481.186 186.183C481.144 182.896 480.179 180.183 478.288 178.046C476.398 175.868 473.747 174.06 470.336 172.622C466.967 171.142 463.021 169.827 458.501 168.677L444.138 164.979C433.741 162.307 425.522 158.259 419.481 152.835C413.481 147.369 410.481 140.116 410.481 131.075C410.481 123.637 412.495 117.123 416.522 111.534C420.591 105.945 426.118 101.61 433.104 98.5279C440.091 95.4048 448.001 93.8433 456.836 93.8433C465.795 93.8433 473.645 95.4048 480.384 98.5279C487.164 101.61 492.487 105.904 496.349 111.411C500.212 116.877 502.205 123.164 502.329 130.274H480.322ZM542.997 221.813L516.245 127.13H538.991L555.634 193.704H556.496L573.512 127.13H596.01L613.02 193.334H613.945L630.347 127.13H653.149L626.335 221.813H603.096L585.344 157.828H584.051L566.3 221.813H542.997ZM707.937 223.662C698.443 223.662 690.243 221.689 683.341 217.744C676.478 213.758 671.198 208.128 667.497 200.854C663.803 193.539 661.952 184.93 661.952 175.026C661.952 165.287 663.803 156.739 667.497 149.383C671.236 141.985 676.459 136.232 683.157 132.123C689.856 127.973 697.727 125.897 706.764 125.897C712.601 125.897 718.109 126.842 723.286 128.732C728.502 130.582 733.109 133.458 737.096 137.363C741.12 141.267 744.282 146.239 746.589 152.28C748.89 158.28 750.037 165.43 750.037 173.731V180.574H672.428V165.533H728.648C728.61 161.259 727.685 157.458 725.872 154.129C724.066 150.76 721.537 148.109 718.292 146.178C715.086 144.246 711.346 143.28 707.075 143.28C702.512 143.28 698.507 144.39 695.053 146.609C691.599 148.787 688.912 151.663 686.979 155.239C685.09 158.773 684.121 162.656 684.083 166.889V180.019C684.083 185.526 685.09 190.252 687.099 194.197C689.115 198.101 691.928 201.101 695.547 203.197C699.166 205.251 703.393 206.279 708.247 206.279C711.492 206.279 714.433 205.827 717.063 204.923C719.693 203.978 721.968 202.6 723.901 200.792C725.834 198.984 727.292 196.745 728.28 194.073L749.112 196.416C747.8 201.922 745.29 206.731 741.595 210.84C737.939 214.909 733.249 218.073 727.539 220.333C721.829 222.552 715.295 223.662 707.937 223.662ZM791.231 95.569V221.813H768.916V95.569H791.231ZM836.493 95.569V221.813H814.179V95.569H836.493Z" fill="white"/>
<defs>
<linearGradient id="paint0_linear_759_5108" x1="161.606" y1="0.000158527" x2="158.438" y2="545.025" gradientUnits="userSpaceOnUse">
<stop stop-color="#3068EF"/>
<stop offset="1" stop-color="#1322AC"/>
</linearGradient>
</defs>
</svg>
