<?xml version="1.0" encoding="UTF-8"?>
<svg id="Layer_1" xmlns="http://www.w3.org/2000/svg" version="1.1" viewBox="0 0 860.7 241">
  <!-- Generator: Adobe Illustrator 29.6.1, SVG Export Plug-In . SVG Version: 2.1.1 Build 9)  -->
  <defs>
    <style>
      .st0 {
        fill: #fff;
      }

      .st1 {
        fill: #3e8dff;
      }
    </style>
  </defs>
  <g>
    <path class="st1" d="M43.9,113.1c0-33.8,27.4-61.1,61.1-61.1h-61.1v61.1Z"/>
    <path class="st1" d="M166.1,52h-61.1v122.3c33.8,0,61.1-27.4,61.1-61.1s-1-12.4-2.7-18.2c1.8,5.7,2.7,11.8,2.7,18.2v-61.1Z"/>
  </g>
  <path class="st0" d="M228,59.8h-18v-7.6c0,0,43.7,0,43.7,0v7.6c0,0-17.8,0-17.8,0v44.4h-8v-44.3Z"/>
  <path class="st0" d="M257.2,52.1h7.9v19.5c1.4-2,5.1-5.6,11.1-5.6s14,2.7,14,15.3v22.8h-8.5v-21.9c0-6.5-3.2-9.1-7.4-9.1s-9.3,4.7-9.3,12.3v18.7h-7.9v-52Z"/>
  <path class="st0" d="M295.4,85.8c0-11.5,7.1-19.3,17.7-19.3s17.7,9.4,16.8,21.7h-26.3c0,6.2,3.9,9.9,9.7,9.9s6.8-.8,8.5-5.7h7.4c-1.1,7.3-7.1,12.5-16,12.5s-17.9-7.1-17.9-19.1ZM321.6,81.3c-.2-4.7-3.7-7.9-8.7-7.9s-8.8,3.3-9.1,7.9h17.7Z"/>
  <path class="st0" d="M354.1,52.1h18.6c14-.3,24.7,10.5,24.7,25.6s-10.4,26.3-24,26.4h-19.4c0,.1,0-52,0-52ZM372.4,96.2c9.4-.1,16.8-7.4,16.8-18.2s-7.3-18.1-16.5-18h-10.9v36.3h10.6Z"/>
  <path class="st0" d="M401.2,85.8c0-11.5,7.1-19.3,17.7-19.3s17.7,9.4,16.8,21.7h-26.3c0,6.2,3.9,9.9,9.7,9.9s6.8-.8,8.5-5.7h7.4c-1.1,7.3-7.1,12.5-16,12.5s-17.9-7.1-17.9-19.1ZM427.3,81.3c-.2-4.7-3.7-7.9-8.7-7.9s-8.8,3.3-9.1,7.9h17.7Z"/>
  <path class="st0" d="M441.2,67h7.5v5.1c1-2,5.3-5.9,11.8-5.9s17,6.3,17,19.2-8.5,19.2-16.8,19.2-10-2.9-12-5.6v20.1h-7.5v-52ZM469.2,85.8c0-7.2-4.2-12.3-10.1-12.3s-10.2,4.8-10.2,11.6,4.2,12.2,10.2,12.2,10.1-4.8,10.1-11.4Z"/>
  <path class="st0" d="M480.5,85.5c0-11.2,7.9-19.1,18-19.1s17.9,7.9,17.9,19.1-7.9,18.9-17.9,18.9-18-7.9-18-18.9ZM508.6,85.6c0-6.7-3.6-11.7-10.1-11.7s-10,5-10,11.7,3.6,11.6,9.9,11.6,10.2-5,10.2-11.5Z"/>
  <path class="st0" d="M519,92.2h7.6c.8,3.9,4.2,6,8.1,6s6.5-2.3,6.5-5.3-1.2-3.9-6.8-4.8c-12.9-1.9-14.3-7.4-14.3-11.1,0-5.6,5.3-10.8,13.9-10.8s13.9,3.4,14.6,12.6h-7.3c-.8-5-5-5.7-7.1-5.7s-6,1.2-6,3.9,1.7,3.9,6.3,4.5c11.6,1.4,15,5.6,15,11.3s-7.6,12-14.5,12-15.5-4.2-16-12.7Z"/>
  <path class="st0" d="M554.2,52.1h8.8v9.5h-8.8v-9.5ZM554.5,67h8.3v37.1h-8.3v-37.1Z"/>
  <path class="st0" d="M571.1,94.2v-20.6h-5.8v-6.7h5.8v-11.9h7.7v11.9h9.5v6.7h-9.5v18.6c0,3.7,1,4.9,4.5,4.9h5v7h-7.1c-5.9,0-10.2-4.1-10.2-9.9Z"/>
  <path class="st0" d="M611.8,52.1h8.7v21.7h24.4v-21.7h8.7v52h-8.7v-23.2h-24.4v23.2h-8.7v-52Z"/>
  <path class="st0" d="M659.9,85.5c0-11.2,7.9-19.1,18-19.1s17.9,7.9,17.9,19.1-7.9,18.9-17.9,18.9-18-7.9-18-18.9ZM687.9,85.6c0-6.7-3.6-11.7-10.1-11.7s-10,5-10,11.7,3.6,11.6,9.9,11.6,10.2-5,10.2-11.5Z"/>
  <path class="st0" d="M701.3,52.1h8.3v52h-8.3v-52Z"/>
  <path class="st0" d="M715.2,85.7c0-12.6,8.5-19.2,16.8-19.2s10,2.9,12,5.6v-20.1h7.5v52h-7.5v-5.1c-1,2-5.3,5.9-11.8,5.9s-17-6.3-17-19.2ZM743.9,86c0-7.1-4.2-12.2-10.2-12.2s-10.1,4.8-10.1,11.4,4.2,12.3,10.1,12.3,10.2-4.8,10.2-11.6Z"/>
  <path class="st0" d="M757,85.8c0-11.5,7.1-19.3,17.7-19.3s17.7,9.4,16.8,21.7h-26.3c0,6.2,3.9,9.9,9.7,9.9s6.8-.8,8.5-5.7h7.4c-1.1,7.3-7.1,12.5-16,12.5s-17.9-7.1-17.9-19.1ZM783.2,81.3c-.2-4.7-3.7-7.9-8.7-7.9s-8.8,3.3-9.1,7.9h17.7Z"/>
  <path class="st0" d="M797.1,67h7.6v4.5c.7-1.4,3.3-5.1,10.4-5.1h1.7v8.2h-1.3c-5,0-10.8,1.6-10.8,10.7v18.8h-7.6v-37.1Z"/>
  <g>
    <path class="st0" d="M228,122.5h4.2v47.8h23.8v3.9h-28v-51.8Z"/>
    <path class="st0" d="M260.8,163.8c0-3.2,1.3-6.1,3.6-8,2.4-1.9,5.6-2.9,9.8-3.3,4.7-.4,12.2-1.3,12.2-5.7s-4.5-7-9.5-7-9.8,3-10.6,8h-4.2c.8-7,6.4-11.5,14.7-11.5s13.6,5,13.6,12.1v25.7h-4.1v-5.8c-2.6,3.4-6.5,6.5-13.2,6.5s-12.5-4.1-12.5-11.2ZM273.7,171c5.4,0,12.8-3.5,12.8-12.1v-6c-1.6,1.7-4.7,2.7-10.9,3.3-7.5.7-10.5,3.5-10.5,7.6s4.6,7.2,8.7,7.2Z"/>
    <path class="st0" d="M295,137.2h4.9l9.2,33.1,9.1-33.1h4.9l9.2,33.1,9.1-33.1h4.9l-11.2,37h-5.7l-8.7-31.6-8.7,31.6h-5.8l-11.2-37Z"/>
    <path class="st0" d="M351.3,185.1h2.1c4.3,0,6.4-2.2,7.7-5.3l3-7.7-14.6-34.8h4.8l11.8,29.4,11.8-29.4h4.7l-17.3,43c-1.9,5.1-4.7,8.7-12,8.7h-2.1v-3.9Z"/>
    <path class="st0" d="M384.1,156c0-11.2,6.2-19.2,16.8-19.2s16,8.1,16,19.7h-28.5c0,8.9,4.7,14.6,12.6,14.6s10.3-3.8,11.4-8.8h3.9c-1,7.3-7.3,12.7-15.5,12.7s-16.7-7.5-16.7-19ZM412.5,152.7c-.9-7-3.8-12.1-11.7-12.1s-11.2,5-12.1,12.1h23.7Z"/>
    <path class="st0" d="M424,137.2h4.1v5.3c.9-2.2,4.1-6.5,12.4-5.9v4c-7.2-.3-12.4,2.8-12.4,11.6v22h-4.1v-37Z"/>
    <path class="st0" d="M443.1,162.4h4.3c.4,6.1,5.2,8.9,11.4,8.9s9-3.8,9-7.2-3-5.7-9.4-6.8c-9.5-1.6-14.2-4.5-14.2-10.7s5.5-10,12.3-10,14.6,4.1,14.5,12.6h-4c-.1-6.1-3.8-8.9-10.3-8.9s-8.6,2.7-8.6,6.4,4.2,5.8,10.1,6.8c9.5,1.6,13.6,4.2,13.6,10.9s-4.5,10.8-13.6,10.8-14.7-4.2-15.2-12.6Z"/>
  </g>
</svg>
