<svg width="1001" height="279" viewBox="0 0 1001 279" fill="none" xmlns="http://www.w3.org/2000/svg">
<path d="M924.593 149.611C924.593 175.821 924.593 202.03 924.593 228.239C924.593 235.016 923.585 236.052 916.951 236.052C891.658 236.052 866.366 235.87 841.073 236.108C817.558 236.332 793.595 219.013 788.934 192.636C785.939 175.681 789.69 160.028 801.49 146.979C809.622 137.991 820.218 133.539 832.045 131.844C846.378 129.786 860.809 131.032 875.198 130.766C887.333 130.542 894.793 119.384 890.09 108.169C888.159 103.549 884.534 100.819 879.663 99.7409C877.423 99.2508 875.142 99.1808 872.86 99.1948C855.028 99.1948 837.196 99.1948 819.378 99.1948C812.197 99.1948 810.448 97.4167 810.434 90.1644C810.434 83.332 810.406 76.4857 810.434 69.6533C810.462 64.3331 812.043 62.751 817.25 62.751C850.731 62.751 884.212 62.751 917.692 62.751C923.277 62.751 924.565 64.053 924.579 69.7653C924.579 96.3947 924.579 123.01 924.579 149.639L924.593 149.611ZM858.569 168.05C853.082 168.05 847.568 168.358 842.109 167.966C832.605 167.294 824.753 174.421 825.536 185.047C826.152 193.378 831.919 199.524 840.247 199.566C852.355 199.636 864.476 199.636 876.583 199.566C885.597 199.51 891.308 193.378 891.322 183.941C891.322 174.211 885.793 168.19 876.583 168.05C870.579 167.966 864.574 168.036 858.569 168.036V168.05Z" fill="#D4D4D4"/>
<path d="M666.377 154.442V197.452C648.181 197.676 644.234 176.381 666.377 154.442Z" fill="#D4D4D4"/>
<path d="M375.31 236.052C361.005 236.052 346.7 236.052 332.396 236.052C327.273 236.052 326.041 235.156 325.103 230.017C323.157 219.335 321.394 208.624 319.518 197.928C316.789 182.345 314.003 166.762 311.288 151.179C309.021 138.145 306.823 125.082 304.556 112.047C302.232 98.7047 299.853 85.362 297.529 72.0194C297.277 70.6053 297.123 69.1352 297.137 67.7071C297.165 64.739 298.705 62.8629 301.616 62.8209C311.05 62.6949 320.484 62.7369 329.904 62.7929C333.039 62.8069 334.089 65.229 334.635 67.7211C335.601 72.0614 336.385 76.4436 337.154 80.8258C339.128 91.9284 341.046 103.031 342.991 114.133C346.099 131.858 349.206 149.583 352.355 167.294C353.293 172.586 354.287 177.879 355.393 183.143C357.394 192.733 365.288 199.272 375.03 199.538C384.366 199.79 392.946 193.56 395.396 184.375C397.733 175.569 398.797 166.496 400.421 157.55C403.29 141.785 406.076 125.992 408.847 110.199C411.058 97.5707 413.214 84.928 415.398 72.2994C415.482 71.7954 415.524 71.2773 415.622 70.7593C416.881 63.5069 417.805 62.7229 425.069 62.7229C432.642 62.7229 440.2 62.6949 447.773 62.7229C452.49 62.7509 454.421 64.641 453.721 69.2192C451.958 80.5598 449.97 91.8584 448.025 103.171C445.337 118.768 442.622 134.351 439.892 149.933C437.597 163.08 435.259 176.213 432.964 189.359C430.682 202.394 428.415 215.443 426.147 228.477C426.021 229.191 425.895 229.905 425.755 230.619C424.846 234.834 423.446 236.01 419.163 236.024C404.55 236.038 389.937 236.024 375.324 236.024L375.31 236.052Z" fill="#D4D4D4"/>
<path d="M265.041 137.403C251.436 125.11 232.624 115.59 229.279 103.619C227.095 95.793 254.515 87.6866 235.732 75.926C229.797 72.2018 225.766 67.4975 225.038 63.0593C223.036 50.9627 239.749 51.1167 244.788 42.3663C249.281 34.5679 242.31 17.739 234.136 13.9588C220.559 7.67251 207.975 15.6949 199.381 13.0208C191.067 10.4307 190.689 9.10058 181.969 8.90457C166.67 8.56856 152.617 26.6295 138.886 19.8951C129.327 15.2329 127.171 0.742161 114.672 0.0281247C109.465 -0.26589 104.468 2.08623 100.913 5.90842C93.8022 13.5528 92.8504 24.1373 92.7524 34.1619C92.6684 42.6743 93.0323 51.4107 90.177 59.4471C86.8457 68.8276 79.2313 77.046 79.4133 87.0005C79.5673 95.1349 85.0681 102.261 91.5067 107.232C92.4865 107.988 93.5082 108.702 94.544 109.402C89.939 111.46 86.9297 116.85 84.2982 121.512C72.6387 142.233 53.5469 158.67 31.3337 167.127C24.3772 169.773 17.0288 171.719 10.7861 175.779C4.54346 179.839 -0.565437 186.728 0.0504296 194.148C0.526327 199.888 4.22153 204.774 6.50304 210.067C11.206 220.973 11.8919 236.318 23.8033 239.384C29.3741 240.826 35.2388 238.684 39.102 234.414C47.4582 225.188 47.1363 213.189 49.2358 201.96C50.8455 193.378 54.6106 184.263 62.4909 180.497C65.9062 178.859 69.7694 178.397 73.2546 176.913C86.9577 171.033 90.163 151.866 103.054 144.389C109.829 140.469 118.731 140.833 129.438 144.907C118.717 139.447 112.6 130.683 100.703 130.683C92.7244 130.683 88.2174 139.573 84.4382 148.562C78.5735 162.52 68.0617 171.341 57.8579 172.951C53.8408 173.581 53.029 169.759 56.2203 169.059C67.3899 166.581 75.6481 157.34 80.0572 143.045C84.4662 128.751 92.0386 122.058 97.5674 120.182C105.658 117.452 114.812 120.91 121.11 126.707C121.152 126.735 121.18 126.777 121.222 126.805C122.496 127.981 124.358 126.315 123.308 124.942C118.311 118.502 113.622 116.822 110.641 109.794C107.407 102.135 111.592 96.549 115.539 89.2406C117.275 86.0205 119.725 83.1643 120.942 79.7062C122.818 74.3999 122.86 68.6316 122.006 63.0733C121.152 57.515 116.043 55.3309 116.043 59.4611C116.043 63.9134 116.155 69.3736 113.51 74.1199C109.969 80.4762 106.078 76.248 107.169 72.6778C109.157 66.1955 111.648 59.3071 106.735 55.0929C98.7711 48.2606 99.191 45.4324 98.4772 39.4961C97.7073 33.1258 97.8613 23.1293 101.095 15.2329C104.874 5.99243 114.434 3.30429 121.026 8.68056C128.991 15.1769 133.12 22.6113 133.414 25.8034C134.953 41.9462 115.218 42.6043 122.734 50.1227C127.045 54.4349 146.417 44.4524 158.734 48.3586C161.422 49.2126 164.207 50.6547 164.907 52.1808C168.504 60.0352 152.645 54.9669 164.753 67.8336C171.345 74.8479 156.411 71.9918 143.855 77.9701C132.084 83.5844 127.143 87.9666 125.015 98.7471C122.328 112.314 136.059 110.088 139.376 109.64C156.313 107.33 137.963 126.385 135.555 130.459C133.26 134.351 134.099 140.861 138.565 141.505C143.044 142.135 145.493 138.901 149.37 141.225C151.274 142.373 151.89 143.773 151.75 145.313C151.498 148.058 153.793 150.368 156.551 150.2H156.649C157.796 150.13 158.86 149.64 159.658 148.828C161.827 146.602 165.635 141.729 163.549 136.633C161.716 132.125 148.012 126.609 150.238 118.628C151.61 113.686 160.078 110.858 172.885 111.824C181.157 112.454 188.016 111.208 193.517 104.627C198.514 98.6351 199.843 88.4146 211.531 88.4146C228.257 88.4146 227.711 103.759 226.605 103.353C216.71 99.7132 211.363 105.229 211.223 105.103C204.77 99.2932 198.136 102.961 193.167 110.088C185.104 121.652 174.971 115.8 170.898 123.402C167.412 129.885 173.165 136.955 169.442 143.297C168.644 144.655 165.985 146.756 166.824 147.89C168.07 149.57 176.524 142.611 185.538 146.294C195.546 150.382 196.946 141.869 196.4 133.805C196.092 129.199 202.111 127.799 206.562 128.765C213.686 130.291 219.173 137.487 220.741 147.246C221.483 151.88 220.839 156.976 223.316 160.966C225.038 163.766 228.117 165.685 229.237 168.765C230.469 172.181 228.957 175.877 228.103 179.405C223.75 197.242 239.791 216.703 258.141 216.563C276.491 216.423 295.303 192.384 299.096 174.435C308.824 128.513 275.441 146.826 265.041 137.431V137.403ZM179.856 93.5389C178.638 103.227 169.848 100.455 170.772 90.5567C172.185 75.534 191.123 55.2049 202.531 47.4765C217.969 37.018 214.596 32.7898 207.262 33.1678C197.912 33.6578 189.695 41.7782 183.887 39.4821C177.77 37.074 183.117 29.8916 178.008 26.3355C170.884 21.3652 157.488 28.7716 160.386 22.5833C162.933 17.123 180.457 18.257 185.37 22.4713C189.821 26.2795 192.705 31.7817 201.159 28.6456C208.717 25.8454 219.089 13.7488 228.845 16.353C241.19 19.6431 244.396 39.7061 223.092 43.5703C198.891 47.9526 182.823 70.0597 179.87 93.5249L179.856 93.5389ZM276.015 160.406C271.326 163.584 262.83 159.888 258.575 155.618C252.052 149.094 250.568 150.9 251.282 156.164C253.116 169.745 239.091 167.617 241.512 186.084C241.694 187.512 239.665 188.002 239.217 186.63C235.997 176.801 239.637 174.729 239.637 166.875C239.637 149.976 251.828 165.166 240.574 145.523C235.871 137.333 244.732 133.791 247.811 138.775C252.066 145.664 274.797 162.814 274.699 145.579C274.699 144.291 276.505 143.969 276.925 145.187C278.912 150.984 281.502 156.668 276.001 160.392L276.015 160.406Z" fill="#D4D4D4"/>
<path d="M209.222 191.277C208.088 176.856 205.428 166.384 194.343 157.101C187.778 151.613 181.34 151.753 176.175 153.405C169.288 155.603 166.209 161.287 165.593 162.323C160.932 170.318 160.33 179.964 159.854 189.205C158.651 212.194 160.512 256.534 156.229 256.058C151.946 255.582 153.808 231.921 152.646 213.16C149.608 163.709 145.409 165.18 139.349 160.461C132.798 155.365 121.405 153.433 114.756 155.841C114.728 155.841 114.714 155.855 114.686 155.869C110.459 157.045 111.775 159.383 115.806 159.831C121.783 160.489 125.968 164.269 126.569 167.896C127.451 173.328 123.98 178.368 113.132 176.912C104.272 175.722 95.8181 177.36 95.8181 186.209C96.364 200.699 105.798 212.068 105.364 228.043C105.21 233.671 104.258 239.845 107.45 244.48C110.445 248.834 116.086 250.318 120.439 253.314C125.842 257.052 129.117 263.044 133.036 268.323C136.955 273.587 142.4 278.599 148.965 278.669C156.929 278.739 162.92 271.739 170.114 268.337C171.164 267.847 172.144 267.441 173.123 267.077C175.783 266.097 177.518 263.535 177.588 260.706C177.588 260.174 177.588 259.642 177.588 259.166C177.351 253.538 175.713 248.078 174.285 242.617C171.5 232.033 169.428 220.818 171.122 210.136C171.234 209.422 172.284 209.492 172.284 210.22C172.34 221.49 175.237 232.747 180.696 242.617C182.025 245.012 183.985 247.63 186.728 247.588C188.282 247.56 189.696 246.636 190.704 245.446C193.937 241.595 192.705 236.443 190.592 231.893C188.898 228.225 186.183 223.184 184.573 216.618C184.405 215.932 185.357 215.596 185.679 216.212C190.144 224.991 196.134 230.353 199.438 231.711C201.523 232.579 203.875 231.389 204.421 229.191C207.528 216.73 210.229 204.045 209.222 191.291V191.277Z" fill="#D4D4D4"/>
<path d="M764.803 112.188C761.206 96.2828 752.668 83.5841 740.981 75.0717C739.077 73.6716 737.089 72.3836 735.018 71.2355C726.34 66.3353 716.332 63.4791 705.582 62.9891C685.762 62.0931 665.887 62.5271 646.025 62.6811C642.148 62.7091 638.271 62.7231 634.394 62.7231C631.258 62.7091 629.565 64.3192 629.103 67.2733C628.879 68.6874 628.879 70.1575 628.879 71.5995V76.7238C628.865 100.903 628.879 125.096 628.879 149.275C628.879 175.275 628.865 201.274 628.879 227.259C628.879 228.814 628.907 230.382 629.187 231.894C629.677 234.568 631.328 236.052 634.17 236.052C643.072 236.038 651.988 236.08 660.904 236.024C664.011 236.024 665.901 234.246 666.279 231.152C666.433 229.92 666.377 228.674 666.377 227.427V207.168C627.493 216.871 626.919 180.721 666.377 146.363C666.377 140.343 666.377 134.323 666.377 128.316C666.391 122.03 668.196 116.276 671.919 111.18C680.122 99.937 694.357 97.3468 706.59 100.399C709.193 101.043 711.615 101.995 713.84 103.213C715.744 104.249 717.508 105.481 719.103 106.895C725.766 112.776 729.587 121.61 729.601 131.691C729.615 144.431 729.615 157.172 729.615 169.913V173.623C729.615 191.446 729.615 209.255 729.615 227.077C729.615 228.73 729.657 230.41 729.951 232.02C730.427 234.568 732.037 236.024 734.71 236.038C743.724 236.052 752.752 236.052 761.766 236.038C764.733 236.038 766.329 234.302 766.875 231.572C767.127 230.27 767.043 228.898 767.043 227.553C767.043 202.786 767.029 178.033 767.043 153.28C767.043 152.118 767.043 150.942 767.043 149.78C767.043 144.319 767.043 138.873 767.057 133.413C767.057 126.23 766.357 119.174 764.761 112.188H764.803Z" fill="#D4D4D4"/>
<path d="M590.429 62.7231H491.233C485.774 62.7231 483.968 64.4732 483.926 69.9195C483.87 76.7659 483.898 83.5982 483.912 90.4305C483.926 97.1229 485.956 99.181 492.619 99.181C510.339 99.195 528.059 99.167 545.793 99.209C548.271 99.209 550.776 99.377 553.212 99.769C557.187 100.399 560.476 102.387 562.533 105.859C565.767 111.32 566.215 116.976 563.051 122.688C559.916 128.344 554.947 130.725 548.662 130.739C542.756 130.739 536.835 130.753 530.928 130.739C520.375 130.697 509.779 130.361 499.421 133.049C490.323 135.401 481.939 139.391 475.612 146.391C463.995 159.244 459.642 174.337 462.259 191.012C462.427 192.188 462.651 193.378 462.903 194.568C463.309 196.514 463.841 198.418 464.471 200.266C471.539 221.099 491.877 235.968 514.16 236.038C533.224 236.094 552.302 236.052 571.38 236.052C578.532 236.052 585.684 236.08 592.837 236.038C596.182 236.01 597.778 234.596 598.254 231.306C598.464 229.878 598.436 228.422 598.436 226.965C598.436 201.078 598.436 175.177 598.436 149.276V70.6615C598.436 64.0252 597.078 62.7231 590.415 62.7231H590.429ZM549.754 168.064C559.104 168.106 565.333 174.631 565.235 184.137C565.137 193.21 558.768 199.566 549.698 199.594C543.792 199.608 537.885 199.594 531.978 199.594H514.58C504.726 199.608 499.477 193.14 499.113 184.879C499.071 183.871 499.113 182.835 499.211 181.771C499.561 178.047 500.807 175.023 502.794 172.783C504.39 170.963 506.462 169.647 508.953 168.891C508.953 168.891 508.967 168.891 508.967 168.877C510.661 168.345 512.564 168.064 514.636 168.064C518.877 168.064 523.104 168.036 527.345 168.036C534.805 168.008 542.28 168.036 549.754 168.064Z" fill="#D4D4D4"/>
<path d="M462.903 194.568C463.309 196.514 463.841 198.418 464.47 200.266C452.769 204.298 441.221 207.057 429.59 208.737C395.423 213.693 360.697 209.409 319.994 200.56H319.98C312.449 198.908 304.695 197.116 296.717 195.198C229.293 178.985 266.931 152.79 280.256 168.429C285.141 174.155 298.732 181.575 317.754 187.82C332.535 192.664 350.563 196.808 370.327 198.894C372.482 199.118 374.68 199.328 376.877 199.51C394.248 200.91 412.78 200.686 431.466 197.942C441.739 196.43 452.055 194.176 462.259 191.012C462.427 192.188 462.651 193.378 462.903 194.568Z" fill="#D4D4D4"/>
<path d="M527.345 168.036C518.793 173.594 509.877 178.957 500.611 184.067C500.107 184.347 499.603 184.613 499.113 184.879C499.071 183.871 499.113 182.835 499.211 181.771C499.561 178.047 500.807 175.022 502.794 172.782C503.326 172.46 503.858 172.138 504.39 171.802C505.929 170.836 507.441 169.87 508.953 168.89C508.953 168.89 508.967 168.89 508.967 168.876C510.66 168.344 512.564 168.064 514.636 168.064C518.877 168.064 523.104 168.036 527.345 168.036Z" fill="#D4D4D4"/>
<path d="M740.981 75.0718C739.077 73.6718 737.09 72.3837 735.018 71.2357C748.007 33.4057 688.072 34.7778 646.025 62.6812C639.825 66.7974 634.002 71.4877 628.879 76.7239C626.766 78.866 624.764 81.1202 622.902 83.4443C615.932 92.1807 607.744 101.351 598.45 110.69V91.7187C604.146 85.4324 609.731 79.02 615.218 72.4677C665.775 12.1807 767.267 14.8828 740.981 75.0718Z" fill="#D4D4D4"/>
<path d="M666.377 154.442C644.234 176.381 648.181 197.676 666.377 197.452V207.169C627.493 216.871 626.92 180.722 666.391 146.364C666.377 149.052 666.377 151.74 666.377 154.442Z" fill="#D4D4D4"/>
<path d="M674.691 147.176C671.584 149.584 668.826 152.02 666.377 154.442C666.377 151.74 666.377 149.052 666.391 146.364C667.959 144.977 669.582 143.619 671.262 142.275C689.71 127.491 703.665 114.498 713.855 103.213C715.758 104.249 717.522 105.481 719.118 106.896C708.284 118.964 693.699 132.391 674.691 147.176Z" fill="#D4D4D4"/>
<path d="M998.175 154.064C996.594 156.542 993.598 158.278 990.729 157.704C987.566 157.074 975.43 142.737 968.894 138.103C956.324 129.213 940.662 123.514 924.593 120.126C913.494 117.774 902.184 116.514 891.56 116.052H891.476C873.672 115.296 825.984 124.382 767.085 153.28C755.02 159.188 742.479 165.936 729.629 173.623C722.967 177.585 716.22 181.813 709.404 186.293C691.907 197.802 677.561 204.396 666.377 207.169V197.452C668.924 197.438 671.724 196.99 674.775 196.066C688.716 191.88 707.794 181.785 729.629 169.913C741.443 163.514 754.054 156.584 767.085 149.78C791.496 137.081 817.39 124.83 842.319 117.326C858.751 112.384 874.694 109.668 890.413 108.94C901.89 108.394 913.242 108.898 924.593 110.34C947.492 113.238 970.391 119.972 994.2 129.647C997.713 134.197 999.771 139.853 1000.01 145.593C1000.12 148.534 999.743 151.6 998.175 154.064Z" fill="#D4D4D4"/>
</svg>
