<svg width="1000" height="257" viewBox="0 0 1000 257" fill="none" xmlns="http://www.w3.org/2000/svg">
<g clip-path="url(#clip0_759_5447)">
<path d="M239.05 64.4663L233.498 54.9043C231.956 52.1282 228.563 51.2029 225.787 52.7452C225.478 53.0536 224.861 53.3621 224.553 53.6705L211.906 66.317C210.056 68.1677 209.747 71.2522 211.29 73.4114C215.916 80.5058 219.618 88.2171 222.394 96.2368C239.975 148.365 211.906 204.812 159.778 222.394C149.599 225.786 138.803 227.637 128.008 227.637C111.66 227.637 95.6202 223.627 81.4314 215.916L103.023 194.324C139.729 208.205 180.753 189.698 194.633 152.992C201.419 134.793 200.494 114.435 192.165 96.8537C190.932 94.0777 187.539 92.8439 184.454 94.0777C183.837 94.3861 183.22 94.6946 182.912 95.3115L169.957 107.958C168.415 109.5 168.106 111.351 168.415 113.202L169.649 117.828C174.892 140.654 160.703 163.788 137.878 169.031C127.391 171.499 116.286 169.957 107.033 164.405L101.481 161.012C99.3216 159.778 96.5455 160.086 94.6948 161.937L42.258 214.374C40.0989 216.533 40.0989 220.234 42.258 222.394C42.5665 222.702 42.5665 222.702 42.8749 223.01L50.5862 228.871C72.4863 246.761 99.9385 256.015 128.008 256.015C198.643 256.015 256.015 198.643 256.015 127.699C256.015 105.49 250.154 83.8988 239.05 64.4663Z" fill="url(#paint0_linear_759_5447)"/>
<path d="M205.737 26.5268C183.529 9.25355 156.076 0 128.007 0C57.372 0 0 57.372 0 128.316C0 150.524 5.86058 172.424 16.6564 191.548L22.2085 201.11C23.7508 203.886 27.1437 204.812 29.9198 203.27C30.2283 202.961 30.8452 202.653 31.1536 202.344L43.8001 189.698C45.6508 187.847 45.9593 184.762 44.417 182.603C39.7902 175.509 36.0888 167.798 33.3128 159.778C15.731 107.65 43.8001 51.203 95.9284 33.6212C106.107 30.2283 116.903 28.3775 127.699 28.3775C144.047 28.3775 160.086 32.3874 174.275 40.0987L152.684 61.6903C115.978 47.81 74.9537 66.3171 61.0734 103.023C57.9889 111.043 56.4466 119.679 56.4466 128.316C56.4466 129.55 56.7551 134.793 56.7551 135.719C57.6804 143.738 59.8396 151.758 63.541 159.161C64.7748 161.937 68.1678 163.171 71.2523 161.937C71.8692 161.629 72.4861 161.32 72.7946 160.703L85.7495 147.748C87.2918 146.206 87.6002 144.355 87.2918 142.505L86.3664 137.878C81.1228 115.052 95.3115 91.9186 118.137 86.6749C128.624 84.2073 139.729 85.7495 148.982 91.3017L154.534 94.6946C156.693 95.9284 159.469 95.62 161.32 93.7693L213.757 41.3325C215.916 39.1733 215.916 35.4719 213.757 33.3128C213.448 33.0043 213.448 33.0043 213.14 32.6959L205.737 26.5268Z" fill="url(#paint1_linear_759_5447)"/>
<path d="M421.345 163.479C419.494 161.937 416.41 161.937 414.559 163.788C406.231 170.265 396.669 176.126 382.789 176.126C357.187 176.126 336.521 154.534 336.521 128.316C336.521 102.097 357.187 80.1974 382.789 80.1974C393.893 80.1974 405.614 84.8242 414.559 92.5354C415.485 93.7693 417.027 94.3862 418.569 94.3862C419.803 94.3862 421.037 93.4608 421.962 92.5354L430.29 83.8988C431.216 82.9734 431.833 81.4312 431.833 79.8889C431.833 78.3467 431.216 77.1129 429.982 75.8791C415.485 63.2325 400.987 57.6804 382.789 57.6804C343.924 57.6804 312.153 89.4509 312.153 128.624C312.153 167.489 343.615 199.26 382.789 199.26C400.679 199.568 417.644 192.474 430.29 180.136C431.524 178.902 432.141 177.36 431.833 175.817C431.833 174.584 431.216 173.35 430.29 172.424L421.345 163.479Z" fill="white"/>
<path d="M481.801 59.2227H469.155C466.379 59.2227 463.911 61.6903 463.911 64.4663V191.548C463.911 194.324 466.379 196.792 469.155 196.792H481.801C484.577 196.792 487.045 194.324 487.045 191.548V64.4663C487.045 61.6903 484.886 59.2227 481.801 59.2227Z" fill="white"/>
<path d="M630.784 102.097C630.784 78.6551 611.351 59.2227 587.601 59.2227H535.781C532.696 59.2227 530.537 61.6903 530.537 64.4663V191.548C530.537 194.633 533.005 196.792 535.781 196.792H548.119C550.895 196.792 553.363 194.324 553.363 191.548V144.355H579.272L604.257 194.324C605.182 195.867 607.033 197.101 608.884 197.101H623.689C625.54 197.101 627.391 196.175 628.316 194.633C629.242 192.782 629.242 190.931 628.316 189.081L603.023 141.888C620.297 134.176 630.784 119.062 630.784 102.097ZM607.342 102.406C607.342 114.435 597.471 124.614 585.75 124.614H553.363V81.4312H586.058C597.471 81.1227 607.342 90.9932 607.342 102.406Z" fill="white"/>
<path d="M766.194 163.479C764.343 161.937 761.258 161.937 759.408 163.788C751.08 170.265 741.518 176.126 727.637 176.126C702.036 176.126 681.369 154.534 681.369 128.316C681.369 102.097 702.036 80.1974 727.329 80.1974C738.433 80.1974 750.154 84.8242 759.099 92.5354C760.025 93.7693 761.567 94.3862 763.109 94.3862C764.343 94.3862 765.577 93.4608 766.502 92.5354L774.83 83.8988C775.756 82.9734 776.373 81.4312 776.373 79.8889C776.373 78.3467 775.756 77.1129 774.522 75.8791C760.025 63.2325 745.527 57.6804 727.329 57.6804C688.464 57.6804 656.693 89.4509 656.693 128.624C656.693 167.489 688.155 199.26 727.329 199.26C745.219 199.568 762.184 192.474 774.83 180.136C776.064 178.902 776.681 177.36 776.373 175.817C776.373 174.584 775.756 173.35 774.83 172.424L766.194 163.479Z" fill="white"/>
<path d="M881.864 175.509H831.895V64.4663C831.895 61.6903 829.427 59.2227 826.651 59.2227H814.004C810.92 59.2227 808.761 61.6903 808.761 64.4663V191.548C808.761 194.633 811.228 196.792 814.004 196.792H881.864C884.948 196.792 887.107 194.324 887.107 191.548V181.061C887.107 177.977 884.948 175.509 881.864 175.509Z" fill="white"/>
<path d="M994.756 80.8143C997.841 80.8143 1000 78.3467 1000 75.5706V64.7748C1000 61.6903 997.532 59.5311 994.756 59.5311H918.569C915.484 59.5311 913.325 61.9987 913.325 64.7748V191.857C913.325 194.941 915.793 197.101 918.569 197.101H994.756C997.841 197.101 1000 194.633 1000 191.857V181.369C1000 178.285 997.532 176.126 994.756 176.126H936.151V137.878H985.194C988.279 137.878 990.438 135.41 990.438 132.634V121.838C990.438 119.062 987.97 116.595 985.194 116.595H936.151V80.8143H994.756Z" fill="white"/>
</g>
<defs>
<linearGradient id="paint0_linear_759_5447" x1="82.858" y1="264.158" x2="263.062" y2="83.9534" gradientUnits="userSpaceOnUse">
<stop stop-color="#B090F5"/>
<stop offset="1" stop-color="#5FBFFF"/>
</linearGradient>
<linearGradient id="paint1_linear_759_5447" x1="-7.10117" y1="172.07" x2="173.128" y2="-8.14867" gradientUnits="userSpaceOnUse">
<stop stop-color="#68D7FA"/>
<stop offset="1" stop-color="#4EE498"/>
</linearGradient>
<clipPath id="clip0_759_5447">
<rect width="1000" height="256.015" fill="white"/>
</clipPath>
</defs>
</svg>
