<svg width="1000" height="106" viewBox="0 0 1000 106" fill="none" xmlns="http://www.w3.org/2000/svg">
<g clip-path="url(#clip0_759_5093)">
<path d="M841.647 68.0024L838.644 80.0505C835.113 94.2087 820.773 105.685 806.618 105.685H704.519L709.741 84.7335H795.9C799.439 84.7335 803.025 81.8654 803.907 78.3231L806.053 69.7225C806.935 66.1839 804.781 63.3122 801.243 63.3122H740.718C726.56 63.3122 717.945 51.8326 721.476 37.6781L724.479 25.63C728.007 11.4755 742.347 -0.000488281 756.505 -0.000488281H858.601L853.378 20.9507H767.059C763.521 20.9507 759.935 23.8188 759.053 27.361L756.906 35.9616C756.024 39.5002 758.178 42.372 761.717 42.372H822.398C836.553 42.372 845.171 53.8479 841.64 68.0061L841.647 68.0024Z" fill="#A1FEA0"/>
<path d="M623.824 -0.000488281H608.044C597.425 -0.000488281 586.67 8.60738 584.024 19.2269L562.468 105.688H597.472L608.037 63.3195H675.129C689.287 63.3195 703.627 51.8399 707.155 37.6854L710.158 25.6373C713.689 11.4755 705.074 -0.000488281 690.916 -0.000488281H623.824ZM664.757 42.3683H613.263L618.605 20.9507H670.099C673.642 20.9507 675.795 23.8188 674.91 27.361L672.763 35.9616C671.882 39.5002 668.299 42.372 664.757 42.372V42.3683Z" fill="#A1FEA0"/>
<path d="M569.279 20.9507L574.505 -0.000488281H446.772L441.55 20.9507H481.502C485.041 20.9507 487.195 23.8188 486.313 27.361L473.605 78.3304C472.723 81.869 469.141 84.7408 465.598 84.7408H425.642L420.42 105.692H548.153L553.375 84.7408H513.423C509.884 84.7408 507.73 81.8727 508.612 78.3304L521.32 27.361C522.202 23.8224 525.788 20.9507 529.327 20.9507H569.279Z" fill="#A1FEA0"/>
<path d="M320.267 78.3268L339.797 -0.000488281H304.793L283.237 86.4609C280.591 97.0804 287.049 105.688 297.668 105.688H406.174L411.396 84.7371H325.081C321.539 84.7371 319.388 81.869 320.27 78.3268H320.267Z" fill="#A1FEA0"/>
<path d="M285.347 20.9507L290.57 -0.000488281H188.474C174.316 -0.000488281 159.976 11.4755 156.448 25.6336L142.88 80.0505C139.352 94.2087 147.967 105.685 162.122 105.685H264.221L269.443 84.7335H195.941C185.322 84.7335 178.86 76.1256 181.51 65.5061L187.825 40.1744C190.475 29.5549 201.226 20.947 211.845 20.947H285.347V20.9507Z" fill="#A1FEA0"/>
<path d="M143.509 20.9507L148.731 -0.000488281H46.6357C32.4775 -0.000488281 18.1371 11.4755 14.6094 25.6336L1.04165 80.0505C-2.48605 94.2087 6.12911 105.685 20.2836 105.685H122.383L127.605 84.7335H41.2895C37.7508 84.7335 35.597 81.8654 36.479 78.3231L40.2217 63.3158H132.948L138.17 42.3647H45.444L49.1867 27.3537C50.0686 23.8151 53.6546 20.9434 57.1932 20.9434H143.509V20.9507Z" fill="#A1FEA0"/>
<path d="M994.522 20.9507L999.748 -0.000488281H897.656C883.494 -0.000488281 869.154 11.4791 865.623 25.6336L852.055 80.0505C848.527 94.2087 857.142 105.685 871.297 105.685H973.389L978.615 84.7335H892.306C888.76 84.7335 886.607 81.8654 887.492 78.3231L891.231 63.3158H983.961L989.187 42.3647H896.457L900.2 27.3537C901.082 23.8151 904.664 20.9434 908.203 20.9434H994.522V20.9507Z" fill="#A1FEA0"/>
</g>
<defs>
<clipPath id="clip0_759_5093">
<rect width="1000" height="105.685" fill="white"/>
</clipPath>
</defs>
</svg>
