<svg width="1297" height="389" viewBox="0 0 1297 389" fill="none" xmlns="http://www.w3.org/2000/svg">
<path d="M402.214 92.5225H458.235V298.98H404.102V270.026C392.143 291.427 370.742 305.274 335.494 305.274C287.026 305.274 255.554 278.208 255.554 224.076V92.5225H311.574V214.005C311.574 241.071 324.792 256.178 343.047 256.178H365.707C385.219 256.178 402.214 239.182 402.214 214.005V92.5225ZM185.686 66.0858H169.321V299.609H225.34V11.9536H185.056V66.0858H185.686ZM39.0255 65.4564V92.5225H0V137.213H39.0255V298.98H95.046V137.213H132.812V92.5225H94.4165V79.3041C94.4165 66.0858 96.3048 56.0146 112.67 56.0146H149.179V11.9536H93.1577C56.0205 11.9536 39.0255 35.243 39.0255 65.4564ZM869.891 38.3903H899.474V11.9536H837.16V63.568H869.891V38.3903ZM745.261 18.248H803.169V298.98H747.15V270.026C731.414 288.909 709.382 304.645 674.134 304.645C612.448 304.645 570.905 259.955 570.905 197.01C570.905 134.065 614.336 90.0046 675.393 90.0046C707.494 90.0046 732.043 103.852 745.261 119.588V18.248ZM739.596 197.64C739.596 146.025 711.9 135.324 677.911 135.324C643.921 135.324 620.632 162.391 620.632 197.64C620.632 233.517 643.921 259.955 677.911 259.955C711.9 259.955 739.596 242.331 739.596 197.64ZM815.758 140.36H843.454V298.98H899.474V92.5225H815.758V140.36ZM470.824 140.36H498.519V298.98H554.54V92.5225H470.824V140.36ZM1241.26 92.5225L1182.72 248.625H1173.91L1117.26 92.5225H1061.24H1009.63V35.243H953.607V92.5225H914.582V137.213H953.607V247.994C953.607 280.726 973.119 298.98 1009 298.98H1063.76V251.771H1028.51C1014.03 251.771 1009.63 246.737 1009.63 233.517V137.213H1062.5V96.2991L1137.4 298.98H1164.47L1136.77 372.625H1189.65L1293.51 91.8929H1241.26V92.5225ZM523.068 37.1313H493.484V63.568H555.799V11.9536H523.068V37.1313Z" fill="white"/>
</svg>
