<svg width="1000" height="301" viewBox="0 0 1000 301" fill="none" xmlns="http://www.w3.org/2000/svg">
<g clip-path="url(#clip0_759_5062)">
<path d="M515.416 138.795C515.416 118.934 527.904 104.868 546.177 104.868C564.45 104.868 577.55 118.924 577.55 138.795C577.55 158.666 564.45 173.633 546.483 173.633C528.517 173.633 515.416 158.963 515.416 138.795ZM516.029 221.309L480.085 235.058C488.308 261.644 512.07 277.84 545.269 277.84C595.834 277.84 622.942 240.862 622.942 172.097C622.942 103.332 596.14 68.1865 546.8 68.1865C504.163 68.1865 474.004 98.1415 474.004 140.002C474.004 181.863 501.419 208.46 539.791 208.46C556.85 208.46 571.47 202.656 582.427 192.265C581.815 223.745 568.113 241.773 544.963 241.773C530.343 241.773 519.987 234.443 516.029 221.298V221.309Z" fill="white"/>
<path d="M682.626 18.0703H639.989V225.891H682.626V18.0703Z" fill="white"/>
<path d="M770.957 230.785C810.86 230.785 837.968 206.942 837.968 171.796V73.0762H795.331V169.35C795.331 185.852 786.802 195.025 770.968 195.025C755.133 195.025 746.604 185.852 746.604 169.35V73.0762H703.967V171.796C703.967 208.467 731.076 230.785 770.978 230.785H770.957Z" fill="white"/>
<path d="M895.232 132.376C898.578 113.426 908.934 103.957 926.298 103.957C943.663 103.957 954.315 113.426 956.447 132.376H895.232ZM853.503 151.326C853.503 198.091 881.519 230.789 929.043 230.789C961.028 230.789 986.606 216.426 995.748 190.443L960.416 177.605C955.539 188.918 944.877 195.94 931.482 195.94C910.77 195.94 897.976 186.164 894.936 163.549H1000.01V152.236C1000.01 101.806 973.516 68.1865 929.349 68.1865C885.182 68.1865 853.513 99.3597 853.513 151.315L853.503 151.326Z" fill="white"/>
<path d="M317.341 44.064C289.018 15.6448 252.536 0.8262 212.38 0H111.579C49.403 0.8262 0 50.6948 0 113.009C0 175.324 50.522 226.019 112.624 226.019H212.37C253.908 226.019 286.643 192.113 286.643 150.432C286.643 108.751 252.853 74.8452 211.314 74.8452H109.552L94.7947 131.726H211.314C221.596 131.726 229.956 140.115 229.956 150.432C229.956 160.749 221.596 169.138 211.314 169.138H111.568C80.7233 169.138 56.6868 143.96 56.6868 113.009C56.6868 82.0586 80.6705 57.3785 111.568 56.8807H212.317C263.726 56.8807 304.504 98.8474 304.504 150.442C304.504 202.038 262.681 244.004 211.261 244.004H73.9145L59.1569 300.885H212.38C252.314 300.122 289.018 285.24 317.341 256.821C345.663 228.402 361.254 190.63 361.254 150.442C361.254 110.255 345.663 72.4831 317.341 44.064Z" fill="#05DB4A"/>
</g>
<defs>
<clipPath id="clip0_759_5062">
<rect width="1000" height="300.885" fill="white"/>
</clipPath>
</defs>
</svg>
