<svg width="1000" height="339" viewBox="0 0 1000 339" fill="none" xmlns="http://www.w3.org/2000/svg">
<path d="M142.284 233.277L142.334 233.395H142.227L142.284 233.277ZM50.2077 283.261L53.9064 286.051C68.2999 296.914 84.5792 305.02 101.923 309.96L105.089 310.859L142.227 233.386C128.856 233.378 115.614 236.002 103.263 241.125C90.9112 246.24 79.6926 253.754 70.2508 263.217L50.2077 283.261ZM142.334 233.386L179.471 310.859L182.638 309.96C199.982 305.02 216.26 296.914 230.655 286.051L234.352 283.261L214.309 263.226C204.867 253.763 193.649 246.248 181.298 241.133C168.945 236.01 155.705 233.386 142.334 233.395V233.386ZM27.5989 76.5153L24.8165 80.214C13.946 94.6008 5.83716 110.887 0.899692 128.231L0 131.396L77.4733 168.426C77.4699 155.072 74.8334 141.851 69.7151 129.522C64.5961 117.193 57.0954 105.988 47.642 96.5584L27.5989 76.5153ZM0 205.779L0.899692 208.945C5.83716 226.289 13.946 242.575 24.8165 256.961L27.5989 260.661L47.642 240.617C57.0945 231.186 64.5952 219.991 69.7143 207.662C74.8326 195.325 77.4699 182.112 77.4733 168.759L0 205.779ZM77.4733 168.426V168.759L77.8148 168.6L77.4733 168.426ZM236.911 240.617L256.954 260.661L259.744 256.961C270.608 242.567 278.715 226.289 283.652 208.945L284.552 205.779L207.078 168.592C207.062 181.971 209.688 195.224 214.81 207.586C219.93 219.94 227.445 231.17 236.919 240.617H236.911ZM283.652 128.231C278.715 110.887 270.608 94.609 259.744 80.214L256.954 76.5153L236.919 96.5584C227.445 106.005 219.931 117.235 214.81 129.597C209.688 141.96 207.062 155.213 207.078 168.592L284.552 131.396L283.652 128.231ZM142.334 103.781H142.227L142.284 103.889L142.334 103.781ZM234.352 53.9064L230.655 51.1241C216.263 40.2528 199.983 32.1472 182.638 27.2072L179.471 26.3076L142.334 103.781C155.705 103.789 168.945 101.157 181.298 96.0335C193.649 90.9187 204.867 83.4047 214.309 73.9412L234.352 53.9064ZM142.227 103.781L105.089 26.3076L101.923 27.2072C84.5775 32.1472 68.2973 40.2528 53.9064 51.1241L50.2077 53.9064L70.2508 73.9494C79.6943 83.4129 90.9129 90.9187 103.264 96.0419C115.615 101.157 128.856 103.789 142.227 103.781ZM142.292 103.889L142.218 104.014C126.613 130.747 104.395 153.014 77.6982 168.683L77.8232 168.75C104.558 184.353 126.829 206.571 142.492 233.269L142.559 233.153C158.159 206.412 180.378 184.145 207.078 168.483L206.962 168.409C180.227 152.814 157.955 130.597 142.292 103.898V103.889Z" fill="url(#paint0_linear_759_5443)"/>
<path d="M490.229 279.72V180.562H402.639V279.72H363.576V59.6182H402.639V145.856H490.229V59.6182H528.841V279.72H490.229ZM617.531 279.72V59.6182H656.593V245.015H756.053V279.72H617.531ZM913.252 282.724H891.768L809.436 59.6182H852.404L903.336 208.357L957.122 59.6182H999.19L913.252 282.724Z" fill="white"/>
<defs>
<linearGradient id="paint0_linear_759_5443" x1="38.9032" y1="271.964" x2="245.657" y2="65.2108" gradientUnits="userSpaceOnUse">
<stop stop-color="#FF8084"/>
<stop offset="1" stop-color="#6146FF"/>
</linearGradient>
</defs>
</svg>
