<svg width="1000" height="337" viewBox="0 0 1000 337" fill="none" xmlns="http://www.w3.org/2000/svg">
<path d="M57.1875 144.391C73.1704 119.274 95.8971 88.9577 126.114 49.4272C156.332 88.9577 179.058 119.274 195.041 144.391C214.7 175.284 221.295 194.118 221.295 208.64C221.295 233.884 211.267 258.093 193.417 275.943C175.567 293.793 151.358 303.821 126.114 303.821C100.871 303.821 76.6611 293.793 58.8114 275.943C40.9615 258.093 30.9336 233.884 30.9336 208.64C30.9336 194.118 37.5283 175.284 57.1875 144.391Z" stroke="#1570EF" stroke-width="52.5472"/>
<path d="M384.445 222.22H436.011V247.106H353.057V90.6138H384.445V222.22Z" fill="white"/>
<path d="M471.88 108.106C466.349 108.106 461.715 106.387 457.979 102.949C454.392 99.362 452.599 94.9527 452.599 89.7213C452.599 84.49 454.392 80.1554 457.979 76.7177C461.715 73.1304 466.349 71.3368 471.88 71.3368C477.41 71.3368 481.969 73.1304 485.556 76.7177C489.292 80.1554 491.161 84.49 491.161 89.7213C491.161 94.9527 489.292 99.362 485.556 102.949C481.969 106.387 477.41 108.106 471.88 108.106ZM487.35 122.903V247.111H455.962V122.903H487.35Z" fill="white"/>
<path d="M510.29 184.783C510.29 172.377 512.831 161.391 517.913 151.825C523.144 142.11 530.17 134.562 538.988 129.181C547.806 123.8 557.522 121.11 568.134 121.11C576.952 121.11 584.725 122.829 591.451 126.266C598.327 129.555 603.856 133.815 608.042 139.046V122.903H639.654V306.3H608.042V230.072C603.856 235.452 598.251 239.936 591.227 243.524C584.202 247.111 576.28 248.904 567.461 248.904C556.998 248.904 547.358 246.214 538.539 240.833C529.87 235.303 522.995 227.68 517.913 217.965C512.831 208.25 510.29 197.188 510.29 184.783ZM608.042 185.007C608.042 177.384 606.472 170.808 603.334 165.277C600.195 159.747 596.085 155.562 591.003 152.722C586.07 149.882 580.764 148.462 575.084 148.462C569.554 148.462 564.248 149.882 559.166 152.722C554.234 155.562 550.198 159.747 547.059 165.277C543.92 170.658 542.351 177.16 542.351 184.783C542.351 192.406 543.92 199.057 547.059 204.737C550.198 210.267 554.234 214.452 559.166 217.292C564.248 220.132 569.554 221.552 575.084 221.552C580.764 221.552 586.07 220.132 591.003 217.292C596.085 214.452 600.195 210.267 603.334 204.737C606.472 199.206 608.042 192.63 608.042 185.007Z" fill="white"/>
<path d="M787.57 122.899V247.107H755.957V231.413C751.922 236.794 746.615 241.054 740.039 244.192C733.612 247.181 726.587 248.677 718.964 248.677C709.248 248.677 700.654 246.659 693.181 242.623C685.707 238.438 679.803 232.384 675.469 224.463C671.284 216.391 669.191 206.825 669.191 195.765V122.899H700.58V191.281C700.58 201.146 703.046 208.769 707.978 214.149C712.911 219.381 719.637 221.997 728.156 221.997C736.825 221.997 743.626 219.381 748.559 214.149C753.491 208.769 755.957 201.146 755.957 191.281V122.899H787.57Z" fill="white"/>
<path d="M834.456 108.106C828.925 108.106 824.293 106.387 820.556 102.949C816.968 99.362 815.175 94.9527 815.175 89.7213C815.175 84.49 816.968 80.1554 820.556 76.7177C824.293 73.1304 828.925 71.3368 834.456 71.3368C839.987 71.3368 844.545 73.1304 848.132 76.7177C851.869 80.1554 853.737 84.49 853.737 89.7213C853.737 94.9527 851.869 99.362 848.132 102.949C844.545 106.387 839.987 108.106 834.456 108.106ZM849.926 122.903V247.111H818.538V122.903H849.926Z" fill="white"/>
<path d="M937.883 148.689H916.135V247.113H884.299V148.689H870.174V122.906H884.299V116.628C884.299 101.382 888.634 90.1723 897.302 82.9979C905.972 75.8234 919.05 72.4604 936.537 72.9088V99.3646C928.915 99.2151 923.609 100.486 920.619 103.176C917.63 105.866 916.135 110.724 916.135 117.749V122.906H937.883V148.689Z" fill="white"/>
<path d="M974.144 108.106C968.614 108.106 963.98 106.387 960.243 102.949C956.656 99.362 954.862 94.9527 954.862 89.7213C954.862 84.49 956.656 80.1554 960.243 76.7177C963.98 73.1304 968.614 71.3368 974.144 71.3368C979.674 71.3368 984.233 73.1304 987.82 76.7177C991.557 80.1554 993.425 84.49 993.425 89.7213C993.425 94.9527 991.557 99.362 987.82 102.949C984.233 106.387 979.674 108.106 974.144 108.106ZM989.614 122.903V247.111H958.225V122.903H989.614Z" fill="white"/>
</svg>
