<svg width="1000" height="174" viewBox="0 0 1000 174" fill="none" xmlns="http://www.w3.org/2000/svg">
<g clip-path="url(#clip0_759_5103)">
<path d="M262.292 6.65835C240.36 -6.00384 212.316 1.51047 199.654 23.442L161.442 89.6266L214.39 120.195L275.528 14.3006L262.292 6.65835Z" fill="#1170FF"/>
<path d="M13.2369 162.906C35.1684 175.568 63.2122 168.054 75.8743 146.122L114.086 79.938L61.1384 49.3687L0 155.263L13.2369 162.906Z" fill="#1170FF"/>
<path d="M199.1 146.69C186.437 168.622 158.394 176.136 136.463 163.474L96.7522 140.547L127.321 87.5991L206.743 133.453L199.1 146.69Z" fill="#1170FF"/>
<path d="M76.422 22.9322C89.0844 1.00057 117.128 -6.51372 139.059 6.14847L178.77 29.0754L148.201 82.0229L68.7798 36.1689L76.422 22.9322Z" fill="#1170FF"/>
<path d="M452.473 -0.00244141V169.648H420.239L335.657 66.646V169.648H296.879V-0.00244141H329.355L413.696 102.999V-0.00244141H452.473Z" fill="white"/>
<path d="M619.123 137.657V169.648H470.799V144.2L563.865 31.9888H472.738V-0.00244141H615.487V25.4451L522.665 137.657H619.123Z" fill="white"/>
<path d="M633.397 -0.00244141H710.467C728.886 -0.00244141 745.124 3.55214 759.181 10.6613C773.399 17.6089 784.386 27.4648 792.142 40.2289C800.058 52.9932 804.017 67.8578 804.017 84.8229C804.017 101.788 800.058 116.652 792.142 129.417C784.386 142.181 773.399 152.118 759.181 159.227C745.124 166.174 728.886 169.648 710.467 169.648H633.397V-0.00244141ZM708.528 137.415C725.493 137.415 738.984 132.729 749.002 123.358C759.181 113.825 764.27 100.98 764.27 84.8229C764.27 68.6656 759.181 55.9015 749.002 46.5303C738.984 36.9976 725.493 32.2312 708.528 32.2312H672.659V137.415H708.528Z" fill="white"/>
<path d="M822.72 -0.00244141H899.791C918.209 -0.00244141 934.444 3.55214 948.505 10.6613C962.722 17.6089 973.713 27.4648 981.461 40.2289C989.383 52.9932 993.339 67.8578 993.339 84.8229C993.339 101.788 989.383 116.652 981.461 129.417C973.713 142.181 962.722 152.118 948.505 159.227C934.444 166.174 918.209 169.648 899.791 169.648H822.72V-0.00244141ZM897.852 137.415C914.818 137.415 928.305 132.729 938.322 123.358C948.505 113.825 953.592 100.98 953.592 84.8229C953.592 68.6656 948.505 55.9015 938.322 46.5303C928.305 36.9976 914.818 32.2312 897.852 32.2312H861.983V137.415H897.852Z" fill="white"/>
</g>
<defs>
<clipPath id="clip0_759_5103">
<rect width="1000" height="173.913" fill="white"/>
</clipPath>
</defs>
</svg>
