<svg width="1000" height="194" viewBox="0 0 1000 194" fill="none" xmlns="http://www.w3.org/2000/svg">
<g clip-path="url(#clip0_759_5056)">
<mask id="mask0_759_5056" style="mask-type:luminance" maskUnits="userSpaceOnUse" x="0" y="14" width="998" height="166">
<path d="M997.395 14.4824H0.52002V179.142H997.395V14.4824Z" fill="white"/>
</mask>
<g mask="url(#mask0_759_5056)">
<path d="M140.527 74.3097L87.3388 21.1215C82.9025 16.6855 77.1029 14.4824 71.3029 14.4824C65.5029 14.4824 59.7032 16.6855 55.2669 21.1215L2.07898 74.3097C0.969956 75.4187 0.460406 76.9022 0.520353 78.3409C0.565316 79.2253 0.550328 102.08 0.520353 115.403C0.520353 115.478 0.520353 115.568 0.520353 115.643V115.853H0.535341C0.610275 117.112 1.10484 118.341 2.06399 119.3L55.2519 172.488C59.6732 176.924 65.4732 179.127 71.2879 179.127C77.1029 179.127 82.8876 176.924 87.3088 172.488L140.497 119.3C141.531 118.266 142.055 116.902 142.055 115.538V78.0712C142.055 76.7075 141.546 75.3437 140.497 74.3097H140.527ZM78.961 163.631C77.0729 165.519 74.6001 166.778 71.9322 166.928C68.89 167.093 66.0275 165.999 63.8994 163.886L50.861 150.847H91.7447L78.946 163.646L78.961 163.631ZM103.944 138.648H38.6616L21.6517 121.653H120.939L103.929 138.648H103.944ZM21.6517 109.454L38.1372 92.9681H104.468L120.954 109.454H21.6517ZM107.841 80.784H12.8545L63.8994 29.739C66.0275 27.6108 68.89 26.5168 71.9172 26.6966C74.6 26.8465 77.1029 28.1504 79.006 30.0537L129.721 80.769H107.826L107.841 80.784Z" fill="#5164DC"/>
<path d="M57.1992 58.0939C57.1992 65.887 63.5086 72.1964 71.3017 72.1964C79.0948 72.1964 85.4042 65.887 85.4042 58.0939C85.4042 50.3007 79.0948 43.9912 71.3017 43.9912C63.5086 43.9912 57.1992 50.3007 57.1992 58.0939Z" fill="#5164DC"/>
<path d="M208.671 28.8701H267.18C292.777 28.8701 309.323 46.2997 309.323 70.4735C309.323 92.3391 292.777 112.257 267.18 112.257H239.619V157.067H208.671V28.8701ZM277.671 70.4735C277.671 62.4704 271.976 56.071 261.665 56.071H239.619V85.0557H261.665C271.976 85.0557 277.671 78.4763 277.671 70.4735Z" fill="#5164DC"/>
<path d="M317.131 28.8701H348.078V157.067H317.131V28.8701Z" fill="#5164DC"/>
<path d="M363.53 28.8701H452.79V55.8913H394.462V75.9885H440.518V103.01H394.462V130.031H454.74V157.052H363.515V28.8701H363.53Z" fill="#5164DC"/>
<path d="M462.921 28.8701H521.43C547.027 28.8701 563.752 44.5163 563.752 68.8847C563.752 81.5038 556.815 94.3173 546.324 101.421C553.787 105.692 558.058 112.272 560.187 121.698L564.458 140.731C565.88 146.951 568.19 153.71 570.152 157.097H536.012C534.59 154.609 532.983 149.814 532.28 145.362L529.433 127.573C527.305 114.415 519.827 108.72 504.18 108.72H493.871V157.082H462.921V28.8701ZM532.087 68.8847C532.087 60.7019 526.212 56.086 516.08 56.086H493.855V81.6985H516.08C526.212 81.6985 532.087 76.9029 532.087 68.8997V68.8847Z" fill="#5164DC"/>
<path d="M622.771 55.8913H585.44V28.8701H691.065V55.8913H653.734V157.067H622.787V55.8913H622.771Z" fill="#5164DC"/>
<path d="M821.737 89.3266L834.715 28.8701H867.249L832.046 157.067H797.021L782.44 98.0341C778.349 81.1441 775.862 67.446 775.862 67.446C775.862 67.446 772.834 81.1441 768.562 98.0341L753.637 157.067H719.315L683.752 28.8701H717.352L730.69 89.3266C734.424 106.217 736.552 120.095 736.552 120.095C736.552 120.095 739.04 106.232 742.771 89.3266L756.109 28.8701H796.124L809.462 89.3266C813.193 106.217 815.502 120.095 815.502 120.095C815.502 120.095 818.168 106.232 821.721 89.3266H821.737Z" fill="#5164DC"/>
<path d="M864.746 92.8786C864.746 55.3667 893.012 27.4463 931.424 27.4463C969.834 27.4463 997.396 55.1867 997.396 92.8786C997.396 130.57 969.296 158.49 931.424 158.49C893.552 158.49 864.746 130.57 864.746 92.8786ZM965.743 92.8786C965.743 71.013 951.34 54.4674 931.243 54.4674C911.146 54.4674 896.399 70.998 896.399 92.8786C896.399 114.759 910.802 131.47 931.243 131.47C951.687 131.47 965.743 114.939 965.743 92.8786Z" fill="#5164DC"/>
</g>
</g>
<defs>
<clipPath id="clip0_759_5056">
<rect width="1000" height="165.625" fill="white" transform="translate(0 14.0005)"/>
</clipPath>
</defs>
</svg>
