<svg width="156" height="25" viewBox="0 0 156 25" fill="white" xmlns="http://www.w3.org/2000/svg"><g clip-path="url(#clip0_9118_12450)"><path d="M32.573 21.7259V3.96131H41.8367C42.9503 3.96131 43.9415 4.17696 44.8107 4.60851C45.6793 5.04005 46.3583 5.64873 46.8479 6.43616C47.3373 7.22279 47.5817 8.11502 47.5817 9.11308C47.5817 10.247 47.1933 11.2322 46.4175 12.0694C45.6416 12.9068 44.6119 13.4612 43.3292 13.732C44.0211 13.8334 44.6204 14.0836 45.1263 14.4807C45.6321 14.8788 46.0119 15.3989 46.2648 16.0419L48.3911 21.7268H44.1892L42.3665 16.6763C42.2482 16.3548 42.0501 16.1055 41.7715 15.9276C41.4928 15.7496 41.1593 15.6611 40.7717 15.6611H36.5194V21.7268H32.5713L32.573 21.7259ZM41.4311 12.2087C42.1401 12.2087 42.6965 11.9723 43.1012 11.4979C43.5059 11.0242 43.7091 10.4739 43.7091 9.84816C43.7091 9.22233 43.5101 8.65148 43.114 8.18553C42.7171 7.72039 42.1564 7.48748 41.4311 7.48748H36.5211V12.2078H41.4311V12.2087Z"></path><path d="M51.2853 21.2567C50.1974 20.6395 49.3614 19.7764 48.7794 18.6683C48.1972 17.5602 47.9066 16.3043 47.9066 14.8996C47.9066 13.4949 48.2101 12.2313 48.8179 11.1567C49.4258 10.0821 50.2685 9.25331 51.3488 8.66965C52.4282 8.08599 53.6687 7.79456 55.0697 7.79456C56.4706 7.79456 57.7609 8.09879 58.8411 8.70839C59.9205 9.31788 60.7556 10.1595 61.3471 11.2332C61.9379 12.3077 62.2327 13.5301 62.2327 14.9004C62.2327 16.3558 61.9293 17.6333 61.3214 18.7327C60.7135 19.8331 59.87 20.6833 58.7906 21.2834C57.7103 21.8834 56.4706 22.1843 55.0697 22.1843C53.6687 22.1843 52.3742 21.8756 51.2862 21.2575L51.2853 21.2567ZM57.4231 17.8181C58.0138 17.0908 58.3087 16.1177 58.3087 14.8996C58.3087 13.6814 58.013 12.802 57.4231 12.1083C56.8324 11.4146 56.0479 11.0681 55.0697 11.0681C54.0915 11.0681 53.3061 11.4155 52.7163 12.1083C52.1255 12.802 51.8306 13.7322 51.8306 14.8996C51.8306 16.0669 52.1255 17.0908 52.7163 17.8181C53.307 18.5453 54.0915 18.909 55.0697 18.909C56.0479 18.909 56.8324 18.5453 57.4231 17.8181ZM66.5513 21.2567C65.4632 20.6395 64.6274 19.7764 64.0452 18.6683C63.463 17.5602 63.1724 16.3043 63.1724 14.8996C63.1724 13.4949 63.4759 12.2313 64.0838 11.1567C64.6916 10.0821 65.5301 9.25331 66.6018 8.66965C67.6735 8.08599 68.9004 7.79456 70.284 7.79456C71.5659 7.79456 72.7052 8.04474 73.7006 8.54325C74.696 9.04268 75.4719 9.72359 76.0292 10.5859C76.5864 11.448 76.8814 12.422 76.9148 13.5044H73.1185C73.0173 12.7771 72.7095 12.1891 72.1942 11.7404C71.679 11.2924 71.0429 11.0681 70.2833 11.0681C69.3213 11.0681 68.5496 11.4155 67.9676 12.1083C67.3854 12.802 67.0948 13.7322 67.0948 14.8996C67.0948 16.0669 67.3898 17.0908 67.9804 17.8181C68.5711 18.5453 69.3556 18.909 70.3339 18.909C71.0763 18.909 71.6962 18.6846 72.1942 18.2367C72.6915 17.7888 73.0002 17.1837 73.1185 16.422H76.9148C76.8137 17.5731 76.4758 18.5831 75.9023 19.4549C75.3287 20.3266 74.5605 20.9988 73.5995 21.4725C72.6375 21.9461 71.5495 22.1834 70.3347 22.1834C68.9004 22.1834 67.6392 21.8748 66.5513 21.2567ZM78.3328 21.7261V2.77331H82.2303V13.3265L87.1155 8.27594H91.8995L87.0143 13.0978L92.4816 21.7261H88.002L84.2812 15.7876L82.2313 17.8181V21.7261H78.3328ZM96.4254 21.4468C95.2106 20.9559 94.253 20.2587 93.5525 19.3526C92.852 18.4475 92.4602 17.3772 92.3754 16.1427H96.3997C96.5515 16.9723 96.9819 17.611 97.6909 18.0589C98.3999 18.5076 99.3781 18.7311 100.626 18.7311C101.571 18.7311 102.292 18.5747 102.79 18.2618C103.288 17.9488 103.537 17.5044 103.537 16.9293C103.537 16.4221 103.368 16.0326 103.031 15.7619C102.693 15.4911 102.078 15.2288 101.184 14.9752L98.4754 14.1887C97.3445 13.8673 96.3877 13.5165 95.6023 13.1356C94.8171 12.7548 94.1637 12.2183 93.6407 11.5238C93.1178 10.8301 92.8563 9.94211 92.8563 8.85891C92.8563 7.86085 93.1221 6.95559 93.6536 6.14325C94.1852 5.33091 94.9525 4.68874 95.9565 4.21411C96.9604 3.74051 98.1367 3.50325 99.487 3.50325C100.955 3.50325 102.259 3.76542 103.397 4.28976C104.536 4.81422 105.43 5.55011 106.08 6.49742C106.729 7.44474 107.08 8.53651 107.13 9.77102H103.132C103.097 8.95856 102.76 8.29068 102.119 7.76622C101.478 7.24188 100.566 6.97971 99.3859 6.97971C98.5584 6.97971 97.9138 7.12828 97.45 7.42416C96.9853 7.72074 96.7538 8.12211 96.7538 8.62931C96.7538 9.13651 96.9733 9.55171 97.4123 9.82165C97.8503 10.0925 98.6271 10.4054 99.7407 10.7604L102.247 11.547C103.394 11.902 104.33 12.2622 105.056 12.6259C105.782 12.9895 106.377 13.4975 106.841 14.1483C107.304 14.7999 107.537 15.6501 107.537 16.6989C107.537 17.7477 107.254 18.7629 106.689 19.5916C106.123 20.4212 105.322 21.0599 104.284 21.5078C103.246 21.9557 102.035 22.18 100.652 22.18C99.0489 22.18 97.6403 21.9342 96.4254 21.4442V21.4468ZM111.674 21.2567C110.586 20.6395 109.75 19.7764 109.168 18.6683C108.586 17.5602 108.295 16.3043 108.295 14.8996C108.295 13.4949 108.599 12.2313 109.207 11.1567C109.815 10.0821 110.657 9.25331 111.738 8.66965C112.817 8.08599 114.058 7.79456 115.458 7.79456C116.859 7.79456 118.15 8.09879 119.23 8.70839C120.31 9.31788 121.144 10.1595 121.736 11.2332C122.327 12.3077 122.622 13.5301 122.622 14.9004C122.622 16.3558 122.318 17.6333 121.71 18.7327C121.103 19.8331 120.258 20.6833 119.179 21.2834C118.099 21.8834 116.859 22.1843 115.458 22.1843C114.058 22.1843 112.763 21.8756 111.675 21.2575L111.674 21.2567ZM117.811 17.8181C118.402 17.0908 118.697 16.1177 118.697 14.8996C118.697 13.6814 118.401 12.802 117.811 12.1083C117.221 11.4146 116.437 11.0681 115.458 11.0681C114.48 11.0681 113.695 11.4155 113.105 12.1083C112.514 12.802 112.219 13.7322 112.219 14.8996C112.219 16.0669 112.514 17.0908 113.105 17.8181C113.696 18.5453 114.48 18.909 115.458 18.909C116.437 18.909 117.221 18.5453 117.811 17.8181ZM127.935 21.7261H124.038V2.77331H127.935V21.7261ZM133.959 21.7261H130.062V8.27594H133.959V21.7261ZM138.439 21.2567C137.477 20.6395 136.721 19.7807 136.174 18.6812C135.625 17.5817 135.352 16.33 135.352 14.9254C135.352 13.5207 135.617 12.3035 136.149 11.2203C136.68 10.138 137.414 9.29548 138.351 8.69548C139.287 8.09548 140.345 7.79456 141.527 7.79456C142.387 7.79456 143.173 7.95102 143.88 8.26394C144.59 8.57685 145.171 9.01274 145.626 9.57056V2.77331H149.525V21.7261H146.385L146.056 19.5692C145.719 20.3815 145.17 21.0203 144.411 21.4854C143.651 21.9504 142.749 22.1834 141.703 22.1834C140.488 22.1834 139.4 21.8748 138.438 21.2567H138.439ZM144.741 17.8559C145.331 17.1037 145.626 16.1263 145.626 14.9245C145.626 13.7227 145.331 12.8356 144.741 12.1075C144.151 11.3802 143.391 11.0165 142.463 11.0165C141.536 11.0165 140.776 11.3845 140.185 12.1203C139.594 12.8562 139.299 13.8078 139.299 14.9752C139.299 16.1427 139.594 17.1244 140.185 17.8679C140.776 18.6124 141.535 18.9846 142.463 18.9846C143.392 18.9846 144.151 18.6082 144.741 17.855V17.8559ZM133.959 2.77331H130.062V6.68131H133.959V2.77319V2.77331ZM155.091 17.8439H151.193V21.7519H155.091V17.8439Z"></path><path opacity="0.3" d="M2.49896 11.9208L10.5648 23.0654C11.2464 24.0127 12.6551 24.0084 13.3306 23.0568L21.2876 11.3912C21.4954 11.098 21.6055 10.7468 21.6025 10.3875C21.5994 10.0281 21.4832 9.67883 21.2705 9.38919L17.0927 3.46622C16.5894 2.78188 15.66 2.57388 14.9142 2.97879L3.06913 9.42268C2.16627 9.91273 1.89884 11.0861 2.49884 11.921L2.49896 11.9208Z"></path><path d="M23.8597 16.1495L20.5846 4.41005C20.5451 4.26791 20.4737 4.13662 20.376 4.02611C20.2783 3.91559 20.1567 3.82873 20.0205 3.77211L12.3198 0.574393C12.2019 0.525442 12.0754 0.500244 11.9477 0.500244C11.8201 0.500244 11.6936 0.525442 11.5757 0.574393L3.875 3.77211C3.7388 3.82872 3.61724 3.91554 3.51952 4.02601C3.42179 4.13649 3.35045 4.26773 3.31088 4.40982L0.0357988 16.1496C-0.00239884 16.2869 -0.0101412 16.4309 0.0131131 16.5715C0.0363674 16.7121 0.0900569 16.846 0.170427 16.9636L3.2526 21.4699C3.37288 21.6459 3.5475 21.7775 3.74974 21.8448L11.6435 24.4512C11.8408 24.5166 12.0539 24.5166 12.2512 24.4512L20.1448 21.8448C20.3472 21.7778 20.522 21.6461 20.6421 21.4699L23.7243 16.9636C23.8046 16.846 23.8584 16.7121 23.8816 16.5715C23.9049 16.4309 23.8971 16.2869 23.8589 16.1496L23.8597 16.1495ZM21.2868 11.3904L13.3299 23.0559C12.6542 24.0075 11.2456 24.0119 10.564 23.0644L2.49808 11.92C1.89797 11.0853 2.16551 9.91177 3.06826 9.42171L14.9132 2.97782C15.6591 2.57291 16.5885 2.78102 17.0917 3.46525L21.2695 9.38822C21.4823 9.67787 21.5985 10.0272 21.6016 10.3866C21.6047 10.746 21.4945 11.0973 21.2867 11.3905L21.2868 11.3904Z"></path></g><defs><clipPath id="clip0_9118_12450"><rect width="155.2" height="24" fill="white" transform="translate(0 0.5)"></rect></clipPath></defs></svg>