<svg width="1156" height="216" viewBox="0 0 1156 216" fill="none" xmlns="http://www.w3.org/2000/svg">
<g clip-path="url(#clip0_759_5073)">
<path d="M673.006 57.0806H651.988L612.727 125.19L632.991 145.67H651.356L671.579 125.479H640.671L637.607 122.394L661.126 81.5659C662.316 81.5659 662.618 81.5659 663.813 81.5659L710.585 162.776H733.873L672.991 57.0806H673.006Z" fill="#D9D9D9"/>
<path d="M809.724 57.0806H737.163L719.385 74.879L729.814 92.9948L745.522 77.2856H801.385L804.776 80.7014V87.8641L801.385 91.2794H763.761L727.659 127.598L738.072 145.684L772.13 111.485H809.724L824.944 96.2374V72.3282L809.724 57.0806Z" fill="#D9D9D9"/>
<path d="M526.096 91.2814L522.705 87.8661V80.6888L526.096 77.2876H579.071L595.422 93.7317L605.865 75.6304L587.409 57.1689H517.742L502.536 72.4165V80.4583V96.8587V145.672H522.705V111.487H551.83L585.943 145.657H614.681L560.284 91.2814H526.096Z" fill="#D9D9D9"/>
<path d="M462.195 91.2794H411.007C409.799 90.0688 409.123 89.3917 407.9 88.1665V57.0806H387.736V145.684H407.9V114.598C409.109 113.387 409.785 112.71 411.007 111.485H462.195C463.403 112.696 464.08 113.373 465.302 114.598V145.684H485.467V57.0806H465.302V88.1665C464.094 89.3771 463.418 90.0547 462.195 91.2794Z" fill="#D9D9D9"/>
<path d="M917.106 110.26L863.804 57.0806H842.013V145.684H862.166V88.8873L864.638 86.4229L919.567 141.202V145.684H939.731V57.0806H919.567V107.795L917.106 110.26Z" fill="#D9D9D9"/>
<path d="M1088.94 125.48L1085.55 122.078V57.0955H1065.38V130.452L1080.6 145.699H1142.93C1147.78 140.843 1150.5 138.119 1155.34 133.262V125.494H1088.94V125.48Z" fill="#D9D9D9"/>
<path d="M956.804 72.3285V130.437L972.02 145.685H1048.32V125.48H980.348L976.953 122.078V114.599C978.163 113.388 978.836 112.71 980.062 111.486H1045.23V91.2802H980.062C978.851 90.0696 978.178 89.3925 976.953 88.1673V80.7017L980.348 77.301H1048.32V57.0955H972.02L956.804 72.343V72.3285Z" fill="#D9D9D9"/>
<path d="M296.52 91.2802L293.126 87.8795V80.7022L296.52 77.301H369.124V73.1935V69.533C364.277 64.6761 361.559 61.9524 356.712 57.0955H288.164L272.947 72.3436V96.2528L288.164 111.5H347.104L350.499 114.902V122.078L347.104 125.48H274.5V132.498C279.347 137.355 282.066 140.828 286.913 145.685H355.461L370.678 129.688V106.514L355.461 91.2662H296.52V91.2802Z" fill="#D9D9D9"/>
<path d="M224.089 169.347C225.312 170.831 226.548 172.33 227.771 173.814C227.742 173.857 227.713 173.901 227.685 173.944C226.606 173.584 225.527 173.209 224.463 172.849C224.074 172.719 223.701 172.517 223.298 172.474C220.752 172.172 219.817 170.269 218.983 168.093C220.652 168.468 222.248 168.828 223.844 169.188C223.931 169.202 224.031 169.275 224.089 169.347Z" fill="#D9D9D9"/>
<path d="M208.541 159.706C205.981 156.794 203.45 153.883 200.803 150.857C206.226 150.151 211.188 149.949 214.683 154.863C215.229 155.627 216.063 156.189 216.768 156.838C218.739 158.654 220.709 160.469 222.665 162.285C222.608 162.401 222.55 162.502 222.493 162.617C218.034 161.752 213.589 160.902 209.131 160.023C208.915 159.98 208.657 159.85 208.512 159.691L208.541 159.706Z" fill="#D9D9D9"/>
<path d="M225.7 210.391C225.944 209.785 226.189 209.18 226.462 208.589C227.038 207.335 228.476 207.191 229.238 208.373C230.662 210.578 231.985 212.841 233.567 215.435C231.266 214.93 229.411 214.541 227.555 214.123C226.145 213.806 225.153 211.789 225.685 210.405L225.7 210.391Z" fill="#D9D9D9"/>
<path d="M206.068 199.9C207.98 202.854 209.821 205.837 211.835 209.051C209.347 209.238 207.218 209.426 205.09 209.512C204.715 209.527 204.183 209.195 203.967 208.864C202.357 206.486 200.803 204.05 199.092 201.427C201.221 200.793 203.104 200.202 205.003 199.698C205.334 199.611 205.938 199.698 206.082 199.914L206.068 199.9Z" fill="#D9D9D9"/>
<path d="M149.198 167.041C149.198 166.451 149.212 165.514 149.557 165.326C151.528 164.26 153.47 162.761 155.9 161.622C155.627 163.121 155.527 164.707 155.382 165.701C154.932 169.006 153.086 170.399 149.845 169.881C149.845 169.881 149.744 169.823 149.457 169.664C149.356 168.8 149.198 167.92 149.198 167.041Z" fill="#D9D9D9"/>
<path d="M200.631 195.202C196.661 193.732 192.274 194.265 188.333 192.666C187.772 192.435 187.169 192.306 186.579 192.118C186.909 191.613 187.226 191.109 187.614 190.49C186.909 189.221 186.133 187.795 185.256 186.195C188.952 185.301 192.547 184.437 195.626 183.687C197.179 184.984 198.416 186.007 199.667 187.045C199.265 187.391 198.876 187.708 198.502 188.025C199.696 190.49 200.846 192.839 202.084 195.389C201.436 195.303 201.005 195.318 200.631 195.188V195.202Z" fill="#D9D9D9"/>
<path d="M160.704 153.612C155.455 155.918 150.795 157.95 145.775 160.155C145.818 163.355 144.351 166.222 144.394 169.494C144.437 172.967 145.976 176.858 146.02 180.49C141.82 177.507 138.094 174.812 134.297 172.218C133.88 171.929 133.161 171.8 132.615 171.886L126.847 174.855C122.676 177.075 118.52 179.322 114.348 181.556C113.4 182.061 112.465 182.479 111.487 182.767L109.689 183.69C67.6764 177.564 35.186 141.578 34.6539 97.6941C34.5963 93.2409 34.884 88.8597 35.4736 84.5793C37.3146 83.8876 39.4145 83.095 42.1616 82.0431C40.3063 78.2958 39.6302 75.3416 37.7749 73.8426C37.7173 73.7994 37.6455 73.7562 37.5592 73.713C30.0513 65.6999 28.8288 61.7944 19.4801 52.2251C19.0917 51.8212 18.7321 51.3892 18.3726 50.9713C19.1205 51.1009 19.6382 51.461 20.1417 51.8649C31.0006 60.5551 33.5032 63.8263 39.1844 68.6978C39.6303 67.343 40.1337 66.0169 40.6371 64.6913L29.0589 53.0896L29.0158 53.176C15.3953 42.6123 16.2583 40.7099 2.63784 30.146C2.19197 29.8002 1.78926 29.4255 1.37216 29.0652C2.12006 29.094 2.69538 29.3823 3.24192 29.6993C32.5827 47.1808 22.3278 42.9293 51.6688 60.4255C52.3876 60.8575 53.1069 61.3478 53.7253 61.9099C58.2417 65.9596 62.729 70.038 67.2162 74.1164C77.2557 83.2537 90.3438 95.7486 100.412 104.857C101.145 105.52 102.095 106.039 103.044 106.312C109.07 108.042 119.411 110.823 125.481 112.423L128.516 113.547L131.478 116.92L144.595 128.766L157.957 133.234L173.102 145.325L180.739 147.401L183.026 148.107C185.198 150.874 187.384 153.641 189.685 156.293C192.145 159.117 194.36 162.028 197.567 164.32C204.643 169.364 213.819 173.327 220.867 178.4C222.679 179.712 222.378 182.118 224.189 183.43C238.285 193.605 252.337 203.837 266.403 214.041C266.935 214.43 267.453 214.862 267.985 215.266C267.927 215.352 267.87 215.439 267.798 215.525C255.343 208.507 242.887 201.503 230.072 194.282L196.92 173.414C194.777 171.929 192.562 170.546 190.52 169.378C188.981 168.499 170.93 157.229 169.363 156.393L160.733 153.612H160.704Z" fill="#D9D9D9"/>
<path d="M206.068 184.378C205.593 184.638 206.715 186.151 206.715 186.151C206.715 186.151 206.197 188.284 205.593 188.544C204.975 188.817 206.801 189.696 206.556 190.993C205.838 194.856 208.354 197.306 210.008 200.232C211.591 203.042 213.575 204.238 216.898 204.252C221.975 204.267 227.038 204.901 232.345 205.29C231.554 202.436 230.806 199.741 229.957 196.657C229.972 196.657 230 196.686 230.015 196.686C230.015 196.686 213.762 185.935 206.096 184.364L206.068 184.378Z" fill="#D9D9D9"/>
<path d="M179.243 191.282C178.941 190.72 179.589 189.625 180.049 187.852C181.487 189.524 182.537 190.374 182.998 191.469C183.199 191.96 182.207 192.954 181.76 193.718C180.883 192.925 179.761 192.262 179.243 191.282Z" fill="#D9D9D9"/>
<path d="M32.5252 75.122C33.532 75.8137 34.0066 77.3126 35.1141 79.1572C32.7697 80.2668 31.3602 80.9153 29.965 81.5784C29.7781 79.6906 29.4185 77.8024 29.5767 75.9433C29.6198 75.5399 31.9642 74.7181 32.5396 75.1074L32.5252 75.122Z" fill="#D9D9D9"/>
<path d="M190.246 109.065C190.246 109.065 181.502 102.09 179.388 98.9338C178.208 97.1897 176.382 96.1956 175.174 94.5525C174.886 94.1637 174.656 93.4429 174.828 93.0536C175.878 90.5319 177.057 88.0529 178.237 85.4443C186.248 88.298 194.072 91.0794 202.199 93.9763C198.157 98.9624 190.261 109.08 190.261 109.08L190.246 109.065Z" fill="#D9D9D9"/>
<path d="M223.6 136.678C223.542 136.764 220.867 136.246 217.2 133.939C216.653 133.594 215.819 133.723 215.114 133.622C215.071 133.824 196.632 122.425 196.632 122.425C195.755 119.816 195.295 118.634 194.317 115.464C194.13 114.829 194.202 113.893 194.547 113.36C199.005 106.514 209.16 91.9435 209.778 91.8717C215.387 91.194 229.526 91.9149 229.526 91.9149C229.526 91.9149 232.848 105.101 233.38 111.889L233.452 112.899C233.956 122.468 233.078 131.72 230.36 140.944C228.001 139.459 225.8 138.062 223.586 136.664L223.6 136.678Z" fill="#D9D9D9"/>
<path d="M247.475 120.869C247.288 121.849 247.332 122.685 247.072 122.785C245.562 123.377 245.304 124.904 244.541 126.014C242.384 129.199 242.427 129.271 238.989 127.7C238.572 127.513 238.098 126.878 238.083 126.432C238.026 124.4 238.184 120.538 238.184 120.538L241.995 119.788L243.865 120.465C243.865 120.465 246.296 121.186 247.475 120.855V120.869Z" fill="#D9D9D9"/>
<path d="M202.616 71.739C202.357 70.8022 201.853 69.8362 201.206 69.1159C197.999 65.6137 191.397 58.768 191.397 58.768C191.397 58.768 193.857 47.3684 195.41 43.0593C196.33 40.5084 197.279 37.9575 198.315 35.104C211.921 50.2076 218.307 67.5451 217.732 87.8511C213.978 86.7269 207.089 84.695 207.089 84.695C207.089 84.695 203.608 75.3708 202.616 71.7099V71.739Z" fill="#D9D9D9"/>
<path d="M61.0893 13.0218C64.383 11.7968 66.4109 11.033 68.8271 10.125C69.4455 13.4685 69.9201 16.0915 70.4094 18.7144C69.9347 18.945 69.4314 19.1756 68.8989 19.4206C66.6123 17.5471 64.2966 15.6447 61.0893 13.0218Z" fill="#D9D9D9"/>
<path d="M83.1238 12.8207C82.5627 13.0801 81.1245 12.0569 80.1033 11.639C80.0601 10.3275 82.088 7.24335 83.0228 6.45068L84.3751 8.30979L84.792 10.2842L84.5333 11.6245C84.0295 12.0136 83.5553 12.4172 83.1238 12.8207Z" fill="#D9D9D9"/>
<path d="M244.628 114.77C245.059 113.113 245.059 111.758 245.721 111.052C246.123 110.619 247.562 111.153 248.54 111.239C248.324 112.349 248.338 113.617 247.778 114.496C247.49 114.943 246.109 114.683 244.628 114.77Z" fill="#D9D9D9"/>
<path d="M249.719 150.282C248.798 149.1 247.533 149.23 246.31 149.129C244.57 148.97 242.83 148.668 241.104 148.74C238.011 148.884 235.537 147.544 233.236 145.771C232.863 145.483 232.474 144.791 232.575 144.402C233.481 140.914 236.53 133.06 236.918 133.146C241.507 134.27 246.08 135.495 250.74 136.721C250.668 140.28 250.582 143.696 250.567 147.111C250.567 147.716 250.826 148.336 250.956 148.942C251.057 149.417 251.157 149.893 251.258 150.368C250.726 150.34 249.935 150.527 249.719 150.253V150.282Z" fill="#D9D9D9"/>
<path d="M250.208 172.087L240.586 171.424L236.3 169.796L230.403 159.074L215.69 148.639C203.219 138.94 189.916 131.23 177.331 121.848C173.059 118.663 167.824 115.91 163.552 112.711C160.618 110.52 158.619 107.306 155.685 105.13L139.59 93.7016C139.662 93.5288 131.809 88.9742 131.881 88.8014L128.501 80.183L102.138 68.841L100.642 59.0697L60.9166 37.481L56.2565 35.9966C55.2212 36.674 54.4587 36.3857 53.5239 35.6507C36.1784 21.8009 45.6135 28.9924 28.2392 15.1571C27.822 14.8257 27.4481 14.451 27.0454 14.1051C27.7645 14.1339 28.2823 14.4077 28.8001 14.696C34.395 17.8521 38.9255 19.2213 44.4916 22.4207L58.1699 29.1222L61.8228 30.4337C63.3333 28.8916 64.9151 27.4216 66.5406 26.0092C61.7942 22.8819 56.8754 19.668 50.3743 15.6904C49.8995 15.4021 49.4537 15.0706 48.9934 14.7536C49.7414 14.696 50.3457 14.9121 50.9208 15.186C58.1699 18.4863 63.7502 21.1092 68.4821 23.3719C71.4448 24.8851 73.861 26.1101 76.2631 27.3351C76.6514 26.9172 77.0543 26.4992 77.4426 26.0813C76.5942 24.0492 75.7312 22.0027 74.7672 19.668C76.335 18.6015 77.9314 17.5783 79.5569 16.5983C79.6142 16.5695 79.6719 16.5262 79.7292 16.4974C80.3767 16.1083 81.0382 15.7336 81.6998 15.3733C82.9225 16.6416 84.3029 18.6592 85.1804 18.4574L87.2947 18.2845L88.9057 15.7192L89.409 12.6351L89.1503 11.6407C101.836 6.04887 115.485 3.71415 128.947 4.52121C152.607 5.78947 173.749 16.4254 188.794 32.7828L188.29 34.4545C188.262 34.7284 188.175 35.031 188.046 35.3625C188.002 35.4634 187.974 35.5643 187.931 35.6651L181.847 56.0724C181.588 57.0233 181.444 57.5999 181.444 57.5999C181.444 57.5999 188.635 64.5175 191.8 68.3366C195.079 72.3 200.803 83.3682 200.803 83.3682C200.803 83.3682 199.02 85.2128 198.315 86.2651C197.625 87.2884 196.891 87.2884 195.87 86.9137C191.512 85.3137 187.125 83.743 182.753 82.1722C180.221 81.264 177.69 80.3849 174.943 79.4194C175.015 80.1112 174.972 80.4859 175.101 80.7883C175.95 82.5901 175.202 83.7575 173.865 85.0113C170.714 87.9369 169.578 89.1761 166.443 92.289C171.074 95.6039 174.008 99.4517 178.481 102.781C179.201 103.314 180.02 105.216 180.02 105.216L180.423 109.266L159.324 95.0418L163.149 101.47L181.703 114.772C181.789 114.887 181.876 114.988 181.962 115.045C182.667 115.521 183.357 115.997 184.048 116.458L228.318 148.135C235.466 153.41 242.585 158.67 249.691 163.916C250.05 163.757 252.25 166.193 252.955 166.741C269.006 179.207 285.057 191.659 301.123 204.125C301.626 204.514 302.115 204.946 302.619 205.364C302.533 205.451 302.461 205.551 302.374 205.638C283.346 193.302 269.323 184.582 250.179 172.174L250.208 172.087Z" fill="#D9D9D9"/>
<path d="M265.583 149.098C265.612 148.94 266.633 148.652 266.691 148.767C267.064 149.43 267.294 150.179 267.568 150.914C267.05 151.001 266.518 151.087 265.612 151.246C265.568 150.323 265.468 149.703 265.583 149.098Z" fill="#D9D9D9"/>
<path d="M269.28 160.038C272.933 159.591 271.955 157.862 273.278 156.795C274.328 157.631 274.73 159.274 274.73 159.274C274.73 159.274 273.968 161.147 272.717 162.401C271.624 161.652 270.516 160.888 269.294 160.038H269.28Z" fill="#D9D9D9"/>
<path d="M265.195 169.291C264.806 169.234 264.605 169.248 264.475 169.161C260.434 166.827 256.378 164.506 252.351 162.143C251.962 161.912 251.56 161.567 251.344 161.163C250.136 158.958 248.985 156.724 247.72 154.303C251.042 153.424 254.221 152.588 257.442 151.738C260.06 157.675 262.592 163.397 265.195 169.262V169.291Z" fill="#D9D9D9"/>
<path d="M255.429 136.791C255.429 136.791 254.595 135.494 254.652 135.379C255.242 135.566 257.313 135.926 257.932 136.128C258.68 135.364 258.953 135.004 259.729 134.356C260.075 134.067 260.693 133.793 261.067 133.908C262.362 134.326 263.613 134.903 265.094 135.508C263.886 137.583 261.513 141.648 261.513 141.648L255.429 136.791Z" fill="#D9D9D9"/>
<path d="M160.704 153.608C160.316 157.081 161.107 160.612 160.719 164.027C160.632 164.763 161.625 166.031 161.538 166.78C161.179 169.979 158.36 174.072 158 177.272C157.511 181.682 157.267 184.55 156.778 189.003C163.739 188.931 170.355 187.966 176.856 186.251C183.026 184.622 189.038 182.604 194.547 178.987C192.015 177.099 189.455 175.196 186.909 173.294C186.952 173.064 186.982 172.848 187.025 172.617C187.585 172.646 169.262 156.476 169.319 156.389L164.17 150.163L160.69 153.622L160.704 153.608Z" fill="#D9D9D9"/>
<path d="M142.726 182.911C137.189 185.419 131.119 186.918 124.906 188.056C121.353 188.704 117.815 189.137 114.305 189.368L115.629 188.445C116.377 188.114 117.067 187.681 117.757 187.162C120.806 184.914 123.841 182.666 126.89 180.432L131.119 177.42C131.536 177.291 132.126 177.319 132.485 177.492C135.779 179.121 139.087 180.994 142.74 182.882V182.926L142.726 182.911Z" fill="#D9D9D9"/>
</g>
<defs>
<clipPath id="clip0_759_5073">
<rect width="1155.35" height="216" fill="white"/>
</clipPath>
</defs>
</svg>
