<svg width="1312" height="180" viewBox="0 0 1312 180" fill="none" xmlns="http://www.w3.org/2000/svg">
<g clip-path="url(#clip0_759_5060)">
<path d="M260.891 103.945H281.59C283.042 121.377 293.394 133.18 317.723 133.18C338.606 133.18 344.96 124.101 344.96 112.298C344.96 95.7749 332.251 93.4134 308.644 87.4218C288.308 81.9729 265.973 75.4387 265.973 50.7426C265.973 28.2283 283.405 15.3357 311.368 15.3357C340.963 15.3357 360.214 30.4063 362.209 56.5545H341.51C339.332 40.9375 330.432 32.4048 311.548 32.4048C295.205 32.4048 286.852 38.3964 286.852 49.6535C286.852 64.1815 300.471 67.2653 317.177 71.4418C342.232 77.7964 365.839 83.788 365.839 111.209C365.839 133.543 350.768 150.249 318.266 150.249C285.763 150.249 262.339 133.18 260.887 103.945H260.891Z" fill="#1E1E1E"/>
<path d="M438.288 55.0986H456.083V147.704H438.288V136.084H437.925C433.023 143.165 423.397 150.249 407.421 150.249C390.352 150.249 376.554 140.444 376.554 119.198V55.0986H394.349V114.296C394.349 126.826 399.798 135.179 413.233 135.179C428.487 135.179 438.292 125.92 438.292 111.938V55.1024L438.288 55.0986Z" fill="#1E1E1E"/>
<path d="M560.665 101.404C560.665 131.908 542.69 150.25 519.083 150.25C504.555 150.25 495.659 143.712 490.573 136.268H490.21V179.848H472.415V55.099H490.21V65.9931H490.573C495.656 59.4551 504.555 52.3745 519.083 52.3745C542.686 52.3745 560.665 70.8957 560.665 101.4V101.404ZM541.964 101.404C541.964 83.2456 533.611 67.2655 516.179 67.2655C500.199 67.2655 490.394 80.3377 490.394 101.404C490.394 122.47 500.199 135.542 516.179 135.542C533.611 135.542 541.964 119.562 541.964 101.404Z" fill="#1E1E1E"/>
<path d="M657.08 106.123H585.9C586.263 121.557 595.342 135.901 613.683 135.901C630.026 135.901 636.381 125.37 638.016 119.195H656.175C651.272 136.99 637.653 150.425 613.32 150.425C583.905 150.425 567.562 129.543 567.562 101.217C567.562 72.8904 584.994 52.1912 613.32 52.1912C641.647 52.1912 657.264 70.7123 657.264 99.4016C657.264 101.943 657.264 104.667 657.084 106.119L657.08 106.123ZM638.743 92.1413C638.743 77.6133 628.574 66.7192 612.778 66.7192C597.89 66.7192 586.993 76.8873 585.904 92.1413H638.743Z" fill="#1E1E1E"/>
<path d="M686.492 70.5323V147.704H668.697V72.8937C668.697 67.5945 671.118 62.4899 675.212 59.1292C677.237 57.4676 679.621 56.2625 682.158 55.63C685.395 54.8217 688.808 55.0949 692.113 55.0874C697.263 55.0724 702.412 55.0836 707.562 55.0836H720.263V70.5323H705.578" fill="#1E1E1E"/>
<path d="M816.499 101.404C816.499 131.908 798.524 150.25 774.917 150.25C760.393 150.25 751.493 143.712 746.411 136.268H746.048V179.848H728.253V55.099H746.048V65.9931H746.411C751.493 59.4551 760.393 52.3745 774.917 52.3745C798.524 52.3745 816.499 70.8957 816.499 101.4V101.404ZM797.798 101.404C797.798 83.2456 789.445 67.2655 772.013 67.2655C756.033 67.2655 746.228 80.3377 746.228 101.404C746.228 122.47 756.033 135.542 772.013 135.542C789.445 135.542 797.798 119.562 797.798 101.404Z" fill="#1E1E1E"/>
<path d="M823.213 101.403C823.213 72.5308 840.645 52.1946 869.697 52.1946C898.75 52.1946 915.819 72.3512 915.819 101.22C915.819 130.089 898.387 150.429 869.514 150.429C840.641 150.429 823.209 130.456 823.209 101.403H823.213ZM897.298 101.403C897.298 81.9729 888.581 67.0856 869.697 67.0856C850.813 67.0856 841.734 81.9729 841.734 101.403C841.734 120.834 850.45 135.721 869.697 135.721C888.945 135.721 897.298 120.651 897.298 101.403Z" fill="#1E1E1E"/>
<path d="M921.081 116.837H939.059C939.785 127.552 946.323 135.905 963.572 135.905C979.189 135.905 983.362 129.004 983.362 122.286C983.362 110.666 971.016 109.394 959.029 106.853C942.869 103.039 924.348 98.3199 924.348 79.069C924.348 63.0889 937.24 52.3782 959.575 52.3782C984.997 52.3782 997.164 65.9968 998.432 81.9731H980.454C979.181 74.8925 975.372 66.7191 959.934 66.7191C947.951 66.7191 942.865 71.442 942.865 78.3392C942.865 87.9647 953.217 88.8703 966.289 91.7744C983.358 95.7676 1001.88 100.67 1001.88 121.373C1001.88 139.348 988.081 150.246 963.748 150.246C935.605 150.246 921.623 135.718 921.077 116.834L921.081 116.837Z" fill="#1E1E1E"/>
<path d="M1011.14 38.576V19.3289H1031.29V38.576H1011.14ZM1012.23 147.704V55.0987H1030.02V147.704H1012.23Z" fill="#1E1E1E"/>
<path d="M1088.12 133.36V147.704C1083.58 148.614 1080.68 148.793 1076.87 148.793C1061.61 148.793 1052.35 142.981 1052.35 121.556V69.8062H1038.92V55.0986H1052.35V39.6275L1070.15 25.3203V55.0986H1087.94V69.8062H1070.15V122.103C1070.15 131.908 1072.87 134.086 1080.5 134.086C1083.59 134.086 1085.04 133.906 1088.13 133.36H1088.12Z" fill="#1E1E1E"/>
<path d="M1098.11 38.576V19.3289H1118.26V38.576H1098.11ZM1099.2 147.704V55.0987H1116.99V147.704H1099.2Z" fill="#1E1E1E"/>
<path d="M1128.43 101.403C1128.43 72.5308 1145.86 52.1946 1174.91 52.1946C1203.96 52.1946 1221.03 72.3512 1221.03 101.22C1221.03 130.089 1203.6 150.429 1174.73 150.429C1145.86 150.429 1128.42 130.456 1128.42 101.403H1128.43ZM1202.51 101.403C1202.51 81.9729 1193.8 67.0856 1174.91 67.0856C1156.03 67.0856 1146.95 81.9729 1146.95 101.403C1146.95 120.834 1155.67 135.721 1174.91 135.721C1194.16 135.721 1202.51 120.651 1202.51 101.403Z" fill="#1E1E1E"/>
<path d="M1312 83.4252V147.705H1294.21V88.3278C1294.21 75.9816 1288.76 67.6285 1275.32 67.6285C1260.07 67.6285 1250.26 76.891 1250.26 90.8689V147.705H1232.47V55.099H1250.26V66.7191H1250.63C1255.53 59.6385 1265.15 52.3745 1281.13 52.3745C1298.2 52.3745 1312 62.1796 1312 83.4252H1312Z" fill="#1E1E1E"/>
<path d="M191.608 0.00366211H0.000976562V175.137H34.97L63.1353 138.454C68.2661 131.77 71.0505 123.578 71.0505 115.154V60.7728C71.0505 58.7145 73.5803 57.6853 75.0511 59.1486L91.8695 78.9945H122.894L141.408 58.8005C142.905 57.4233 145.345 58.4712 145.345 60.4884V113.529L145.981 175.141H191.612V0.00366211H191.608Z" fill="#1E1E1E"/>
<path d="M145.345 60.4845C145.345 58.4674 142.905 57.4195 141.408 58.7967L122.894 78.9907H91.8697L75.0513 59.1448C73.5806 57.6852 71.0507 58.7106 71.0507 60.769V115.15C71.0507 123.578 68.2701 131.766 63.1355 138.45L34.9702 175.133H145.981L145.345 113.522V60.4808V60.4845Z" fill="#F5F6F7"/>
</g>
<defs>
<clipPath id="clip0_759_5060">
<rect width="1312" height="179.841" fill="white"/>
</clipPath>
</defs>
</svg>
