<svg width="1000" height="236" viewBox="0 0 1000 236" fill="none" xmlns="http://www.w3.org/2000/svg">
<path d="M238.268 92.0496H216.552V82.8809H269.273V92.0496H247.798V145.615H238.147V92.1703L238.268 92.0496Z" fill="#231F20"/>
<path d="M273.495 82.7603H283.026V106.285C284.715 103.873 289.178 99.5295 296.417 99.5295C303.655 99.5295 313.307 102.787 313.307 117.988V145.494H303.052V119.073C303.052 111.232 299.192 108.095 294.125 108.095C289.058 108.095 282.905 113.765 282.905 122.934V145.494H273.374V82.7603H273.495Z" fill="#231F20"/>
<path d="M319.58 123.416C319.58 109.542 328.146 100.132 340.934 100.132C353.722 100.132 362.287 111.473 361.202 126.312H329.473C329.473 133.791 334.178 138.255 341.175 138.255C348.172 138.255 349.379 137.29 351.43 131.379H360.357C359.03 140.185 351.792 146.459 341.054 146.459C330.317 146.459 319.459 137.893 319.459 123.416H319.58ZM351.068 117.987C350.826 112.317 346.604 108.457 340.572 108.457C334.54 108.457 329.955 112.438 329.593 117.987H350.947H351.068Z" fill="#231F20"/>
<path d="M390.276 82.7598H412.716C429.606 82.3979 442.514 95.4272 442.514 113.644C442.514 131.861 429.967 145.373 413.56 145.494H390.156C390.156 145.614 390.156 82.7598 390.156 82.7598H390.276ZM412.474 135.963C423.815 135.842 432.742 127.035 432.742 114.006C432.742 100.977 423.935 92.1699 412.836 92.2905H399.686V136.083H412.474V135.963Z" fill="#231F20"/>
<path d="M447.099 123.416C447.099 109.542 455.664 100.132 468.452 100.132C481.24 100.132 489.806 111.473 488.72 126.312H456.991C456.991 133.791 461.696 138.255 468.693 138.255C475.691 138.255 476.897 137.29 478.948 131.379H487.875C486.548 140.185 479.31 146.459 468.573 146.459C457.836 146.459 446.978 137.893 446.978 123.416H447.099ZM478.586 117.987C478.345 112.317 474.122 108.457 468.09 108.457C462.058 108.457 457.474 112.438 457.112 117.987H478.465H478.586Z" fill="#231F20"/>
<path d="M495.476 100.736H504.524V106.889C505.731 104.476 510.918 99.771 518.76 99.771C526.602 99.771 539.269 107.371 539.269 122.934C539.269 138.497 529.014 146.097 519.001 146.097C508.988 146.097 506.937 142.599 504.524 139.342V163.591H495.476V100.857V100.736ZM529.135 123.417C529.135 114.731 524.068 108.578 516.95 108.578C509.832 108.578 504.645 114.369 504.645 122.572C504.645 130.776 509.712 137.291 516.95 137.291C524.189 137.291 529.135 131.5 529.135 123.537V123.417Z" fill="#231F20"/>
<path d="M542.768 123.054C542.768 109.542 552.298 100.012 564.483 100.012C576.668 100.012 586.078 109.542 586.078 123.054C586.078 136.566 576.547 145.856 564.483 145.856C552.419 145.856 542.768 136.325 542.768 123.054ZM576.668 123.175C576.668 115.092 572.325 109.06 564.483 109.06C556.641 109.06 552.419 115.092 552.419 123.175C552.419 131.258 556.762 137.169 564.362 137.169C571.963 137.169 576.668 131.137 576.668 123.296V123.175Z" fill="#231F20"/>
<path d="M589.215 131.138H598.383C599.349 135.843 603.45 138.376 608.155 138.376C612.86 138.376 615.997 135.602 615.997 131.982C615.997 128.363 614.549 127.277 607.793 126.192C592.231 123.899 590.542 117.264 590.542 112.8C590.542 106.044 596.936 99.771 607.311 99.771C617.686 99.771 624.08 103.873 624.925 114.972H616.118C615.153 108.94 610.086 108.095 607.552 108.095C605.019 108.095 600.314 109.543 600.314 112.8C600.314 116.058 602.365 117.505 607.914 118.229C621.909 119.918 626.01 124.985 626.01 131.862C626.01 138.738 616.842 146.339 608.517 146.339C600.193 146.339 589.818 141.272 589.215 131.017V131.138Z" fill="#231F20"/>
<path d="M631.801 82.7603H642.418V94.2212H631.801V82.7603ZM632.163 100.736H642.176V145.494H632.163V100.736Z" fill="#231F20"/>
<path d="M652.069 133.55V108.698H645.072V100.615H652.069V86.2588H661.358V100.615H672.819V108.698H661.358V131.138C661.358 135.601 662.565 137.049 666.787 137.049H672.819V145.494H664.254C657.136 145.494 651.948 140.548 651.948 133.55H652.069Z" fill="#231F20"/>
<path d="M701.17 82.7603H711.666V108.94H741.103V82.7603H751.598V145.494H741.103V117.505H711.666V145.494H701.17V82.7603Z" fill="#231F20"/>
<path d="M759.199 123.054C759.199 109.542 768.73 100.012 780.915 100.012C793.099 100.012 802.509 109.542 802.509 123.054C802.509 136.566 792.979 145.856 780.915 145.856C768.85 145.856 759.199 136.325 759.199 123.054ZM793.099 123.175C793.099 115.092 788.756 109.06 780.915 109.06C773.073 109.06 768.85 115.092 768.85 123.175C768.85 131.258 773.193 137.169 780.794 137.169C788.394 137.169 793.099 131.137 793.099 123.296V123.175Z" fill="#231F20"/>
<path d="M809.145 82.7603H819.158V145.494H809.145V82.7603Z" fill="#231F20"/>
<path d="M825.914 123.417C825.914 108.216 836.168 100.253 846.182 100.253C856.195 100.253 858.246 103.752 860.659 107.009V82.7603H869.707V145.494H860.659V139.341C859.452 141.754 854.265 146.459 846.423 146.459C838.581 146.459 825.914 138.859 825.914 123.296V123.417ZM860.538 123.658C860.538 115.092 855.471 108.94 848.233 108.94C840.994 108.94 836.048 114.73 836.048 122.693C836.048 130.655 841.115 137.532 848.233 137.532C855.35 137.532 860.538 131.741 860.538 123.537V123.658Z" fill="#231F20"/>
<path d="M876.463 123.416C876.463 109.542 885.028 100.132 897.816 100.132C910.604 100.132 919.17 111.473 918.084 126.312H886.355C886.355 133.791 891.06 138.255 898.058 138.255C905.055 138.255 906.261 137.29 908.312 131.379H917.24C915.913 140.185 908.674 146.459 897.937 146.459C887.2 146.459 876.342 137.893 876.342 123.416H876.463ZM907.95 117.987C907.709 112.317 903.487 108.457 897.454 108.457C891.422 108.457 886.838 112.438 886.476 117.987H907.83H907.95Z" fill="#231F20"/>
<path d="M924.719 100.736H933.888V106.164C934.733 104.475 937.869 100.012 946.435 100.012H948.486V109.904H946.918C940.886 109.904 933.888 111.835 933.888 122.813V145.494H924.719V100.736Z" fill="#231F20"/>
<path d="M52.9617 117.987C52.9617 87.465 77.6933 62.7334 108.216 62.7334H52.9617V117.987Z" fill="#3E8DFF"/>
<path d="M163.59 62.7334H108.336V173.362C138.859 173.362 163.59 148.63 163.59 118.108C163.59 87.5856 162.746 106.888 161.057 101.701C162.625 106.888 163.59 112.438 163.59 118.108V62.854V62.7334Z" fill="#3E8DFF"/>
</svg>
