<svg width="1000" height="162" viewBox="0 0 1000 162" fill="none" xmlns="http://www.w3.org/2000/svg">
<g clip-path="url(#clip0_759_5448)">
<mask id="mask0_759_5448" style="mask-type:luminance" maskUnits="userSpaceOnUse" x="0" y="0" width="260" height="162">
<path d="M259.166 0H0V161.226H259.166V0Z" fill="white"/>
</mask>
<g mask="url(#mask0_759_5448)">
<path d="M0.705696 13.5616C-1.87657 7.04269 2.93584 0 9.97839 0H53.7012C57.8092 0 61.4475 2.44458 62.9739 6.22783L97.7755 93.0683C98.7148 95.3968 98.7148 98.0156 97.7755 100.402L75.885 154.939C72.54 163.263 60.6846 163.263 57.3396 154.939L0.705696 13.5616Z" fill="url(#paint0_linear_759_5448)"/>
<path d="M85.1564 13.2706C82.8088 6.80989 87.621 0 94.5462 0H132.635C136.861 0 140.616 2.61919 142.025 6.51888L173.658 93.3596C174.421 95.5128 174.421 97.8995 173.658 100.111L154.643 152.32C151.474 161.051 139.032 161.051 135.863 152.32L85.1564 13.2706Z" fill="url(#paint1_linear_759_5448)"/>
<path d="M161.392 13.5616C158.81 7.04269 163.622 0 170.665 0H214.388C218.496 0 222.135 2.44458 223.66 6.22783L258.462 93.0683C259.401 95.3968 259.401 98.0156 258.462 100.402L236.571 154.939C233.226 163.263 221.372 163.263 218.026 154.939L161.392 13.5616Z" fill="url(#paint2_linear_759_5448)"/>
</g>
</g>
<g clip-path="url(#clip1_759_5448)">
<path fill-rule="evenodd" clip-rule="evenodd" d="M484.973 28.1266C476.79 28.1266 470.081 34.7581 470.081 43.2133C470.081 51.5028 476.79 58.1343 484.973 58.1343C493.156 58.1343 499.866 51.5028 499.866 43.2133C499.866 34.7581 493.156 28.1266 484.973 28.1266ZM498.066 65.7602H472.044V155.12H498.066V65.7602ZM320.171 31.4425H345.538V65.7607H365.013V89.6344H345.538V121.134C345.538 125.776 349.138 129.423 353.557 129.423H364.849V154.789H353.557C335.227 154.789 320.171 139.702 320.171 120.968V89.4686H308.388V65.5949H320.171V31.4425ZM427.039 63.7713C415.256 63.7713 405.927 68.7449 402.326 76.537V31.4425H376.305V154.955H402.326V104.887C402.326 94.442 409.037 87.1477 418.529 87.1477C428.184 87.1477 433.585 93.4475 433.585 104.058V155.121H459.606V100.742C459.606 77.5319 447.823 63.7713 427.039 63.7713ZM535.215 65.5949V77.8634C539.143 68.9107 548.635 63.7713 560.582 63.6055C562.382 63.6055 564.673 63.7713 567.456 64.1029V88.9709C564.837 88.4737 561.891 88.1422 558.781 88.1422C543.889 88.1422 535.215 96.5972 535.215 111.353V154.955H509.194V65.5949H535.215ZM640.61 77.3662C637.992 69.5739 627.681 64.1029 614.425 64.1029C601.987 64.1029 591.513 68.5791 583.167 77.5319C574.984 86.3185 570.729 97.4264 570.729 110.358C570.729 123.289 574.984 134.232 583.167 143.35C591.513 152.137 601.987 156.613 614.425 156.613C627.681 156.613 637.992 151.142 640.61 143.35V155.121H666.632V31.4425H640.61V77.3662ZM635.374 126.274C630.955 130.584 625.554 132.574 619.171 132.574C612.952 132.574 607.552 130.418 603.297 126.274C598.878 121.797 596.75 116.492 596.75 110.358C596.75 104.224 598.878 98.9187 603.297 94.6078C607.715 90.1316 612.952 87.9764 619.171 87.9764C625.718 87.9764 631.118 90.1316 635.374 94.6078C639.956 98.9187 642.247 104.224 642.247 110.358C642.247 116.492 639.956 121.797 635.374 126.274ZM741.75 66.0918L765.316 108.533L781.191 65.7602H806.722L770.39 160.26L741.75 108.865L713.11 160.26L676.942 65.7602H702.473L718.184 108.533L741.75 66.0918ZM849.598 63.6055C836.178 63.6055 824.887 67.916 816.052 76.537C807.376 84.992 802.957 96.2657 802.957 110.192V111.021C802.957 124.947 807.376 136.221 816.052 144.676C825.053 152.965 836.509 157.276 850.909 157.276C864.329 157.276 875.294 154.623 883.641 149.152V126.108C875.459 131.91 864.982 134.729 852.381 134.729C838.634 134.729 829.633 127.931 829.141 117.321H893.787C894.113 114.669 894.279 111.684 894.279 108.7C894.279 95.9342 890.02 85.324 881.838 76.7028C873.656 67.916 862.692 63.6055 849.598 63.6055ZM829.141 100.245C829.307 96.1 831.431 92.6183 835.359 89.8001C839.452 86.9814 844.033 85.4897 849.598 85.4897C859.91 85.4897 867.931 92.2868 867.931 100.245H829.141ZM956.303 64.1029C968.739 64.1029 979.216 68.5791 987.398 77.5319C995.746 86.4842 1000 97.2607 1000 110.192C1000 123.124 995.746 134.066 987.398 143.184C979.216 151.971 968.739 156.447 956.303 156.447C943.049 156.447 932.737 150.976 930.12 143.184V154.955H904.098V31.4425H930.12V77.3662C932.737 69.5739 943.049 64.1029 956.303 64.1029ZM951.557 132.574C957.775 132.574 963.013 130.584 967.433 126.274C971.848 121.797 973.978 116.492 973.978 110.358C973.978 104.224 971.848 98.9187 967.433 94.6078C963.179 90.1316 957.775 87.9764 951.557 87.9764C945.173 87.9764 939.774 90.1316 935.193 94.6078C930.773 98.9187 928.483 104.224 928.483 110.358C928.483 116.492 930.773 121.797 935.193 126.274C939.608 130.418 945.013 132.574 951.557 132.574Z" fill="white"/>
</g>
<defs>
<linearGradient id="paint0_linear_759_5448" x1="3.71923" y1="27.7448" x2="130.831" y2="82.5902" gradientUnits="userSpaceOnUse">
<stop stop-color="#F213A4"/>
<stop offset="0.1517" stop-color="#E011A7"/>
<stop offset="0.4554" stop-color="#B20DAF"/>
<stop offset="0.8789" stop-color="#6806BB"/>
<stop offset="1" stop-color="#5204BF"/>
</linearGradient>
<linearGradient id="paint1_linear_759_5448" x1="87.9419" y1="27.3466" x2="206.413" y2="74.5711" gradientUnits="userSpaceOnUse">
<stop stop-color="#F213A4"/>
<stop offset="0.1517" stop-color="#E011A7"/>
<stop offset="0.4554" stop-color="#B20DAF"/>
<stop offset="0.8789" stop-color="#6806BB"/>
<stop offset="1" stop-color="#5204BF"/>
</linearGradient>
<linearGradient id="paint2_linear_759_5448" x1="164.406" y1="27.7448" x2="291.518" y2="82.5901" gradientUnits="userSpaceOnUse">
<stop stop-color="#F213A4"/>
<stop offset="0.1517" stop-color="#E011A7"/>
<stop offset="0.4554" stop-color="#B20DAF"/>
<stop offset="0.8789" stop-color="#6806BB"/>
<stop offset="1" stop-color="#5204BF"/>
</linearGradient>
<clipPath id="clip0_759_5448">
<rect width="259.166" height="161.226" fill="white"/>
</clipPath>
<clipPath id="clip1_759_5448">
<rect width="691.612" height="134.103" fill="white" transform="translate(308.388 27.1221)"/>
</clipPath>
</defs>
</svg>
