<svg width="1000" height="261" viewBox="0 0 1000 261" fill="none" xmlns="http://www.w3.org/2000/svg">
<path d="M536.067 240.138H562.265V59.1656H536.067V164.612C536.067 197.35 514.879 216.383 480.976 216.383C444.376 216.383 433.204 190.878 433.204 164.612V59.1656H406.621V170.703C406.621 208.389 422.417 240.365 471.73 240.365C503.706 240.365 527.977 223.235 535.683 188.975H536.067V240.138Z" fill="white"/>
<path d="M610.881 184.408C610.881 217.146 627.061 240.366 662.89 240.366C677.915 240.366 687.932 238.463 699.875 234.656L696.022 210.674C685.621 213.72 677.53 215.242 667.513 215.242C645.938 215.242 637.463 204.203 637.463 182.124V82.3872H697.949V59.1662H637.463V2.82666H610.881V59.1662H581.986V82.3872H610.881V184.408Z" fill="white"/>
<path d="M753.582 28.7124V2.82666H721.221V28.7124H753.582ZM750.886 240.138V59.1662H724.303V240.138H750.886Z" fill="white"/>
<path d="M816.999 2.82666H790.419V240.138H816.999V2.82666Z" fill="white"/>
<path d="M909.903 217.525C881.781 217.525 871.757 202.679 871.757 188.213C871.757 169.56 885.627 159.663 910.675 159.663H970.001V171.083C970.001 197.73 947.269 217.525 909.903 217.525ZM970.001 240.138H996.196V125.783C996.196 80.4831 975.009 55.3586 926.854 55.3586C882.936 55.3586 857.505 77.4377 851.342 120.073L876.773 124.26C882.163 91.5229 897.57 78.199 926.082 78.199C958.44 78.199 970.001 95.3295 970.001 126.544V138.346H907.976C865.984 138.346 845.562 161.186 845.562 190.498C845.562 223.616 867.911 239.985 904.123 239.985C935.716 239.985 961.139 223.997 969.618 190.498H970.001V240.138Z" fill="white"/>
<path d="M103.694 5.82788L153.416 55.9108L100.105 109.608C74.8867 135.009 74.8867 176.192 100.105 201.593C123.719 225.379 161.074 226.891 186.435 206.13L171.034 221.644C133.843 259.104 73.5446 259.104 36.3537 221.644L30.232 215.477C-6.95883 178.017 -6.95883 117.282 30.232 79.8219L103.694 5.82788Z" fill="white"/>
<path d="M237.885 254.356L188.162 204.273L241.474 150.575C266.692 125.174 266.692 83.991 241.474 58.5904C217.859 34.8047 180.505 33.2923 155.144 54.0533L170.545 38.5399C207.736 1.07964 268.035 1.07964 305.225 38.5399L311.347 44.7061C348.538 82.1666 348.538 142.902 311.347 180.362L237.885 254.356Z" fill="white"/>
</svg>
