<svg width="1000" height="279" viewBox="0 0 1000 279" fill="none" xmlns="http://www.w3.org/2000/svg">
<g clip-path="url(#clip0_759_5050)">
<path d="M924.57 149.611C924.57 175.821 924.57 202.03 924.57 228.239C924.57 235.016 923.562 236.052 916.928 236.052C891.635 236.052 866.343 235.87 841.05 236.108C817.535 236.332 793.572 219.013 788.911 192.636C785.916 175.681 789.667 160.028 801.467 146.979C809.599 137.991 820.195 133.539 832.022 131.844C846.355 129.786 860.786 131.032 875.175 130.766C887.31 130.542 894.771 119.384 890.068 108.169C888.136 103.549 884.511 100.819 879.64 99.7409C877.4 99.2508 875.119 99.1808 872.837 99.1948C855.005 99.1948 837.173 99.1948 819.355 99.1948C812.174 99.1948 810.425 97.4167 810.411 90.1644C810.411 83.332 810.383 76.4857 810.411 69.6533C810.439 64.3331 812.02 62.751 817.227 62.751C850.708 62.751 884.189 62.751 917.67 62.751C923.254 62.751 924.542 64.053 924.556 69.7653C924.556 96.3947 924.556 123.01 924.556 149.639L924.57 149.611ZM858.546 168.05C853.059 168.05 847.545 168.358 842.086 167.966C832.582 167.294 824.73 174.421 825.513 185.047C826.129 193.378 831.896 199.524 840.224 199.566C852.332 199.636 864.453 199.636 876.56 199.566C885.574 199.51 891.285 193.378 891.299 183.941C891.299 174.211 885.77 168.19 876.56 168.05C870.556 167.966 864.551 168.036 858.546 168.036V168.05Z" fill="#0000FF"/>
<path d="M666.354 154.442V197.452C648.158 197.676 644.211 176.381 666.354 154.442Z" fill="#D4D4D4"/>
<path d="M375.287 236.052C360.982 236.052 346.677 236.052 332.373 236.052C327.25 236.052 326.018 235.156 325.08 230.017C323.135 219.335 321.371 208.624 319.495 197.928C316.766 182.345 313.981 166.762 311.265 151.179C308.998 138.145 306.8 125.082 304.533 112.047C302.209 98.7047 299.83 85.362 297.506 72.0194C297.254 70.6053 297.1 69.1352 297.114 67.7071C297.142 64.739 298.682 62.8629 301.593 62.8209C311.027 62.6949 320.461 62.7369 329.881 62.7929C333.016 62.8069 334.066 65.229 334.612 67.7211C335.578 72.0614 336.362 76.4436 337.132 80.8258C339.105 91.9284 341.023 103.031 342.968 114.133C346.076 131.858 349.183 149.583 352.332 167.294C353.27 172.586 354.264 177.879 355.37 183.143C357.371 192.733 365.265 199.272 375.007 199.538C384.343 199.79 392.923 193.56 395.373 184.375C397.71 175.569 398.774 166.496 400.398 157.55C403.267 141.785 406.053 125.992 408.824 110.199C411.036 97.5707 413.191 84.928 415.375 72.2994C415.459 71.7954 415.501 71.2773 415.599 70.7593C416.858 63.5069 417.782 62.7229 425.047 62.7229C432.619 62.7229 440.177 62.6949 447.75 62.7229C452.467 62.7509 454.398 64.641 453.698 69.2192C451.935 80.5598 449.947 91.8584 448.002 103.171C445.314 118.768 442.599 134.351 439.869 149.933C437.574 163.08 435.236 176.213 432.941 189.359C430.659 202.394 428.392 215.443 426.124 228.477C425.998 229.191 425.872 229.905 425.732 230.619C424.823 234.834 423.423 236.01 419.14 236.024C404.527 236.038 389.914 236.024 375.301 236.024L375.287 236.052Z" fill="#0000FF"/>
<path d="M265.018 137.403C251.413 125.11 232.601 115.59 229.256 103.619C227.072 95.793 254.492 87.6866 235.709 75.926C229.774 72.2018 225.743 67.4975 225.015 63.0593C223.013 50.9627 239.726 51.1167 244.765 42.3663C249.258 34.5679 242.287 17.739 234.113 13.9588C220.536 7.67251 207.953 15.6949 199.358 13.0208C191.044 10.4307 190.666 9.10058 181.946 8.90457C166.647 8.56856 152.595 26.6295 138.863 19.8951C129.304 15.2329 127.148 0.742161 114.649 0.0281247C109.442 -0.26589 104.445 2.08623 100.89 5.90842C93.7792 13.5528 92.8274 24.1373 92.7295 34.1619C92.6455 42.6743 93.0094 51.4107 90.154 59.4471C86.8227 68.8276 79.2084 77.046 79.3903 87.0005C79.5443 95.1349 85.0451 102.261 91.4837 107.232C92.4635 107.988 93.4853 108.702 94.5211 109.402C89.9161 111.46 86.9067 116.85 84.2753 121.512C72.6158 142.233 53.5239 158.67 31.3107 167.127C24.3542 169.773 17.0058 171.719 10.7632 175.779C4.52051 179.839 -0.588387 186.728 0.0274804 194.148C0.503378 199.888 4.19858 204.774 6.48009 210.067C11.1831 220.973 11.8689 236.318 23.7803 239.384C29.3511 240.826 35.2159 238.684 39.079 234.414C47.4352 225.188 47.1133 213.189 49.2129 201.96C50.8225 193.378 54.5877 184.263 62.468 180.497C65.8833 178.859 69.7464 178.397 73.2317 176.913C86.9347 171.033 90.14 151.866 103.031 144.389C109.806 140.469 118.708 140.833 129.416 144.907C118.694 139.447 112.577 130.683 100.68 130.683C92.7015 130.683 88.1944 139.573 84.4153 148.562C78.5505 162.52 68.0388 171.341 57.835 172.951C53.8179 173.581 53.006 169.759 56.1973 169.059C67.3669 166.581 75.6252 157.34 80.0342 143.045C84.4432 128.751 92.0156 122.058 97.5444 120.182C105.635 117.452 114.789 120.91 121.087 126.707C121.129 126.735 121.157 126.777 121.199 126.805C122.473 127.981 124.335 126.315 123.285 124.942C118.288 118.502 113.599 116.822 110.618 109.794C107.384 102.135 111.569 96.549 115.517 89.2406C117.252 86.0205 119.702 83.1643 120.919 79.7062C122.795 74.3999 122.837 68.6316 121.983 63.0733C121.129 57.515 116.02 55.3309 116.02 59.4611C116.02 63.9134 116.132 69.3736 113.487 74.1199C109.946 80.4762 106.055 76.248 107.146 72.6778C109.134 66.1955 111.625 59.3071 106.712 55.0929C98.7482 48.2606 99.1681 45.4324 98.4542 39.4961C97.6844 33.1258 97.8384 23.1293 101.072 15.2329C104.851 5.99243 114.411 3.30429 121.003 8.68056C128.968 15.1769 133.097 22.6113 133.391 25.8034C134.93 41.9462 115.195 42.6043 122.711 50.1227C127.022 54.4349 146.394 44.4524 158.711 48.3586C161.399 49.2126 164.184 50.6547 164.884 52.1808C168.481 60.0352 152.623 54.9669 164.73 67.8336C171.322 74.8479 156.388 71.9918 143.832 77.9701C132.061 83.5844 127.12 87.9666 124.992 98.7471C122.305 112.314 136.036 110.088 139.353 109.64C156.29 107.33 137.94 126.385 135.532 130.459C133.237 134.351 134.077 140.861 138.542 141.505C143.021 142.135 145.47 138.901 149.347 141.225C151.251 142.373 151.867 143.773 151.727 145.313C151.475 148.058 153.77 150.368 156.528 150.2H156.626C157.773 150.13 158.837 149.64 159.635 148.828C161.805 146.602 165.612 141.729 163.526 136.633C161.693 132.125 147.99 126.609 150.215 118.628C151.587 113.686 160.055 110.858 172.862 111.824C181.134 112.454 187.993 111.208 193.494 104.627C198.491 98.6351 199.82 88.4146 211.508 88.4146C228.234 88.4146 227.688 103.759 226.583 103.353C216.687 99.7132 211.34 105.229 211.2 105.103C204.747 99.2932 198.113 102.961 193.144 110.088C185.082 121.652 174.948 115.8 170.875 123.402C167.389 129.885 173.142 136.955 169.419 143.297C168.621 144.655 165.962 146.756 166.801 147.89C168.047 149.57 176.501 142.611 185.515 146.294C195.523 150.382 196.923 141.869 196.377 133.805C196.069 129.199 202.088 127.799 206.539 128.765C213.663 130.291 219.15 137.487 220.718 147.246C221.46 151.88 220.816 156.976 223.293 160.966C225.015 163.766 228.094 165.685 229.214 168.765C230.446 172.181 228.934 175.877 228.08 179.405C223.727 197.242 239.768 216.703 258.118 216.563C276.468 216.423 295.28 192.384 299.073 174.435C308.801 128.513 275.418 146.826 265.018 137.431V137.403ZM179.833 93.5389C178.615 103.227 169.825 100.455 170.749 90.5567C172.162 75.534 191.1 55.2049 202.508 47.4765C217.946 37.018 214.573 32.7898 207.239 33.1678C197.889 33.6578 189.673 41.7782 183.864 39.4821C177.747 37.074 183.094 29.8916 177.985 26.3355C170.861 21.3652 157.465 28.7716 160.363 22.5833C162.91 17.123 180.434 18.257 185.347 22.4713C189.798 26.2795 192.682 31.7817 201.136 28.6456C208.694 25.8454 219.066 13.7488 228.822 16.353C241.167 19.6431 244.373 39.7061 223.069 43.5703C198.869 47.9526 182.8 70.0597 179.847 93.5249L179.833 93.5389ZM275.992 160.406C271.303 163.584 262.807 159.888 258.552 155.618C252.029 149.094 250.545 150.9 251.259 156.164C253.093 169.745 239.068 167.617 241.489 186.084C241.671 187.512 239.642 188.002 239.194 186.63C235.975 176.801 239.614 174.729 239.614 166.875C239.614 149.976 251.805 165.166 240.552 145.523C235.849 137.333 244.709 133.791 247.788 138.775C252.043 145.664 274.774 162.814 274.676 145.579C274.676 144.291 276.482 143.969 276.902 145.187C278.889 150.984 281.479 156.668 275.978 160.392L275.992 160.406Z" fill="#D4D4D4"/>
<path d="M209.198 191.277C208.065 176.856 205.405 166.384 194.32 157.101C187.755 151.613 181.316 151.753 176.152 153.405C169.265 155.603 166.186 161.287 165.57 162.323C160.909 170.318 160.307 179.964 159.831 189.205C158.627 212.194 160.489 256.534 156.206 256.058C151.923 255.582 153.784 231.921 152.623 213.16C149.585 163.709 145.386 165.18 139.326 160.461C132.775 155.365 121.381 153.433 114.733 155.841C114.705 155.841 114.691 155.855 114.663 155.869C110.436 157.045 111.751 159.383 115.783 159.831C121.759 160.489 125.944 164.269 126.546 167.896C127.428 173.328 123.957 178.368 113.109 176.912C104.249 175.722 95.7949 177.36 95.7949 186.209C96.3408 200.699 105.775 212.068 105.341 228.043C105.187 233.671 104.235 239.845 107.426 244.48C110.422 248.834 116.063 250.318 120.416 253.314C125.818 257.052 129.094 263.044 133.013 268.323C136.932 273.587 142.377 278.599 148.941 278.669C156.906 278.739 162.896 271.739 170.091 268.337C171.141 267.847 172.12 267.441 173.1 267.077C175.76 266.097 177.495 263.535 177.565 260.706C177.565 260.174 177.565 259.642 177.565 259.166C177.327 253.538 175.69 248.078 174.262 242.617C171.477 232.033 169.405 220.818 171.099 210.136C171.211 209.422 172.26 209.492 172.26 210.22C172.316 221.49 175.214 232.747 180.673 242.617C182.002 245.012 183.962 247.63 186.705 247.588C188.259 247.56 189.673 246.636 190.68 245.446C193.914 241.595 192.682 236.443 190.568 231.893C188.875 228.225 186.159 223.184 184.55 216.618C184.382 215.932 185.334 215.596 185.656 216.212C190.121 224.991 196.111 230.353 199.415 231.711C201.5 232.579 203.852 231.389 204.397 229.191C207.505 216.73 210.206 204.045 209.198 191.291V191.277Z" fill="#D4D4D4"/>
<path d="M764.78 112.188C761.183 96.2828 752.645 83.5841 740.958 75.0717C739.054 73.6716 737.066 72.3836 734.995 71.2355C726.317 66.3353 716.309 63.4791 705.559 62.9891C685.74 62.0931 665.864 62.5271 646.002 62.6811C642.125 62.7091 638.248 62.7231 634.371 62.7231C631.235 62.7091 629.542 64.3192 629.08 67.2733C628.856 68.6874 628.856 70.1575 628.856 71.5995V76.7238C628.842 100.903 628.856 125.096 628.856 149.275C628.856 175.275 628.842 201.274 628.856 227.259C628.856 228.814 628.884 230.382 629.164 231.894C629.654 234.568 631.305 236.052 634.147 236.052C643.049 236.038 651.965 236.08 660.881 236.024C663.988 236.024 665.878 234.246 666.256 231.152C666.41 229.92 666.354 228.674 666.354 227.427V207.168C627.47 216.871 626.896 180.721 666.354 146.363C666.354 140.343 666.354 134.323 666.354 128.316C666.368 122.03 668.173 116.276 671.897 111.18C680.099 99.937 694.334 97.3468 706.567 100.399C709.17 101.043 711.592 101.995 713.817 103.213C715.721 104.249 717.485 105.481 719.08 106.895C725.743 112.776 729.564 121.61 729.578 131.691C729.592 144.431 729.592 157.172 729.592 169.913V173.623C729.592 191.446 729.592 209.255 729.592 227.077C729.592 228.73 729.634 230.41 729.928 232.02C730.404 234.568 732.014 236.024 734.687 236.038C743.701 236.052 752.729 236.052 761.743 236.038C764.71 236.038 766.306 234.302 766.852 231.572C767.104 230.27 767.02 228.898 767.02 227.553C767.02 202.786 767.006 178.033 767.02 153.28C767.02 152.118 767.02 150.942 767.02 149.78C767.02 144.319 767.02 138.873 767.034 133.413C767.034 126.23 766.334 119.174 764.738 112.188H764.78Z" fill="#0000FF"/>
<path d="M590.407 62.7231H491.21C485.751 62.7231 483.946 64.4732 483.904 69.9195C483.848 76.7659 483.876 83.5982 483.89 90.4305C483.904 97.1229 485.933 99.181 492.596 99.181C510.316 99.195 528.036 99.167 545.77 99.209C548.248 99.209 550.753 99.377 553.189 99.769C557.164 100.399 560.453 102.387 562.511 105.859C565.744 111.32 566.192 116.976 563.028 122.688C559.893 128.344 554.924 130.725 548.64 130.739C542.733 130.739 536.812 130.753 530.905 130.739C520.352 130.697 509.756 130.361 499.398 133.049C490.3 135.401 481.916 139.391 475.589 146.391C463.972 159.244 459.619 174.337 462.236 191.012C462.404 192.188 462.628 193.378 462.88 194.568C463.286 196.514 463.818 198.418 464.448 200.266C471.516 221.099 491.854 235.968 514.137 236.038C533.201 236.094 552.279 236.052 571.357 236.052C578.509 236.052 585.662 236.08 592.814 236.038C596.159 236.01 597.755 234.596 598.231 231.306C598.441 229.878 598.413 228.422 598.413 226.965C598.413 201.078 598.413 175.177 598.413 149.276V70.6615C598.413 64.0252 597.055 62.7231 590.393 62.7231H590.407ZM549.731 168.064C559.081 168.106 565.31 174.631 565.212 184.137C565.114 193.21 558.745 199.566 549.675 199.594C543.769 199.608 537.862 199.594 531.955 199.594H514.557C504.703 199.608 499.454 193.14 499.09 184.879C499.048 183.871 499.09 182.835 499.188 181.771C499.538 178.047 500.784 175.023 502.771 172.783C504.367 170.963 506.439 169.647 508.93 168.891C508.93 168.891 508.944 168.891 508.944 168.877C510.638 168.345 512.541 168.064 514.613 168.064C518.854 168.064 523.081 168.036 527.322 168.036C534.783 168.008 542.257 168.036 549.731 168.064Z" fill="#0000FF"/>
<path d="M462.88 194.568C463.286 196.514 463.818 198.418 464.448 200.266C452.746 204.298 441.199 207.057 429.567 208.737C395.4 213.693 360.674 209.409 319.971 200.56H319.957C312.426 198.908 304.672 197.116 296.694 195.198C229.27 178.985 266.908 152.79 280.233 168.429C285.118 174.155 298.709 181.575 317.731 187.82C332.512 192.664 350.54 196.808 370.304 198.894C372.459 199.118 374.657 199.328 376.854 199.51C394.225 200.91 412.757 200.686 431.443 197.942C441.716 196.43 452.032 194.176 462.236 191.012C462.404 192.188 462.628 193.378 462.88 194.568Z" fill="#D4D4D4"/>
<path d="M527.322 168.036C518.77 173.594 509.854 178.957 500.588 184.067C500.084 184.347 499.58 184.613 499.09 184.879C499.048 183.871 499.09 182.835 499.188 181.771C499.538 178.047 500.784 175.022 502.771 172.782C503.303 172.46 503.835 172.138 504.367 171.802C505.906 170.836 507.418 169.87 508.93 168.89C508.93 168.89 508.944 168.89 508.944 168.876C510.637 168.344 512.541 168.064 514.613 168.064C518.854 168.064 523.081 168.036 527.322 168.036Z" fill="#D4D4D4"/>
<path d="M740.958 75.0718C739.054 73.6718 737.067 72.3837 734.995 71.2357C747.984 33.4057 688.049 34.7778 646.002 62.6812C639.802 66.7974 633.979 71.4877 628.856 76.7239C626.743 78.866 624.741 81.1202 622.879 83.4443C615.909 92.1807 607.721 101.351 598.427 110.69V91.7187C604.124 85.4324 609.708 79.02 615.195 72.4677C665.752 12.1807 767.244 14.8828 740.958 75.0718Z" fill="#D4D4D4"/>
<path d="M666.354 154.442C644.211 176.381 648.158 197.676 666.354 197.452V207.169C627.47 216.871 626.897 180.722 666.368 146.364C666.354 149.052 666.354 151.74 666.354 154.442Z" fill="#D4D4D4"/>
<path d="M674.668 147.176C671.561 149.584 668.803 152.02 666.354 154.442C666.354 151.74 666.354 149.052 666.368 146.364C667.936 144.977 669.559 143.619 671.239 142.275C689.687 127.491 703.642 114.498 713.832 103.213C715.735 104.249 717.499 105.481 719.095 106.896C708.261 118.964 693.676 132.391 674.668 147.176Z" fill="#D4D4D4"/>
<path d="M998.152 154.064C996.571 156.542 993.575 158.278 990.706 157.704C987.543 157.074 975.407 142.737 968.871 138.103C956.301 129.213 940.639 123.514 924.57 120.126C913.471 117.774 902.161 116.514 891.537 116.052H891.453C873.649 115.296 825.962 124.382 767.062 153.28C754.997 159.188 742.456 165.936 729.606 173.623C722.944 177.585 716.197 181.813 709.381 186.293C691.884 197.802 677.538 204.396 666.354 207.169V197.452C668.901 197.438 671.701 196.99 674.752 196.066C688.693 191.88 707.771 181.785 729.606 169.913C741.42 163.514 754.031 156.584 767.062 149.78C791.473 137.081 817.367 124.83 842.296 117.326C858.728 112.384 874.671 109.668 890.39 108.94C901.867 108.394 913.219 108.898 924.57 110.34C947.469 113.238 970.368 119.972 994.177 129.647C997.69 134.197 999.748 139.853 999.986 145.593C1000.1 148.534 999.72 151.6 998.152 154.064Z" fill="#D4D4D4"/>
</g>
<defs>
<clipPath id="clip0_759_5050">
<rect width="1000" height="278.656" fill="white"/>
</clipPath>
</defs>
</svg>
