<svg width="1000" height="212" viewBox="0 0 1000 212" fill="none" xmlns="http://www.w3.org/2000/svg">
<rect x="25.403" y="25.4033" width="336.59" height="160.234" rx="24.426" fill="#3ABC75"/>
<path d="M273.666 56.6681L234.449 154.372H255.188L284.961 80.3544L314.547 154.372H335.286L295.026 56.6681H273.666Z" fill="white"/>
<path d="M91.3275 154.372L52.1102 56.668H72.8488L102.622 130.686L132.209 56.668H152.947L112.687 154.372H91.3275Z" fill="white"/>
<path d="M245.059 86.8155C245.213 95.394 241.221 103.215 235.08 108.262C228.017 114.191 218.651 116.714 207.29 116.714H180.5V154.25H160.616V56.791H207.29C220.34 56.791 227.556 59.4402 233.851 64.4864C241.835 70.794 244.906 77.354 245.059 86.8155ZM220.34 95.8986C222.797 93.5017 223.872 89.8432 223.872 86.8155C223.872 83.5355 222.95 79.4986 220.187 76.7233C217.423 74.074 213.585 72.9387 207.904 72.9387H180.5V100.692H207.904C212.05 100.692 217.116 99.1786 220.34 95.8986Z" fill="white"/>
<path d="M391.304 100.586C391.304 69.9559 409.331 50.2197 434.685 50.2197C460.039 50.2197 470.933 63.8006 473.424 82.9506H463.361C460.625 69.3697 448.461 60.0878 435.076 60.0878C415.486 60.0878 402.54 76.5509 402.54 101.172C402.54 125.794 415.339 140.107 434.489 140.107C453.639 140.107 461.016 130.239 463.361 117.049H473.424C470.884 136.248 454.812 150.366 433.903 150.366C412.995 150.366 391.304 130.63 391.304 100.586Z" fill="white"/>
<path d="M477.284 100.587C477.284 71.3245 495.896 50.8066 522.228 50.8066C548.559 50.8066 566.976 71.3245 566.976 100.587C566.976 129.849 548.363 149.976 522.228 149.976C496.092 149.976 477.284 129.458 477.284 100.587ZM521.837 139.913C542.159 139.913 556.522 123.84 556.522 100.978C556.522 78.1149 544.309 60.8702 522.228 60.8702C500.146 60.8702 488.129 77.3333 488.129 100.587C488.129 123.84 502.101 139.913 521.837 139.913Z" fill="white"/>
<path d="M577.626 52.1252H588.275V66.0969C593.307 57.2058 604.934 49.6338 619.248 49.6338C641.524 49.6338 654.91 66.0969 654.91 89.5459V148.999H644.26V89.5459C644.26 71.5195 633.805 59.1111 618.515 59.1111C603.224 59.1111 588.471 72.8873 588.275 94.5776V148.999H577.626V52.1252Z" fill="white"/>
<path d="M671.422 52.1252H682.071V66.0969C687.103 57.2058 698.73 49.6338 713.043 49.6338C735.32 49.6338 748.705 66.0969 748.705 89.5459V148.999H738.056V89.5459C738.056 71.5195 727.601 59.1111 712.311 59.1111C697.02 59.1111 682.267 72.8873 682.071 94.5776V148.999H671.422V52.1252Z" fill="white"/>
<path d="M758.378 101.32C758.378 71.8618 774.646 50.9531 802.345 50.9531C830.044 50.9531 844.211 72.2526 844.406 102.492H769.809V102.687C769.809 125.745 782.218 140.841 802.736 140.841C823.254 140.841 829.653 130.973 832.584 117.783H842.843C840.303 136.981 823.644 151.1 802.149 151.1C780.655 151.1 758.378 131.363 758.378 101.32ZM832.584 92.6239C830.239 74.2067 822.521 61.0655 801.954 61.0655C781.387 61.0655 772.692 74.2555 770.396 92.6239H832.584Z" fill="white"/>
<path d="M848.266 100.586C848.266 69.9559 866.292 50.2197 891.646 50.2197C917 50.2197 927.894 63.8006 930.386 82.9506H920.322C917.587 69.3697 905.422 60.0878 892.037 60.0878C872.447 60.0878 859.502 76.5509 859.502 101.172C859.502 125.794 872.301 140.107 891.451 140.107C910.601 140.107 917.977 130.239 920.322 117.049H930.386C927.845 136.248 911.773 150.366 890.865 150.366C869.956 150.366 848.266 130.63 848.266 100.586Z" fill="white"/>
<path d="M941.084 124.573V61.9935H926.575V52.1253H941.084V25.4033H951.734V52.1253H974.206V61.9935H951.734V124.573C951.734 134.05 956.961 138.544 963.947 138.544H974.597V148.999H963.947C949.976 148.999 941.084 140.303 941.084 124.573Z" fill="white"/>
</svg>
